<svg xmlns="http://www.w3.org/2000/svg" width="509" height="185" fill="#1974D2">
    <path d="m.5.5v184h508v-184z" fill="none" stroke="#808080" stroke-dashoffset=".5" stroke-dasharray="1 3"/>
    <rect x="10" y="10" width="30"  height="60" rx="3"/>
    <rect x="50" y="10" width="160" height="30" rx="3"/>
    <rect x="220" y="10" width="100" height="40" rx="3"/>
    <rect x="330"  y="10" width="150" height="20" rx="3"/>
    <rect x="50" y="60" width="200" height="40" rx="3"/>
    <rect x="260"  y="60" width="190" height="30" rx="3"/>
    <rect x="260"  y="100" width="230" height="25" rx="3"/>
    <rect x="10" y="135" width="200" height="40" rx="3"/>
    <rect x="220" y="135" width="90"  height="30" rx="3"/>
    <text x="21 125 265 401 145 351 371 106 261" y="23 23 23 23 73 73 112 148 148" style="fill: #FFF; font: 13px PT Sans, sans-serif">123456789</text>
</svg>
