<svg xmlns="http://www.w3.org/2000/svg" width="509" height="221" fill="#3EA746">
    <path d="m.5.5h508v220h-508z" fill="none" stroke="#808080" stroke-dashoffset=".5" stroke-dasharray="1 3"/>
    <rect x="10" y="10" width="30"  height="60" rx="3"/>
    <rect x="50" y="10" width="160" height="30" rx="3"/>
    <rect x="220" y="10" width="100" height="40" rx="3"/>
    <rect x="330"  y="10" width="150" height="20" rx="3"/>
    <rect x="10" y="80" width="200" height="40" rx="3"/>
    <rect x="220"  y="80" width="190" height="30" rx="3"/>
    <rect x="10" y="130" width="230" height="25" rx="3"/>
    <rect x="250"  y="130" width="200" height="40" rx="3"/>
    <rect x="10" y="180" width="90"  height="30" rx="3"/>
    <text x="21 125 265 401 106 312 117 347 52" y="23 23 23 23 92 92 142 142 192" style="fill: #FFF; font:13px PT Sans, sans-serif">123456789</text>
</svg>
