<svg viewBox="0 0 100 100" xmlns="http://www.w3.org/2000/svg"><path fill="hsl(30deg 66% 58%)" d="M0 0h100v100H0z"/><path d="M21.805 29.778c.144.012.318.024.522.036.216 0 .438.006.666.018h1.89c.3-.012.606-.018.918-.018.324-.012.6-.024.828-.036 0 .144-.006.3-.018.468a2.472 2.472 0 0 1-.09.504c-.396.036-.684.102-.864.198-.18.096-.258.276-.234.54.024.264.126.666.306 1.206.216.636.438 1.326.666 2.07.24.732.474 1.488.702 2.268.228.768.45 1.512.666 2.232h-.54l3.258-9.468c.132-.048.282-.078.45-.09.18-.012.366-.018.558-.018.408 1.032.81 2.088 1.206 3.168.408 1.068.804 2.142 1.188 3.222.396 1.068.774 2.118 1.134 3.15h-.468l1.836-5.904c.276-.9.342-1.53.198-1.89-.132-.372-.492-.6-1.08-.684a1.92 1.92 0 0 1-.126-.486 7.375 7.375 0 0 1-.018-.486c.252.012.546.024.882.036a25.908 25.908 0 0 0 1.926 0c.336-.012.624-.024.864-.036 0 .156-.012.318-.036.486a1.68 1.68 0 0 1-.108.486c-.204.06-.384.174-.54.342-.144.156-.288.414-.432.774-.144.348-.318.846-.522 1.494l-2.7 8.676c-.12.036-.288.066-.504.09a5.412 5.412 0 0 1-.594.036c-.36-1.02-.732-2.046-1.116-3.078a331.47 331.47 0 0 0-1.17-3.132 102.64 102.64 0 0 0-1.188-3.078h.36l-3.114 9.18a2.31 2.31 0 0 1-.36.054 2.21 2.21 0 0 1-.396.036 4.181 4.181 0 0 1-.378.018c-.48-1.596-.966-3.174-1.458-4.734-.48-1.572-.96-3.072-1.44-4.5a17.587 17.587 0 0 0-.54-1.422c-.132-.3-.264-.492-.396-.576a1.055 1.055 0 0 0-.486-.162 1.904 1.904 0 0 1-.09-.468 7.853 7.853 0 0 1-.018-.522zm20.762 9.288c0 .516.054.918.162 1.206.108.276.288.474.54.594.264.108.6.18 1.008.216.048.12.078.264.09.432a7.6 7.6 0 0 1 .018.54 35.776 35.776 0 0 0-.72-.036c-.276 0-.576-.006-.9-.018h-2.502c-.528.012-.942.03-1.242.054 0-.216.006-.402.018-.558.024-.156.054-.294.09-.414.324-.024.576-.084.756-.18.18-.096.3-.264.36-.504.072-.24.108-.582.108-1.026v-1.458h2.214v1.152zm0-2.358v1.494h-2.214v-1.98l2.214-1.728c0 .348-.036.678-.108.99-.072.312-.144.66-.216 1.044l.324.18zm-.396-.09c.108-.3.204-.576.288-.828a4.15 4.15 0 0 1 .27-.594c.264-.42.582-.768.954-1.044a2.062 2.062 0 0 1 1.26-.414c.468 0 .894.144 1.278.432a9.417 9.417 0 0 0-.09.756 20.86 20.86 0 0 0-.054.864 8.699 8.699 0 0 0 0 .792c-.144.06-.342.108-.594.144a5.098 5.098 0 0 1-.72.054c-.012-.516-.09-.864-.234-1.044a.7.7 0 0 0-.576-.27c-.192 0-.396.108-.612.324a2.756 2.756 0 0 0-.558.864 3.034 3.034 0 0 0-.216 1.17l-.396-1.206zm-1.818 1.584v-1.728c0-.324-.03-.582-.09-.774a.644.644 0 0 0-.36-.432c-.18-.096-.468-.156-.864-.18 0-.168.012-.324.036-.468a1.13 1.13 0 0 1 .144-.414 9.374 9.374 0 0 0 1.62-.216c.552-.12.972-.252 1.26-.396.132.048.24.144.324.288.096.132.144.336.144.612l-2.214 3.708zm11.162 3.96c-.888 0-1.656-.174-2.304-.522a3.614 3.614 0 0 1-1.494-1.476c-.336-.636-.504-1.38-.504-2.232 0-.888.186-1.656.558-2.304a3.907 3.907 0 0 1 1.566-1.494c.66-.36 1.404-.54 2.232-.54.936 0 1.722.18 2.358.54.648.36 1.14.858 1.476 1.494.336.636.504 1.368.504 2.196 0 .864-.186 1.62-.558 2.268a3.908 3.908 0 0 1-1.53 1.53c-.648.36-1.416.54-2.304.54zm.216-1.026c.612 0 1.074-.276 1.386-.828.312-.564.468-1.278.468-2.142 0-.756-.102-1.398-.306-1.926-.204-.54-.474-.948-.81-1.224-.336-.276-.702-.414-1.098-.414-.624 0-1.086.27-1.386.81-.3.54-.45 1.218-.45 2.034 0 .744.09 1.398.27 1.962.18.552.432.978.756 1.278.324.3.714.45 1.17.45zm6.727-2.934v-1.728c0-.324-.03-.582-.09-.774a.644.644 0 0 0-.36-.432c-.18-.096-.468-.156-.864-.18 0-.168.012-.324.036-.468a1.13 1.13 0 0 1 .144-.414 9.374 9.374 0 0 0 1.62-.216c.552-.12.972-.252 1.26-.396.132.048.24.144.324.288.096.132.144.336.144.612l-2.214 3.708zm7.758 1.314c0 .612.078 1.026.234 1.242.156.216.402.324.738.324.06.132.096.276.108.432.012.144.018.324.018.54a16.81 16.81 0 0 0-.972-.054H64.344c-.3.012-.588.018-.864.018-.276.012-.51.024-.702.036 0-.192.006-.366.018-.522a2.25 2.25 0 0 1 .108-.45c.372 0 .648-.114.828-.342.192-.24.288-.672.288-1.296v-2.25c0-.804-.138-1.35-.414-1.638-.264-.3-.624-.45-1.08-.45-.3 0-.594.108-.882.324-.288.204-.522.522-.702.954-.18.432-.27.984-.27 1.656v1.476c0 .6.084 1.014.252 1.242.168.216.456.324.864.324.048.144.078.294.09.45.012.144.018.318.018.522a26.043 26.043 0 0 0-.648-.036c-.264 0-.546-.006-.846-.018H58.71c-.312.012-.612.018-.9.018-.276.012-.504.024-.684.036 0-.204.006-.39.018-.558.024-.168.06-.306.108-.414.468 0 .786-.108.954-.324.168-.228.252-.642.252-1.242v-3.042l2.214-1.98a3.857 3.857 0 0 1-.162 1.08c.06-.12.114-.24.162-.36.06-.12.144-.234.252-.342.228-.276.558-.54.99-.792.444-.264.966-.396 1.566-.396.48 0 .93.096 1.35.288.42.192.756.504 1.008.936.252.42.378.99.378 1.71v2.898zm5.648 6.966c-.816 0-1.47-.096-1.962-.288-.48-.18-.828-.444-1.044-.792-.216-.348-.324-.756-.324-1.224 0-.456.126-.852.378-1.188.264-.336.642-.588 1.134-.756l1.08.144c-.276.228-.462.438-.558.63a1.676 1.676 0 0 0-.144.72c0 .552.144.966.432 1.242.3.276.804.414 1.512.414.78 0 1.386-.168 1.818-.504.444-.336.666-.732.666-1.188 0-.252-.066-.45-.198-.594-.132-.144-.378-.252-.738-.324-.36-.06-.888-.09-1.584-.09a15.08 15.08 0 0 1-1.404-.09 3.486 3.486 0 0 1-1.044-.27 1.473 1.473 0 0 1-.63-.54c-.144-.228-.216-.528-.216-.9 0-.456.126-.864.378-1.224.252-.372.552-.696.9-.972l1.008.45c-.204.144-.36.294-.468.45a.75.75 0 0 0-.144.414c0 .216.084.372.252.468.168.096.45.156.846.18a29.3 29.3 0 0 0 1.638.036c.744 0 1.362.066 1.854.198.504.12.876.33 1.116.63.252.3.378.726.378 1.278 0 .468-.12.918-.36 1.35-.24.444-.576.84-1.008 1.188a4.98 4.98 0 0 1-1.566.828c-.6.216-1.266.324-1.998.324zm.54-7.002c-.696 0-1.314-.108-1.854-.324a2.83 2.83 0 0 1-1.278-.972c-.312-.432-.468-.972-.468-1.62 0-.588.132-1.104.396-1.548.264-.444.66-.792 1.188-1.044.528-.252 1.164-.378 1.908-.378.672 0 1.242.096 1.71.288.48.192.87.444 1.17.756.3.3.516.624.648.972.144.348.216.666.216.954 0 .552-.138 1.05-.414 1.494-.264.432-.666.78-1.206 1.044-.54.252-1.212.378-2.016.378zm.216-.954c.372 0 .666-.156.882-.468.228-.312.342-.768.342-1.368 0-.636-.138-1.158-.414-1.566-.276-.42-.66-.63-1.152-.63-.432 0-.75.18-.954.54-.204.36-.306.792-.306 1.296 0 .708.138 1.254.414 1.638.288.372.684.558 1.188.558zm4.356-3.492a7.231 7.231 0 0 0-.684-.162c-.24-.048-.48-.09-.72-.126a7.615 7.615 0 0 0-.648-.072l-1.53-.918h3.42c.06.168.102.366.126.594a6.2 6.2 0 0 1 .036.684zm-46.44 23.902a4.5 4.5 0 0 1-.036.558 1.34 1.34 0 0 1-.144.468c-.348 0-.678.024-.99.072-.3.036-.594.102-.882.198v-1.296h2.052zm-4.14-.648c0-.936.186-1.71.558-2.322.384-.612.876-1.068 1.476-1.368a4.297 4.297 0 0 1 1.98-.468c.48 0 .882.048 1.206.144.336.096.612.216.828.36-.036.36-.06.738-.072 1.134-.012.396-.012.756 0 1.08a2.39 2.39 0 0 1-.666.144 8.013 8.013 0 0 1-.72.036c0-.528-.102-.954-.306-1.278-.192-.336-.504-.504-.936-.504a.905.905 0 0 0-.666.27c-.168.168-.288.432-.36.792-.072.348-.108.816-.108 1.404v5.814h-2.214v-5.238zm.342.648v1.278a4.73 4.73 0 0 0-.954-.216 7.092 7.092 0 0 0-.792-.054c0-.192.018-.372.054-.54.048-.18.114-.336.198-.468h1.494zm1.872 5.13c0 .516.054.918.162 1.206.108.276.288.474.54.594.264.108.6.18 1.008.216.048.12.078.264.09.432a7.6 7.6 0 0 1 .018.54 35.776 35.776 0 0 0-.72-.036c-.276 0-.576-.006-.9-.018h-2.502c-.528.012-.942.03-1.242.054 0-.216.006-.402.018-.558.024-.156.054-.294.09-.414.324-.024.576-.084.756-.18.18-.096.3-.264.36-.504.072-.24.108-.582.108-1.026v-1.458h2.214v1.152zm7.489 3.096c-.888 0-1.656-.174-2.304-.522a3.614 3.614 0 0 1-1.494-1.476c-.336-.636-.504-1.38-.504-2.232 0-.888.186-1.656.558-2.304a3.907 3.907 0 0 1 1.566-1.494c.66-.36 1.404-.54 2.232-.54.936 0 1.722.18 2.358.54.648.36 1.14.858 1.476 1.494.336.636.504 1.368.504 2.196 0 .864-.186 1.62-.558 2.268a3.908 3.908 0 0 1-1.53 1.53c-.648.36-1.416.54-2.304.54zm.216-1.026c.612 0 1.074-.276 1.386-.828.312-.564.468-1.278.468-2.142 0-.756-.102-1.398-.306-1.926-.204-.54-.474-.948-.81-1.224-.336-.276-.702-.414-1.098-.414-.624 0-1.086.27-1.386.81-.3.54-.45 1.218-.45 2.034 0 .744.09 1.398.27 1.962.18.552.432.978.756 1.278.324.3.714.45 1.17.45zm5.253.918c0-.18.006-.354.018-.522.012-.168.042-.318.09-.45.48-.012.804-.126.972-.342.168-.216.252-.624.252-1.224v-7.722c0-.264-.036-.48-.108-.648a.647.647 0 0 0-.378-.396c-.192-.096-.48-.15-.864-.162 0-.168.012-.324.036-.468a1.13 1.13 0 0 1 .144-.414c.324 0 .678-.03 1.062-.09.396-.06.762-.138 1.098-.234.336-.096.582-.192.738-.288a.64.64 0 0 1 .324.27c.096.132.144.33.144.594v9.558c0 .6.078 1.008.234 1.224.168.216.456.33.864.342.048.132.078.288.09.468.012.18.018.348.018.504-.18-.012-.402-.024-.666-.036-.252 0-.528-.006-.828-.018h-1.746c-.3.012-.582.018-.846.018-.252.012-.468.024-.648.036zm10.696-8.46c.3 0 .57.024.81.072.24.048.504.114.792.198v1.566a3.156 3.156 0 0 0-.72-.63c-.252-.156-.564-.234-.936-.234-.24 0-.498.048-.774.144a2.252 2.252 0 0 0-.774.504c-.24.24-.444.582-.612 1.026-.156.444-.234 1.014-.234 1.71 0 .648.09 1.182.27 1.602.18.42.408.738.684.954.288.216.576.324.864.324.336 0 .654-.102.954-.306.3-.216.546-.558.738-1.026.204-.468.306-1.092.306-1.872l.648 1.872a6.49 6.49 0 0 1-.504 1.008c-.144.228-.27.402-.378.522-.12.156-.3.324-.54.504a3.825 3.825 0 0 1-.828.45c-.312.12-.66.18-1.044.18-.696 0-1.308-.132-1.836-.396-.516-.276-.918-.696-1.206-1.26-.288-.576-.432-1.32-.432-2.232 0-.888.198-1.68.594-2.376a4.352 4.352 0 0 1 1.656-1.674c.708-.42 1.542-.63 2.502-.63zm3.582 5.616c0 .336.024.606.072.81.048.192.15.33.306.414.156.084.39.126.702.126.012.168.006.342-.018.522-.012.18-.054.348-.126.504a6.08 6.08 0 0 0-1.242.18c-.444.096-.84.228-1.188.396a.929.929 0 0 1-.396-.306c-.084-.132-.126-.378-.126-.738 0-.24.024-.468.072-.684.048-.216.114-.504.198-.864l1.746-.36zm0-7.506v7.974h-2.214v-7.974h2.214zm-.468-2.61a.64.64 0 0 1 .324.27c.096.132.144.33.144.594v2.376h-2.214v-.468c0-.288-.03-.522-.09-.702a.642.642 0 0 0-.36-.414c-.192-.096-.486-.15-.882-.162 0-.168.012-.324.036-.468a1.13 1.13 0 0 1 .144-.414c.312 0 .66-.03 1.044-.09.396-.06.762-.138 1.098-.234.336-.096.588-.192.756-.288zm6.908 13.068c-.948 0-1.728-.186-2.34-.558-.6-.384-1.05-.9-1.35-1.548a5.215 5.215 0 0 1-.432-2.142c0-.828.162-1.566.486-2.214a3.717 3.717 0 0 1 1.386-1.53c.6-.384 1.308-.576 2.124-.576.828 0 1.5.168 2.016.504.516.324.9.774 1.152 1.35.264.576.414 1.224.45 1.944-.072.3-.198.552-.378.756h-1.044c-.42 0-.882.006-1.386.018-.504 0-1.02.012-1.548.036-.516.024-1.008.048-1.476.072v-1.08h3.6c0-.804-.126-1.434-.378-1.89-.252-.468-.618-.702-1.098-.702-.288 0-.558.096-.81.288-.24.18-.438.48-.594.9-.144.408-.216.966-.216 1.674 0 .612.072 1.182.216 1.71.156.528.42.954.792 1.278.372.324.888.486 1.548.486.408 0 .81-.078 1.206-.234a3.202 3.202 0 0 0 1.026-.684c.108.06.21.168.306.324a.86.86 0 0 1 .144.45c-.432.48-.93.828-1.494 1.044-.552.216-1.188.324-1.908.324zm8.335-3.096c0 .516.054.918.162 1.206.108.276.288.474.54.594.264.108.6.18 1.008.216.048.12.078.264.09.432a7.6 7.6 0 0 1 .018.54 35.776 35.776 0 0 0-.72-.036c-.276 0-.576-.006-.9-.018h-2.502c-.528.012-.942.03-1.242.054 0-.216.006-.402.018-.558.024-.156.054-.294.09-.414.324-.024.576-.084.756-.18.18-.096.3-.264.36-.504.072-.24.108-.582.108-1.026v-1.458h2.214v1.152zm0-2.358v1.494h-2.214v-1.98l2.214-1.728c0 .348-.036.678-.108.99-.072.312-.144.66-.216 1.044l.324.18zm-.396-.09c.108-.3.204-.576.288-.828a4.15 4.15 0 0 1 .27-.594c.264-.42.582-.768.954-1.044a2.062 2.062 0 0 1 1.26-.414c.468 0 .894.144 1.278.432a9.417 9.417 0 0 0-.09.756 20.86 20.86 0 0 0-.054.864 8.699 8.699 0 0 0 0 .792c-.144.06-.342.108-.594.144a5.098 5.098 0 0 1-.72.054c-.012-.516-.09-.864-.234-1.044a.7.7 0 0 0-.576-.27c-.192 0-.396.108-.612.324a2.756 2.756 0 0 0-.558.864 3.034 3.034 0 0 0-.216 1.17l-.396-1.206zm-1.818 1.584v-1.728c0-.324-.03-.582-.09-.774a.644.644 0 0 0-.36-.432c-.18-.096-.468-.156-.864-.18 0-.168.012-.324.036-.468a1.13 1.13 0 0 1 .144-.414 9.374 9.374 0 0 0 1.62-.216c.552-.12.972-.252 1.26-.396.132.048.24.144.324.288.096.132.144.336.144.612l-2.214 3.708z"/></svg>
