<svg fill="none" xmlns="http://www.w3.org/2000/svg" viewBox="0 0 72 72"><path d="M0 0h72v72H0V0Z" fill="#DB944D"/><path d="M16.34 33V21.55h2.3v4.5h4.54v-4.5h2.31V33h-2.31v-5h-4.53v5h-2.31Zm16.34-2.64 2.19.37a3.6 3.6 0 0 1-1.34 1.83c-.6.42-1.36.63-2.27.63-1.44 0-2.51-.47-3.2-1.42a4.75 4.75 0 0 1-.83-2.86c0-1.37.36-2.45 1.08-3.22a3.54 3.54 0 0 1 2.73-1.17c1.23 0 2.2.4 2.92 1.22.71.81 1.06 2.06 1.02 3.74h-5.5c.02.66.2 1.16.54 1.53a1.65 1.65 0 0 0 2.13.26c.23-.2.41-.5.53-.91Zm.12-2.22c-.01-.63-.17-1.12-.49-1.44a1.5 1.5 0 0 0-1.14-.5c-.48 0-.87.17-1.19.52-.3.35-.46.82-.46 1.42h3.28Zm7.45-3.44h7.5v1.78H45.1V33h-2.2v-6.52h-2.65V24.7Zm10.47 2.53-2-.36c.23-.8.62-1.4 1.16-1.78a4.23 4.23 0 0 1 2.44-.57c.98 0 1.7.11 2.19.35.48.23.81.52 1 .88.2.35.3 1 .3 1.96l-.02 2.56c0 .73.03 1.27.1 1.62.07.34.2.71.4 1.11h-2.17a8.1 8.1 0 0 1-.3-.9c-.37.36-.77.63-1.2.81-.42.19-.88.28-1.36.28-.86 0-1.53-.23-2.03-.7a2.32 2.32 0 0 1-.73-1.76c0-.46.11-.88.34-1.25.22-.37.53-.65.93-.84.41-.2 1-.37 1.75-.52 1.03-.19 1.74-.37 2.14-.53v-.22c0-.42-.1-.72-.32-.9-.2-.18-.6-.27-1.18-.27-.39 0-.7.07-.91.23-.22.15-.4.42-.53.8Zm2.94 1.79c-.28.09-.73.2-1.34.33-.6.13-1 .26-1.2.38a.92.92 0 0 0-.42.78c0 .3.11.57.34.8.23.22.52.33.87.33.4 0 .78-.13 1.14-.39.26-.2.44-.44.52-.73.06-.18.09-.54.09-1.07v-.43ZM14.48 42.7h7.36V51h-2.2v-6.52h-2.97V51h-2.2v-8.3Zm11.4 2.53-2-.35c.23-.8.61-1.4 1.16-1.79a4.23 4.23 0 0 1 2.44-.57c.98 0 1.7.11 2.18.35.48.23.82.52 1.01.88.2.35.3 1 .3 1.96l-.02 2.56c0 .73.03 1.27.1 1.62.07.34.2.71.4 1.11h-2.18a8.06 8.06 0 0 1-.29-.9c-.37.36-.77.63-1.2.81-.43.19-.88.28-1.37.28-.85 0-1.52-.23-2.02-.7a2.32 2.32 0 0 1-.73-1.76c0-.46.1-.88.33-1.25s.54-.65.94-.84c.4-.2.99-.37 1.75-.52 1.03-.19 1.74-.37 2.13-.53v-.22c0-.42-.1-.72-.31-.9-.2-.18-.6-.27-1.18-.27-.39 0-.7.07-.91.23-.22.15-.4.42-.54.8Zm2.93 1.79c-.28.09-.72.2-1.33.33-.61.13-1.01.26-1.2.38a.92.92 0 0 0-.43.78c0 .3.12.57.35.8.22.22.52.33.87.33.4 0 .77-.13 1.13-.39.27-.2.44-.44.53-.73.05-.18.08-.54.08-1.07v-.43Zm4.24-4.32h7.37V51h-2.2v-6.52h-2.97V51h-2.2v-8.3Zm9.68 0h2.18v3.4c.37-.05.63-.16.78-.34.15-.18.33-.58.54-1.2.29-.82.6-1.34.93-1.57.33-.23.77-.34 1.3-.34.18 0 .46.01.88.04v1.45c-.57 0-.94.06-1.1.16-.17.12-.34.46-.53 1.03-.25.76-.62 1.24-1.1 1.41.7.2 1.28.8 1.76 1.8l.08.17L49.68 51h-2.36l-1.1-2.4a2.8 2.8 0 0 0-.58-.93c-.16-.14-.4-.2-.73-.2V51h-2.18v-8.3Zm9.74 2.53-2-.35c.23-.8.62-1.4 1.16-1.79a4.23 4.23 0 0 1 2.44-.57c.98 0 1.7.11 2.19.35.48.23.81.52 1 .88.2.35.3 1 .3 1.96l-.02 2.56c0 .73.03 1.27.1 1.62.07.34.2.71.4 1.11h-2.17a8.1 8.1 0 0 1-.3-.9c-.37.36-.77.63-1.2.81-.42.19-.88.28-1.36.28-.86 0-1.53-.23-2.03-.7a2.32 2.32 0 0 1-.73-1.76c0-.46.11-.88.34-1.25.22-.37.53-.65.93-.84.41-.2 1-.37 1.75-.52 1.03-.19 1.74-.37 2.14-.53v-.22c0-.42-.1-.72-.32-.9-.2-.18-.6-.27-1.18-.27-.39 0-.7.07-.91.23-.22.15-.4.42-.53.8Zm2.94 1.79c-.28.09-.73.2-1.34.33-.6.13-1 .26-1.2.38a.92.92 0 0 0-.42.78c0 .3.11.57.34.8.23.22.52.33.87.33.4 0 .78-.13 1.14-.39.26-.2.44-.44.52-.73.06-.18.09-.54.09-1.07v-.43Z" fill="#000"/></svg>