<svg viewBox="0 0 100 100" xmlns="http://www.w3.org/2000/svg"><path fill="hsl(11deg 66% 58%)" d="M0 0h100v100H0z"/><path d="m27.86 54.05.02-.55c.01-.16.04-.3.07-.42.33-.02.58-.08.76-.18a.8.8 0 0 0 .38-.5c.07-.24.1-.58.1-1.03v-6.91c0-.46-.03-.8-.1-1.03a.73.73 0 0 0-.36-.48 1.65 1.65 0 0 0-.76-.2 3.08 3.08 0 0 1-.09-.41 7.88 7.88 0 0 1-.02-.56 63.79 63.79 0 0 0 1.79.05h1.85v9.24c0 .51.05.91.16 1.2.11.28.29.48.54.6.27.1.6.18 1.01.21a3.82 3.82 0 0 1 .13.97 41.44 41.44 0 0 0-.76-.03c-.29 0-.6 0-.94-.02h-2.52c-.55.01-.97.03-1.26.05zm7.58-3.63c-.21 0-.4 0-.57-.02a5.82 5.82 0 0 1-.49-.09c-.05-.59-.2-.98-.47-1.19-.25-.2-.71-.3-1.38-.3H31.3v-.96h1.23c.68 0 1.15-.1 1.4-.29.26-.19.4-.56.41-1.11.17-.06.35-.1.53-.11a4.64 4.64 0 0 1 .57-.04l-.03.96a34.61 34.61 0 0 0 0 2.16c0 .36.02.69.03.99zm.29-5.44a3.32 3.32 0 0 0-.32-1.08 1.73 1.73 0 0 0-.83-.83 3.43 3.43 0 0 0-1.66-.32h-1.98l.47-.92h2.41a173.26 173.26 0 0 0 1.66-.03c.43-.02.77-.02 1-.02a18.7 18.7 0 0 0 .38 2.95 1.92 1.92 0 0 1-.5.2c-.18.03-.39.05-.63.05zm7.15 9.18a.75.75 0 0 1-.4-.34 1.6 1.6 0 0 1-.12-.7 3.6 3.6 0 0 1 .14-.97l.06-.04c-.07.26-.18.52-.33.77-.14.24-.31.45-.52.62-.22.19-.5.34-.84.46a3.83 3.83 0 0 1-1.17.17c-.8 0-1.4-.18-1.84-.53a1.79 1.79 0 0 1-.63-1.45c0-.46.1-.85.33-1.17.21-.34.5-.62.86-.85a4.95 4.95 0 0 1 1.17-.54 8.53 8.53 0 0 1 1.3-.32c.44-.09.85-.16 1.22-.22 0-.4-.01-.73-.04-.97a2 2 0 0 0-.1-.61.98.98 0 0 0-.26-.44 1.12 1.12 0 0 0-.47-.36 1.34 1.34 0 0 0-.57-.12c-.36 0-.65.1-.87.32a1.97 1.97 0 0 0-.45.81 4.27 4.27 0 0 0-.18.9c-.22 0-.45 0-.68-.02a2.29 2.29 0 0 1-.58-.12c.03-.33.03-.67.02-1.05a5.65 5.65 0 0 0-.12-1.04 7.62 7.62 0 0 1 1.67-.56 8.14 8.14 0 0 1 1.71-.2c.6 0 1.09.08 1.46.22.38.14.68.32.88.54.28.28.47.65.6 1.12.11.45.17 1.1.17 1.92v1.73c0 .36.03.65.08.86.06.2.16.35.3.44.16.08.4.13.7.14a1.9 1.9 0 0 1 0 .52c0 .18-.05.35-.12.5a5.8 5.8 0 0 0-1.23.19 5.42 5.42 0 0 0-1.15.4zm-2.45-1.33c.26 0 .5-.08.76-.25.26-.17.48-.42.65-.76.18-.35.27-.79.27-1.33v-.56a9.03 9.03 0 0 0-1 .2 3.52 3.52 0 0 0-.84.3c-.24.13-.43.29-.57.5-.15.2-.22.46-.22.78 0 .39.1.67.29.85.2.18.41.27.66.27zm6.17 1.22.01-.52a2.25 2.25 0 0 1 .11-.45c.48-.01.8-.12.96-.34.16-.22.25-.62.25-1.22v-3.15c0-.3-.03-.53-.1-.7a.7.7 0 0 0-.37-.42c-.2-.1-.48-.15-.86-.16 0-.17 0-.33.03-.47a1.13 1.13 0 0 1 .15-.41 8.8 8.8 0 0 0 2.14-.32c.33-.1.58-.2.74-.3a.63.63 0 0 1 .34.27 1 1 0 0 1 .14.6v5.06c0 .6.08 1 .24 1.22.15.22.44.33.86.34.05.13.08.29.1.47v.5a41.07 41.07 0 0 0-.68-.03c-.25 0-.52 0-.8-.02H48.1l-.85.02a45.58 45.58 0 0 0-.66.03zm2.25-10.11c-.39 0-.7-.11-.96-.33a1.12 1.12 0 0 1-.36-.84c0-.4.13-.7.4-.92a1.41 1.41 0 0 1 .95-.34c.42 0 .75.11 1 .34.24.22.37.52.37.9 0 .32-.13.6-.4.85-.26.22-.6.34-1 .34zm3.67 10.11c0-.18 0-.35.02-.52 0-.17.04-.32.09-.45.48-.01.8-.12.97-.34.17-.22.25-.62.25-1.22v-7.73c0-.26-.04-.48-.1-.64a.65.65 0 0 0-.38-.4 2.1 2.1 0 0 0-.87-.16c0-.17.01-.33.04-.47a1.13 1.13 0 0 1 .14-.41 8.8 8.8 0 0 0 2.16-.32c.34-.1.58-.2.74-.3a.64.64 0 0 1 .32.27 1 1 0 0 1 .15.6v9.56c0 .6.07 1 .23 1.22.17.22.46.33.86.34.05.13.08.29.1.47l.01.5a32.42 32.42 0 0 0-1.5-.05h-1.74l-.84.02-.65.03zm11.26-1.3c-.41 0-.73-.12-.96-.34a1.2 1.2 0 0 1-.34-.89c0-.37.13-.67.38-.91.26-.24.6-.36.99-.36s.7.12.92.37c.21.26.32.53.32.81 0 .41-.13.74-.38.98a1.3 1.3 0 0 1-.93.34zm0-5.1c-.41 0-.73-.11-.96-.34a1.2 1.2 0 0 1-.34-.88c0-.37.13-.68.38-.92.26-.24.6-.36.99-.36s.7.13.92.38a1.3 1.3 0 0 1-.06 1.78 1.3 1.3 0 0 1-.93.34zm6.36-7.99a1.03 1.03 0 0 1 .81.27c-.53.82-.96 1.65-1.3 2.5a13.78 13.78 0 0 0-.71 2.78 23.36 23.36 0 0 0 .02 6.88 15.33 15.33 0 0 0 2.1 5.64c-.1.06-.23.1-.38.13-.14.02-.3.03-.45.02a18.6 18.6 0 0 1-1.78-2.72c-.52-.96-.92-1.98-1.22-3.06a13.22 13.22 0 0 1-.44-3.42c0-1.13.12-2.18.36-3.17a13.51 13.51 0 0 1 1.12-2.91 23.74 23.74 0 0 1 1.87-2.94z"/></svg>