<svg viewBox="0 0 100 100" xmlns="http://www.w3.org/2000/svg"><path fill="hsl(97deg 66% 58%)" d="M0 0h100v100H0z"/><path d="M19.9 54.16a6.9 6.9 0 0 1-2.07-.29 10.32 10.32 0 0 1-1.84-.82c.08-.47.14-.94.16-1.4.03-.49.04-.92.04-1.3.2-.06.42-.1.66-.13.24-.02.48-.04.7-.04.05.66.16 1.21.31 1.64.17.43.43.76.78.97.36.2.82.31 1.4.31.76 0 1.3-.16 1.62-.49.34-.33.5-.72.5-1.17 0-.45-.14-.83-.43-1.13a3.83 3.83 0 0 0-1.11-.81 31.9 31.9 0 0 0-1.43-.68 9.42 9.42 0 0 1-1.44-.81 3.93 3.93 0 0 1-1.1-1.17 3.31 3.31 0 0 1-.43-1.77c0-.75.17-1.38.49-1.89a3.1 3.1 0 0 1 1.37-1.13 5.08 5.08 0 0 1 2.01-.38 7.45 7.45 0 0 1 2.4.4c.35.12.62.25.83.4l.01 1.3c.03.47.06.86.11 1.18-.17.08-.38.15-.65.2a4.99 4.99 0 0 1-.7.05 5.44 5.44 0 0 0-.47-1.57c-.18-.36-.4-.6-.68-.74a2 2 0 0 0-.94-.21c-.55 0-1 .13-1.33.4-.32.26-.48.64-.48 1.13 0 .48.14.88.43 1.2.29.32.66.6 1.11.83l1.48.7c.52.24 1 .52 1.46.83a3.15 3.15 0 0 1 1.57 2.84 3.5 3.5 0 0 1-.47 1.8c-.32.53-.79.96-1.43 1.28-.63.32-1.45.47-2.44.47zm9.2-.07c-.83 0-1.49-.24-1.96-.72-.46-.48-.7-1.33-.7-2.54v-2.36c0-.48-.06-.82-.18-1.02-.12-.22-.44-.34-.97-.36 0-.17 0-.33.02-.47.02-.14.07-.28.14-.41a8.3 8.3 0 0 0 1.55-.22c.5-.12.9-.25 1.19-.4.13.05.24.15.32.3.1.12.15.33.15.6v3.91c0 .8.1 1.4.28 1.78.2.37.52.56.98.56.52 0 .97-.24 1.33-.72.37-.48.56-1.22.56-2.23v-1.4c0-.49-.08-.83-.24-1.03-.14-.22-.5-.34-1.08-.36 0-.17 0-.33.02-.47.02-.14.07-.28.14-.41.6-.03 1.17-.09 1.7-.18.52-.1.93-.21 1.2-.35.13.05.24.15.33.3.1.12.14.33.14.6v5.12l-1.93.64c-.06.2-.15.38-.27.54-.1.16-.22.3-.36.44a3.16 3.16 0 0 1-1 .64c-.38.15-.83.22-1.35.22zm3.43.07a.93.93 0 0 1-.4-.3 1.57 1.57 0 0 1-.13-.74 6.3 6.3 0 0 1 .2-1.5l1.82-.41c0 .34.02.6.07.81.05.2.15.33.3.41.16.09.4.13.71.13a2.56 2.56 0 0 1-.14 1.03 6.08 6.08 0 0 0-1.25.18c-.44.1-.84.22-1.18.4zm10.88-1.35c-.31.43-.72.77-1.22 1.01-.5.23-1.1.34-1.78.34a4.4 4.4 0 0 1-2.04-.47 3.6 3.6 0 0 1-1.47-1.4 4.64 4.64 0 0 1-.56-2.38c0-.72.15-1.4.45-2.07.3-.66.74-1.2 1.33-1.62.6-.42 1.34-.63 2.21-.63.62 0 1.16.07 1.64.2.48.12.9.31 1.26.58a10.32 10.32 0 0 0-.16 2.16 2.2 2.2 0 0 1-.56.16c-.21.02-.42.04-.61.04a2.81 2.81 0 0 0-.5-1.59 1.37 1.37 0 0 0-1.14-.56c-.53 0-.95.28-1.26.83-.3.54-.45 1.29-.45 2.23 0 .56.1 1.08.27 1.59.18.5.46.92.83 1.24.37.31.84.47 1.4.47a2.53 2.53 0 0 0 1.93-.85.84.84 0 0 1 .27.3c.08.13.14.27.16.42zm8.26 0c-.3.43-.72.77-1.22 1.01-.5.23-1.1.34-1.78.34-.73 0-1.41-.15-2.04-.47a3.6 3.6 0 0 1-1.47-1.4 4.64 4.64 0 0 1-.56-2.38c0-.72.15-1.4.45-2.07.3-.66.74-1.2 1.33-1.62.6-.42 1.34-.63 2.22-.63.6 0 1.15.07 1.63.2.48.12.9.31 1.26.58a10.32 10.32 0 0 0-.16 2.16 2.2 2.2 0 0 1-.56.16c-.21.02-.42.04-.6.04a2.81 2.81 0 0 0-.51-1.59 1.37 1.37 0 0 0-1.14-.56c-.52 0-.94.28-1.26.83-.3.54-.45 1.29-.45 2.23 0 .56.1 1.08.27 1.59.18.5.46.92.83 1.24.37.31.84.47 1.4.47a2.53 2.53 0 0 0 1.93-.85.84.84 0 0 1 .27.3c.09.13.14.27.16.42zm5.31 1.35a4.4 4.4 0 0 1-2.34-.56 3.6 3.6 0 0 1-1.35-1.54 5.21 5.21 0 0 1-.43-2.15c0-.82.16-1.56.49-2.21a3.72 3.72 0 0 1 1.38-1.53 3.9 3.9 0 0 1 2.13-.58c.83 0 1.5.17 2.01.5.52.33.9.78 1.16 1.36.26.57.4 1.22.45 1.94-.08.3-.2.55-.38.76h-1.05a58.6 58.6 0 0 0-2.93.05l-1.48.07V49.2h3.6c0-.8-.12-1.43-.37-1.89-.26-.46-.62-.7-1.1-.7-.3 0-.56.1-.81.29-.24.18-.44.48-.6.9-.14.4-.21.97-.21 1.67 0 .62.07 1.19.21 1.71.16.53.42.96.8 1.28.37.33.88.49 1.54.49.41 0 .81-.08 1.2-.24a3.2 3.2 0 0 0 1.04-.68c.1.06.2.17.3.32a.86.86 0 0 1 .15.45c-.44.48-.93.83-1.5 1.05-.55.21-1.19.32-1.9.32zm10.93-7.97-.02.93c0 .33.03.65.08.96a1.59 1.59 0 0 1-.54.21c-.2.05-.43.08-.65.08a2.13 2.13 0 0 0-.27-.9 1.72 1.72 0 0 0-.62-.67 1.74 1.74 0 0 0-.95-.25c-.31 0-.56.08-.75.23a.77.77 0 0 0-.27.61c0 .18.04.35.12.5.09.15.27.3.56.48.29.16.74.37 1.35.6.66.26 1.18.51 1.57.76.38.24.65.51.8.81.16.3.24.66.24 1.07 0 .52-.15.98-.45 1.36-.3.39-.72.68-1.26.89-.54.2-1.16.3-1.87.3-.74 0-1.34-.05-1.8-.16a6.13 6.13 0 0 1-1.33-.49 18.65 18.65 0 0 0 .02-2.23c.13-.08.3-.14.53-.18.24-.05.47-.07.69-.07.08.7.3 1.22.63 1.57.33.34.77.52 1.31.52.42 0 .75-.1.97-.27a.86.86 0 0 0 .36-.72.89.89 0 0 0-.14-.5 1.4 1.4 0 0 0-.54-.46 7 7 0 0 0-1.14-.52 12.1 12.1 0 0 1-1.47-.7 2.4 2.4 0 0 1-.87-.83 2.37 2.37 0 0 1-.28-1.22c0-.4.09-.74.27-1.03.19-.29.44-.53.75-.72.32-.19.66-.33 1.05-.41a4.73 4.73 0 0 1 1.15-.15 6.45 6.45 0 0 1 2.77.6zm8.09 0-.02.93c0 .33.02.65.07.96a1.59 1.59 0 0 1-.54.21c-.2.05-.42.08-.65.08a2.13 2.13 0 0 0-.27-.9 1.72 1.72 0 0 0-.6-.67 1.74 1.74 0 0 0-.96-.25c-.32 0-.57.08-.76.23a.77.77 0 0 0-.27.61c0 .18.04.35.13.5.08.15.27.3.55.48.3.16.74.37 1.35.6.66.26 1.19.51 1.57.76.39.24.65.51.81.81.16.3.23.66.23 1.07 0 .52-.15.98-.45 1.36-.3.39-.72.68-1.26.89-.54.2-1.16.3-1.87.3-.73 0-1.33-.05-1.8-.16a6.13 6.13 0 0 1-1.33-.49 17.21 17.21 0 0 0 .02-2.23c.13-.08.31-.14.54-.18.24-.05.47-.07.68-.07.09.7.3 1.22.63 1.57.34.34.78.52 1.32.52.42 0 .74-.1.97-.27a.86.86 0 0 0 .36-.72.89.89 0 0 0-.14-.5 1.5 1.5 0 0 0-.54-.46 6.99 6.99 0 0 0-1.14-.52c-.59-.24-1.08-.47-1.47-.7a2.4 2.4 0 0 1-.87-.83c-.2-.32-.29-.73-.29-1.22 0-.4.1-.74.27-1.03.2-.29.45-.53.76-.72.31-.19.66-.33 1.04-.41a4.73 4.73 0 0 1 1.16-.15 6.44 6.44 0 0 1 2.77.6zm6.26-4.21-.23 2.32a134.68 134.68 0 0 0-.41 5.38 1.99 1.99 0 0 1-.54.14c-.2.02-.4.02-.6.02-.07-1.07-.15-2.05-.23-2.95a71.67 71.67 0 0 0-.25-2.61 83.72 83.72 0 0 0-.33-2.5l.74-.15.81-.23.67-.27c.16.05.28.14.34.27.06.12.07.31.03.58zm.1 10.85c0 .4-.13.73-.38.97a1.34 1.34 0 0 1-.94.34c-.4 0-.73-.11-.95-.34a1.2 1.2 0 0 1-.35-.88c0-.37.13-.68.38-.92.27-.24.6-.36 1-.36.38 0 .68.13.9.38.22.25.33.52.33.81z"/></svg>