<svg viewBox="0 0 100 100" xmlns="http://www.w3.org/2000/svg"><path fill="hsl(30deg 66% 58%)" d="M0 0h100v100H0z"/><path d="M21.8 29.78a21.94 21.94 0 0 0 1.2.05h1.88l.92-.02c.32 0 .6-.02.83-.03 0 .14 0 .3-.02.47a2.47 2.47 0 0 1-.09.5c-.4.04-.68.1-.86.2-.18.1-.26.27-.24.54a6 6 0 0 0 .3 1.2c.22.64.45 1.33.67 2.07.24.74.48 1.5.7 2.27l.67 2.23h-.54l3.26-9.46c.13-.05.28-.08.45-.1l.56-.01 1.2 3.17c.41 1.06.8 2.14 1.2 3.22l1.13 3.15h-.47l1.83-5.9c.28-.9.35-1.54.2-1.9-.13-.37-.49-.6-1.08-.68a1.92 1.92 0 0 1-.12-.49 7.38 7.38 0 0 1-.02-.48l.88.03a25.9 25.9 0 0 0 1.93 0c.33 0 .62-.02.86-.03 0 .15-.01.32-.04.48a1.68 1.68 0 0 1-.1.49c-.2.06-.39.17-.54.34a2.6 2.6 0 0 0-.44.78c-.14.34-.31.84-.52 1.49l-2.7 8.68a3 3 0 0 1-.5.09 5.41 5.41 0 0 1-.6.03l-1.11-3.08a331.47 331.47 0 0 0-1.17-3.13 102.64 102.64 0 0 0-1.19-3.08h.36l-3.11 9.18a2.31 2.31 0 0 1-.36.06 2.21 2.21 0 0 1-.4.03 4.18 4.18 0 0 1-.38.02 370.67 370.67 0 0 0-2.9-9.23 17.59 17.59 0 0 0-.54-1.42c-.13-.3-.26-.5-.4-.58a1.05 1.05 0 0 0-.48-.16 1.9 1.9 0 0 1-.09-.47 7.85 7.85 0 0 1-.02-.52zm20.77 9.29c0 .51.05.91.16 1.2.1.28.29.48.54.6.26.1.6.18 1 .21.05.12.08.27.1.43a7.6 7.6 0 0 1 .02.54 35.78 35.78 0 0 0-.72-.03c-.28 0-.58 0-.9-.02h-2.5c-.53.01-.95.03-1.25.05 0-.21 0-.4.02-.55.02-.16.05-.3.09-.42.32-.02.58-.08.76-.18.18-.1.3-.26.36-.5.07-.24.1-.58.1-1.03v-1.46h2.22v1.16zm0-2.36v1.5h-2.22v-1.99l2.22-1.73c0 .35-.04.68-.11 1l-.22 1.04.33.18zm-.4-.1.29-.82a4.15 4.15 0 0 1 .27-.6c.26-.41.58-.76.95-1.04a2.06 2.06 0 0 1 1.26-.41c.47 0 .9.14 1.28.43a9.42 9.42 0 0 0-.09.76 20.86 20.86 0 0 0-.05.86 8.7 8.7 0 0 0 0 .8c-.15.05-.35.1-.6.14a5.1 5.1 0 0 1-.72.05c0-.52-.09-.86-.23-1.04a.7.7 0 0 0-.58-.27c-.19 0-.4.1-.6.32a2.76 2.76 0 0 0-.57.86 3.03 3.03 0 0 0-.21 1.17l-.4-1.2zm-1.82 1.6v-1.74c0-.32-.03-.58-.09-.77a.64.64 0 0 0-.36-.43c-.18-.1-.46-.16-.86-.18 0-.17.01-.33.04-.47a1.13 1.13 0 0 1 .14-.41 9.37 9.37 0 0 0 1.62-.22 5.6 5.6 0 0 0 1.26-.4c.13.05.24.15.32.3.1.12.15.33.15.6l-2.22 3.71zm11.17 3.95a4.8 4.8 0 0 1-2.3-.52 3.61 3.61 0 0 1-1.5-1.48 4.71 4.71 0 0 1-.5-2.23c0-.89.18-1.65.55-2.3a3.9 3.9 0 0 1 1.57-1.5c.66-.36 1.4-.54 2.23-.54.94 0 1.72.18 2.36.54a3.6 3.6 0 0 1 1.47 1.5c.34.63.5 1.37.5 2.2 0 .86-.18 1.61-.55 2.26a3.9 3.9 0 0 1-1.53 1.53c-.65.36-1.42.54-2.3.54zm.21-1.02a1.5 1.5 0 0 0 1.39-.83c.3-.57.47-1.28.47-2.14 0-.76-.1-1.4-.31-1.93-.2-.54-.47-.95-.81-1.22a1.7 1.7 0 0 0-1.1-.42c-.62 0-1.08.27-1.38.81-.3.54-.45 1.22-.45 2.04 0 .74.09 1.4.27 1.96a3 3 0 0 0 .75 1.28c.33.3.72.45 1.17.45zm6.73-2.94v-1.73c0-.32-.03-.58-.1-.77a.64.64 0 0 0-.35-.43 2.1 2.1 0 0 0-.87-.18c0-.17.02-.33.04-.47a1.13 1.13 0 0 1 .14-.41 9.37 9.37 0 0 0 1.62-.22 5.6 5.6 0 0 0 1.26-.4c.14.05.24.15.33.3.1.12.14.33.14.6l-2.21 3.71zm7.76 1.32c0 .6.07 1.02.23 1.24.16.21.4.32.74.32.06.13.1.28.1.43.02.15.02.33.02.54a16.81 16.81 0 0 0-.97-.05h-2l-.86.02-.7.03c0-.19 0-.36.02-.52a2.25 2.25 0 0 1 .1-.45c.38 0 .65-.11.83-.34.2-.24.29-.67.29-1.3V37.2c0-.8-.14-1.35-.41-1.63a1.46 1.46 0 0 0-1.96-.13c-.3.2-.53.52-.7.95a4.2 4.2 0 0 0-.28 1.66v1.48c0 .6.09 1.01.25 1.24.17.21.46.32.87.32.05.15.08.3.09.45l.02.52a26.04 26.04 0 0 0-.65-.03c-.27 0-.55 0-.85-.02h-1.69l-.9.02-.68.03.01-.55c.03-.17.06-.31.11-.42.47 0 .79-.1.96-.32.16-.23.25-.64.25-1.24v-3.05l2.21-1.98a3.86 3.86 0 0 1-.16 1.08l.16-.36a3.67 3.67 0 0 1 1.24-1.13 3 3 0 0 1 1.57-.4c.48 0 .93.1 1.35.3.42.18.76.5 1 .93.26.42.39.99.39 1.7v2.9zm5.64 6.96a5.5 5.5 0 0 1-1.96-.29 2 2 0 0 1-1.04-.79 2.27 2.27 0 0 1-.33-1.22c0-.46.13-.85.38-1.19.27-.34.64-.59 1.14-.76l1.08.15c-.28.23-.47.44-.56.63a1.68 1.68 0 0 0-.15.72c0 .55.15.96.44 1.24.3.28.8.41 1.5.41a2.9 2.9 0 0 0 1.83-.5c.44-.34.66-.73.66-1.19a.85.85 0 0 0-.2-.6c-.13-.14-.37-.24-.73-.32-.36-.06-.9-.09-1.59-.09a15.08 15.08 0 0 1-1.4-.09 3.49 3.49 0 0 1-1.05-.27 1.47 1.47 0 0 1-.63-.54 1.67 1.67 0 0 1-.21-.9c0-.45.12-.86.38-1.22.25-.37.55-.7.9-.97l1 .45c-.2.14-.36.3-.46.45a.75.75 0 0 0-.15.41c0 .22.09.37.25.47.17.1.45.16.85.18a29.3 29.3 0 0 0 1.64.04c.74 0 1.36.06 1.85.2.5.11.88.32 1.12.62.25.3.38.73.38 1.28 0 .47-.12.92-.36 1.35-.24.45-.58.84-1.01 1.19a4.98 4.98 0 0 1-1.57.83 6 6 0 0 1-2 .32zm.54-7c-.7 0-1.31-.1-1.85-.32a2.83 2.83 0 0 1-1.28-.98 2.7 2.7 0 0 1-.47-1.62 2.67 2.67 0 0 1 1.58-2.6 4.4 4.4 0 0 1 1.92-.37c.67 0 1.24.1 1.7.3a3.11 3.11 0 0 1 1.82 1.72c.15.35.22.67.22.95 0 .56-.14 1.05-.41 1.5a2.8 2.8 0 0 1-1.21 1.04c-.54.25-1.21.38-2.02.38zm.22-.95c.37 0 .67-.16.88-.47.23-.31.34-.77.34-1.37 0-.64-.13-1.16-.41-1.57a1.3 1.3 0 0 0-1.15-.63c-.43 0-.75.18-.96.54-.2.36-.3.8-.3 1.3 0 .7.14 1.25.41 1.64.29.37.69.56 1.19.56zm4.36-3.5a7.23 7.23 0 0 0-.69-.16l-.72-.12a7.62 7.62 0 0 0-.65-.08l-1.53-.91h3.42c.06.16.1.36.13.59a6.2 6.2 0 0 1 .04.68zm-46.44 23.9a4.5 4.5 0 0 1-.04.56 1.34 1.34 0 0 1-.14.47 6.51 6.51 0 0 0-1.88.27v-1.3h2.06zm-4.14-.64c0-.94.18-1.71.55-2.32.39-.62.88-1.07 1.48-1.37a4.3 4.3 0 0 1 1.98-.47c.48 0 .88.05 1.2.14.34.1.62.22.83.36a16.4 16.4 0 0 0-.07 2.22 2.39 2.39 0 0 1-.66.14 8.01 8.01 0 0 1-.72.04c0-.53-.1-.96-.31-1.28-.2-.34-.5-.5-.94-.5a.9.9 0 0 0-.66.27c-.17.16-.29.43-.36.79-.07.35-.11.81-.11 1.4v5.82H26.4v-5.24zm.34.65v1.27a4.73 4.73 0 0 0-.96-.21 7.1 7.1 0 0 0-.79-.06c0-.19.02-.37.06-.54.04-.18.11-.33.2-.46h1.49zm1.87 5.13c0 .51.05.91.16 1.2.11.28.29.48.54.6.27.1.6.18 1.01.21.05.12.08.27.09.43a7.6 7.6 0 0 1 .02.54 35.78 35.78 0 0 0-.72-.03c-.28 0-.58 0-.9-.02h-2.5c-.53.01-.95.03-1.25.05l.02-.55c.03-.16.06-.3.1-.42.32-.02.57-.08.75-.18.18-.1.3-.26.36-.5.07-.24.1-.58.1-1.03v-1.46h2.22v1.16zm7.49 3.1a4.8 4.8 0 0 1-2.3-.53 3.61 3.61 0 0 1-1.5-1.48 4.71 4.71 0 0 1-.5-2.23c0-.89.18-1.65.55-2.3a3.9 3.9 0 0 1 1.57-1.5c.66-.36 1.4-.54 2.23-.54.94 0 1.72.18 2.36.54.65.36 1.14.86 1.48 1.5.33.63.5 1.37.5 2.2 0 .86-.19 1.61-.56 2.26a3.9 3.9 0 0 1-1.53 1.53c-.65.36-1.41.54-2.3.54zm.21-1.03a1.5 1.5 0 0 0 1.4-.83c.3-.57.46-1.28.46-2.14 0-.76-.1-1.4-.3-1.93a2.82 2.82 0 0 0-.82-1.22 1.7 1.7 0 0 0-1.1-.42c-.62 0-1.08.27-1.38.81-.3.54-.45 1.22-.45 2.04 0 .74.09 1.4.27 1.96a3 3 0 0 0 .75 1.28c.33.3.72.45 1.17.45zm5.26.91c0-.18 0-.35.02-.52 0-.17.04-.32.09-.45.48-.01.8-.12.97-.34.17-.22.25-.62.25-1.22v-7.73c0-.26-.04-.48-.1-.64a.65.65 0 0 0-.39-.4c-.19-.1-.48-.15-.86-.16 0-.17.01-.33.04-.47a1.13 1.13 0 0 1 .14-.41 8.8 8.8 0 0 0 2.16-.32c.34-.1.58-.2.74-.3a.64.64 0 0 1 .32.27 1 1 0 0 1 .15.6v9.56c0 .6.07 1 .23 1.22.17.22.46.33.86.34.05.13.08.29.1.47l.01.5a32.42 32.42 0 0 0-1.5-.05h-1.74l-.84.02-.65.03zm10.7-8.46a6.65 6.65 0 0 1 1.6.28v1.56a3.16 3.16 0 0 0-.72-.63 1.75 1.75 0 0 0-.94-.23c-.24 0-.5.04-.77.14a2.25 2.25 0 0 0-.78.5c-.24.24-.44.59-.61 1.03a5.25 5.25 0 0 0-.23 1.71c0 .65.09 1.18.27 1.6.18.42.4.74.68.96.29.21.58.32.86.32.34 0 .66-.1.96-.3.3-.22.54-.56.74-1.03.2-.47.3-1.1.3-1.87l.65 1.87a6.49 6.49 0 0 1-.5 1 4 4 0 0 1-.92 1.03 3.83 3.83 0 0 1-.83.45 3.99 3.99 0 0 1-2.88-.22 2.75 2.75 0 0 1-1.2-1.25 5 5 0 0 1-.44-2.24c0-.88.2-1.68.6-2.37a4.35 4.35 0 0 1 1.65-1.68 4.81 4.81 0 0 1 2.5-.63zm3.58 5.62c0 .34.02.6.07.81.05.2.15.33.3.41.16.09.4.13.7.13a2.56 2.56 0 0 1-.14 1.03 6.08 6.08 0 0 0-1.24.18c-.44.1-.84.22-1.19.4a.93.93 0 0 1-.4-.31 1.6 1.6 0 0 1-.12-.74c0-.24.02-.47.07-.69l.2-.86 1.75-.36zm0-7.5v7.97h-2.22V56.7h2.22zm-.47-2.62a.64.64 0 0 1 .32.27 1 1 0 0 1 .15.6v2.37h-2.22v-.46c0-.3-.03-.53-.09-.7a.64.64 0 0 0-.36-.42c-.19-.1-.48-.15-.88-.16 0-.17.01-.33.04-.47a1.13 1.13 0 0 1 .14-.41 8.8 8.8 0 0 0 2.14-.32c.34-.1.59-.2.76-.3zm6.9 13.07c-.94 0-1.72-.18-2.33-.56a3.6 3.6 0 0 1-1.35-1.54 5.21 5.21 0 0 1-.44-2.15c0-.82.17-1.56.49-2.21a3.72 3.72 0 0 1 1.39-1.53c.6-.38 1.3-.58 2.12-.58.83 0 1.5.17 2.02.5a3 3 0 0 1 1.15 1.36c.26.57.41 1.22.45 1.94-.07.3-.2.55-.38.76h-1.04a58.6 58.6 0 0 0-2.94.05l-1.47.07V62.2h3.6c0-.8-.13-1.43-.38-1.89-.25-.46-.62-.7-1.1-.7-.29 0-.56.1-.81.29-.24.18-.44.48-.6.9-.14.4-.21.97-.21 1.67 0 .62.07 1.19.22 1.71.15.53.42.96.79 1.28.37.33.89.49 1.55.49.4 0 .8-.08 1.2-.24a3.2 3.2 0 0 0 1.03-.68c.1.06.2.17.3.32a.86.86 0 0 1 .15.45c-.43.48-.93.83-1.5 1.05-.55.21-1.18.32-1.9.32zm8.34-3.1c0 .52.05.92.16 1.21.11.28.3.48.54.6.27.1.6.18 1.01.21.05.12.08.27.1.43a7.6 7.6 0 0 1 0 .54 35.78 35.78 0 0 0-.71-.03c-.28 0-.58 0-.9-.02h-2.5c-.53.01-.95.03-1.25.05l.02-.55c.03-.16.06-.3.1-.42.32-.02.57-.08.75-.18.18-.1.3-.26.36-.5.07-.24.1-.58.1-1.03v-1.46h2.22v1.16zm0-2.35v1.5h-2.21v-1.99l2.21-1.73c0 .35-.04.68-.1 1-.08.3-.15.65-.22 1.04l.32.18zm-.4-.1.3-.82a4.15 4.15 0 0 1 .26-.6c.27-.41.58-.76.96-1.04a2.06 2.06 0 0 1 1.26-.41c.46 0 .9.14 1.27.43a9.42 9.42 0 0 0-.09.76 20.86 20.86 0 0 0-.05.86 8.7 8.7 0 0 0 0 .8c-.14.05-.34.1-.6.14a5.1 5.1 0 0 1-.71.05c-.02-.52-.1-.86-.24-1.04a.7.7 0 0 0-.57-.27c-.2 0-.4.1-.62.32a2.76 2.76 0 0 0-.55.86 3.03 3.03 0 0 0-.22 1.17l-.4-1.2zm-1.81 1.6v-1.74c0-.32-.03-.58-.1-.77a.64.64 0 0 0-.35-.43 2.1 2.1 0 0 0-.87-.18c0-.17.01-.33.04-.47a1.13 1.13 0 0 1 .14-.41 9.37 9.37 0 0 0 1.62-.22 5.6 5.6 0 0 0 1.26-.4c.13.05.24.15.33.3.1.12.14.33.14.6l-2.21 3.71z"/></svg>