<svg viewBox="0 0 100 100" xmlns="http://www.w3.org/2000/svg"><path fill="hsl(97deg 66% 58%)" d="M0 0h100v100H0z"/><path d="M19.896 54.162c-.768 0-1.458-.096-2.07-.288a10.32 10.32 0 0 1-1.836-.828c.084-.468.138-.936.162-1.404.024-.48.036-.912.036-1.296.204-.06.426-.102.666-.126.24-.024.474-.036.702-.036.048.66.15 1.206.306 1.638.168.432.426.756.774.972.36.204.828.306 1.404.306.756 0 1.296-.162 1.62-.486.336-.336.504-.726.504-1.17 0-.456-.144-.834-.432-1.134a3.826 3.826 0 0 0-1.116-.81 31.896 31.896 0 0 0-1.422-.684 9.423 9.423 0 0 1-1.44-.81 3.933 3.933 0 0 1-1.098-1.17c-.288-.468-.432-1.056-.432-1.764 0-.756.162-1.386.486-1.89a3.096 3.096 0 0 1 1.368-1.134c.588-.252 1.26-.378 2.016-.378a7.45 7.45 0 0 1 2.394.396c.348.12.624.252.828.396 0 .408.006.846.018 1.314.024.468.06.858.108 1.17-.168.084-.384.15-.648.198a4.985 4.985 0 0 1-.702.054c-.12-.684-.276-1.206-.468-1.566-.18-.36-.408-.606-.684-.738a1.993 1.993 0 0 0-.936-.216c-.552 0-.996.132-1.332.396-.324.264-.486.642-.486 1.134 0 .48.144.882.432 1.206.288.312.66.588 1.116.828.468.228.96.462 1.476.702.516.24 1.002.516 1.458.828.468.3.846.678 1.134 1.134.288.456.432 1.026.432 1.71 0 .66-.156 1.26-.468 1.8-.312.528-.786.954-1.422 1.278-.636.312-1.452.468-2.448.468zm9.21-.072c-.84 0-1.494-.24-1.962-.72-.468-.48-.702-1.326-.702-2.538v-2.358c0-.48-.06-.822-.18-1.026-.12-.216-.444-.336-.972-.36 0-.168.006-.324.018-.468.024-.144.072-.282.144-.414A8.294 8.294 0 0 0 27 45.99c.504-.12.9-.252 1.188-.396.132.048.24.144.324.288.096.132.144.336.144.612V50.4c0 .804.096 1.398.288 1.782.192.372.516.558.972.558.528 0 .972-.24 1.332-.72.372-.48.558-1.224.558-2.232v-1.404c0-.48-.078-.822-.234-1.026-.144-.216-.504-.336-1.08-.36 0-.168.006-.324.018-.468.024-.144.072-.282.144-.414.6-.024 1.164-.084 1.692-.18.528-.096.93-.21 1.206-.342.132.048.24.144.324.288.096.132.144.336.144.612v5.112l-1.926.648c-.06.192-.15.372-.27.54-.108.156-.228.3-.36.432a3.16 3.16 0 0 1-1.008.648c-.372.144-.822.216-1.35.216zm3.42.072a.929.929 0 0 1-.396-.306c-.084-.132-.126-.378-.126-.738 0-.168.012-.372.036-.612.036-.252.09-.546.162-.882l1.818-.414c0 .336.024.606.072.81.048.192.15.33.306.414.156.084.39.126.702.126.012.168.006.342-.018.522-.012.18-.054.348-.126.504a6.08 6.08 0 0 0-1.242.18c-.444.096-.84.228-1.188.396zm10.886-1.35c-.312.432-.72.768-1.224 1.008-.504.228-1.098.342-1.782.342-.732 0-1.41-.156-2.034-.468a3.606 3.606 0 0 1-1.476-1.404c-.372-.636-.558-1.428-.558-2.376 0-.72.15-1.41.45-2.07.3-.66.744-1.2 1.332-1.62.6-.42 1.338-.63 2.214-.63.612 0 1.158.066 1.638.198.48.12.9.312 1.26.576-.06.348-.102.696-.126 1.044-.024.336-.036.708-.036 1.116a2.195 2.195 0 0 1-.558.162c-.216.024-.42.036-.612.036-.048-.696-.216-1.224-.504-1.584a1.366 1.366 0 0 0-1.134-.558c-.528 0-.948.276-1.26.828-.3.54-.45 1.284-.45 2.232 0 .552.09 1.08.27 1.584.18.504.456.918.828 1.242.372.312.84.468 1.404.468.384 0 .738-.072 1.062-.216.324-.156.612-.366.864-.63a.844.844 0 0 1 .27.306c.084.12.138.258.162.414zm8.262 0c-.312.432-.72.768-1.224 1.008-.504.228-1.098.342-1.782.342-.732 0-1.41-.156-2.034-.468a3.606 3.606 0 0 1-1.476-1.404c-.372-.636-.558-1.428-.558-2.376 0-.72.15-1.41.45-2.07.3-.66.744-1.2 1.332-1.62.6-.42 1.338-.63 2.214-.63.612 0 1.158.066 1.638.198.48.12.9.312 1.26.576-.06.348-.102.696-.126 1.044-.024.336-.036.708-.036 1.116a2.195 2.195 0 0 1-.558.162c-.216.024-.42.036-.612.036-.048-.696-.216-1.224-.504-1.584a1.366 1.366 0 0 0-1.134-.558c-.528 0-.948.276-1.26.828-.3.54-.45 1.284-.45 2.232 0 .552.09 1.08.27 1.584.18.504.456.918.828 1.242.372.312.84.468 1.404.468.384 0 .738-.072 1.062-.216.324-.156.612-.366.864-.63a.844.844 0 0 1 .27.306c.084.12.138.258.162.414zm5.31 1.35c-.949 0-1.729-.186-2.34-.558-.6-.384-1.05-.9-1.35-1.548a5.215 5.215 0 0 1-.433-2.142c0-.828.162-1.566.486-2.214a3.717 3.717 0 0 1 1.386-1.53c.6-.384 1.308-.576 2.124-.576.828 0 1.5.168 2.016.504.516.324.9.774 1.152 1.35.264.576.414 1.224.45 1.944-.072.3-.198.552-.378.756h-1.044c-.42 0-.882.006-1.386.018-.504 0-1.02.012-1.548.036-.516.024-1.008.048-1.476.072v-1.08h3.6c0-.804-.126-1.434-.378-1.89-.252-.468-.618-.702-1.098-.702-.288 0-.558.096-.81.288-.24.18-.438.48-.594.9-.144.408-.216.966-.216 1.674 0 .612.072 1.182.216 1.71.156.528.42.954.792 1.278.372.324.888.486 1.548.486.408 0 .81-.078 1.206-.234a3.202 3.202 0 0 0 1.026-.684c.108.06.21.168.306.324a.86.86 0 0 1 .144.45c-.432.48-.93.828-1.494 1.044-.552.216-1.188.324-1.908.324zm10.927-7.974c-.012.3-.018.612-.018.936 0 .324.024.642.072.954a1.588 1.588 0 0 1-.54.216c-.204.048-.42.072-.648.072a2.125 2.125 0 0 0-.27-.9 1.72 1.72 0 0 0-.612-.666c-.264-.168-.582-.252-.954-.252-.312 0-.564.078-.756.234a.771.771 0 0 0-.27.612c0 .18.042.348.126.504.084.144.27.3.558.468.288.168.738.372 1.35.612.66.252 1.182.504 1.566.756.384.24.654.51.81.81.156.3.234.654.234 1.062 0 .528-.15.984-.45 1.368-.3.384-.72.678-1.26.882-.54.204-1.164.306-1.872.306-.732 0-1.332-.054-1.8-.162a6.13 6.13 0 0 1-1.332-.486c.024-.204.036-.444.036-.72.012-.276.018-.546.018-.81 0-.276-.012-.51-.036-.702.132-.084.312-.144.54-.18.24-.048.468-.072.684-.072.084.696.294 1.218.63 1.566.336.348.774.522 1.314.522.42 0 .744-.09.972-.27.24-.18.36-.42.36-.72a.887.887 0 0 0-.144-.504c-.096-.156-.276-.306-.54-.45-.252-.156-.63-.33-1.134-.522-.588-.24-1.08-.474-1.476-.702-.384-.228-.672-.504-.864-.828-.192-.324-.288-.732-.288-1.224 0-.396.09-.738.27-1.026.192-.288.444-.528.756-.72.312-.192.66-.33 1.044-.414a4.734 4.734 0 0 1 1.152-.144c.6 0 1.116.054 1.548.162.432.096.84.24 1.224.432zm8.085 0c-.011.3-.017.612-.017.936 0 .324.023.642.072.954a1.588 1.588 0 0 1-.54.216c-.204.048-.42.072-.648.072a2.125 2.125 0 0 0-.27-.9 1.72 1.72 0 0 0-.612-.666c-.264-.168-.582-.252-.954-.252-.313 0-.564.078-.757.234a.771.771 0 0 0-.27.612c0 .18.043.348.126.504.084.144.27.3.558.468.288.168.739.372 1.35.612.66.252 1.182.504 1.566.756.385.24.654.51.81.81.157.3.234.654.234 1.062 0 .528-.15.984-.45 1.368-.3.384-.72.678-1.26.882-.54.204-1.163.306-1.871.306-.733 0-1.332-.054-1.8-.162a6.13 6.13 0 0 1-1.333-.486c.024-.204.036-.444.036-.72.013-.276.019-.546.019-.81 0-.276-.013-.51-.037-.702.133-.084.313-.144.54-.18.24-.048.469-.072.684-.072.085.696.294 1.218.63 1.566.336.348.774.522 1.314.522.42 0 .745-.09.972-.27.24-.18.36-.42.36-.72a.887.887 0 0 0-.143-.504c-.097-.156-.277-.306-.54-.45-.252-.156-.63-.33-1.135-.522-.587-.24-1.08-.474-1.475-.702-.385-.228-.672-.504-.865-.828-.192-.324-.288-.732-.288-1.224 0-.396.09-.738.27-1.026.192-.288.444-.528.756-.72.313-.192.66-.33 1.044-.414a4.734 4.734 0 0 1 1.153-.144c.6 0 1.116.054 1.547.162.432.096.84.24 1.224.432zm6.268-4.212c-.072.672-.15 1.446-.234 2.322a134.68 134.68 0 0 0-.414 5.382 1.99 1.99 0 0 1-.54.144c-.192.012-.39.018-.594.018-.072-1.068-.15-2.052-.234-2.952a71.674 71.674 0 0 0-.252-2.61 83.724 83.724 0 0 0-.324-2.502c.216-.036.462-.084.738-.144.276-.072.546-.15.81-.234.264-.096.486-.186.666-.27.168.048.282.138.342.27.06.12.072.312.036.576zm.09 10.854c0 .408-.126.732-.378.972a1.343 1.343 0 0 1-.936.342c-.408 0-.726-.114-.954-.342-.228-.228-.342-.522-.342-.882 0-.372.126-.678.378-.918.264-.24.594-.36.99-.36.384 0 .684.126.9.378.228.252.342.522.342.81z"/></svg>
