<svg fill="none" xmlns="http://www.w3.org/2000/svg" viewBox="0 0 72 72"><path d="M0 0h72v72H0V0Z" fill="#DB674D"/><path d="M7.31 21.55h9.11V33h-2.31v-9.53H9.63V33H7.3V21.55Zm11.4 3.15h2.04v1.22a3.06 3.06 0 0 1 2.59-1.4c.96 0 1.78.37 2.45 1.13.67.75 1 1.8 1 3.15 0 1.39-.33 2.47-1 3.24a3.17 3.17 0 0 1-3.72.87c-.37-.18-.76-.5-1.17-.93v4.18h-2.2V24.7Zm2.16 4.01c0 .93.19 1.62.56 2.07.37.44.82.67 1.35.67.51 0 .94-.2 1.27-.61.34-.42.51-1.09.51-2.02 0-.87-.17-1.52-.52-1.94a1.62 1.62 0 0 0-1.3-.63c-.53 0-.98.2-1.33.63-.36.4-.54 1.02-.54 1.83Zm7.17.02c0-.72.18-1.43.54-2.11a3.7 3.7 0 0 1 1.52-1.57c.66-.35 1.4-.53 2.21-.53a4.14 4.14 0 0 1 4.3 4.3c0 1.26-.41 2.3-1.23 3.13a4.1 4.1 0 0 1-3.05 1.24c-.76 0-1.49-.17-2.18-.52a3.55 3.55 0 0 1-1.57-1.5 5.06 5.06 0 0 1-.54-2.44Zm2.25.12c0 .82.2 1.45.59 1.9.39.43.87.65 1.44.65s1.05-.22 1.44-.66c.39-.44.58-1.07.58-1.9 0-.82-.2-1.44-.58-1.88a1.84 1.84 0 0 0-1.44-.66c-.57 0-1.05.22-1.45.66-.39.44-.58 1.07-.58 1.9Zm8.06-4.15h4.8c1 0 1.73.18 2.22.54.49.36.73.9.73 1.63 0 .46-.13.86-.4 1.2-.27.35-.6.58-1.01.7.57.14 1 .4 1.28.78.28.39.42.81.42 1.27a2 2 0 0 1-.71 1.58c-.47.4-1.17.6-2.1.6h-5.23v-8.3Zm2.21 3.45h1.42c.68 0 1.17-.09 1.47-.26a.85.85 0 0 0 .46-.81c0-.35-.14-.6-.43-.74a3.5 3.5 0 0 0-1.5-.23h-1.42v2.04Zm0 3.44h1.74c.62 0 1.08-.07 1.36-.22.3-.15.43-.42.43-.82 0-.4-.16-.68-.49-.83a5.14 5.14 0 0 0-1.91-.24h-1.13v2.11Zm9.03-4.36-1.99-.36c.23-.8.61-1.4 1.16-1.78a4.23 4.23 0 0 1 2.44-.57c.97 0 1.7.11 2.18.35.48.23.82.52 1.01.88.2.35.3 1 .3 1.96l-.03 2.56c0 .73.04 1.27.1 1.62.08.34.21.71.4 1.11H53a8.1 8.1 0 0 1-.29-.9c-.37.36-.77.63-1.2.81-.43.19-.88.28-1.37.28a2.8 2.8 0 0 1-2.02-.7 2.32 2.32 0 0 1-.73-1.76c0-.46.1-.88.33-1.25.22-.37.54-.65.94-.84.4-.2.99-.37 1.75-.52a12.5 12.5 0 0 0 2.13-.53v-.22c0-.42-.1-.72-.31-.9-.21-.18-.6-.27-1.18-.27-.4 0-.7.07-.91.23-.22.15-.4.42-.54.8Zm2.94 1.79c-.28.09-.73.2-1.33.33-.61.13-1.01.26-1.2.38a.92.92 0 0 0-.43.78c0 .3.11.57.34.8.23.22.52.33.88.33.4 0 .77-.13 1.13-.39.27-.2.44-.44.53-.73.05-.18.08-.54.08-1.07v-.43Zm4.92-4.32h7.35V33h-2.18v-6.52h-3v3.73c0 .95-.1 1.62-.32 2a1.7 1.7 0 0 1-.73.75c-.27.12-.7.18-1.28.18a9.4 9.4 0 0 1-1.38-.14v-1.62a10.23 10.23 0 0 1 .9.04c.3 0 .47-.1.54-.29.07-.2.1-.74.1-1.63v-4.8Zm-25.2 20.2v-2.2h2.19v2.2h-2.2Zm0 6.1v-2.2h2.19V51h-2.2Zm8.54 3.37h-1.5a15.2 15.2 0 0 1-1.83-3.75 11.83 11.83 0 0 1 .15-8.04 15 15 0 0 1 1.7-3.23h1.5a23.94 23.94 0 0 0-1.47 4.03 15 15 0 0 0-.17 6.14 17.45 17.45 0 0 0 1.62 4.85Z" fill="#000"/></svg>