<svg xmlns="http://www.w3.org/2000/svg" fill="none" viewBox="0 0 64 64"><path fill="#fff" fill-rule="evenodd" d="M50.55 4.88c-5.2-3.17-11.52-3.73-17.65-3.87h-1.57C25.48.98 19.16.95 14.88 4.34c-2.88 2.28-3.53 5.79-4.2 9.36-.42 2.23-.84 4.49-1.8 6.49-.83 1.83-2.27 3.43-3.68 5.02-2.12 2.37-4.2 4.7-4.2 7.7 0 3.15 2.1 5.66 4.24 8.2 1.27 1.52 2.55 3.04 3.4 4.72.96 1.92 1.4 4.1 1.85 6.27.74 3.64 1.47 7.22 4.58 9.35 4.84 1.82 11.94 1.82 17.9 1.12 3.51-.7 6.35-2.67 9.22-4.66 1.48-1.06 3-2.04 4.59-2.93 1.62-.89 3.42-1.54 5.2-2.19 3.37-1.23 6.69-2.44 8.65-5.14 2.1-3.82 2.2-8.7 2.28-13.37 0-.46.02-.91.03-1.37.26-5.04-.32-10.1-1.74-14.95A27.44 27.44 0 0050.55 4.88z"/></svg>
