<svg xmlns="http://www.w3.org/2000/svg" viewBox="0 0 64 64" fill="#1b2028"><path fill-rule="evenodd" d="M64 0H0v64h64V0zM48.88 5.46C43.54 2.76 37.51.4 31.45 1.14c-4.03.52-7.12 2.87-10.22 5.23a47.87 47.87 0 01-4.4 3.1c-1.55.9-3.24 1.6-4.91 2.31-3.37 1.42-6.69 2.82-8.66 5.63-2.78 3.98-2.36 9.06-2 13.47l.07.75c.3 3.9 1.86 7.46 3.43 11.07l.8 1.88c.62 1.42 1.1 2.9 1.58 4.37 1.23 3.8 2.46 7.59 6.02 10.16 4.94 3.56 12.09 3.99 18.29 3.87 5.17-.1 9.35-2.86 13.53-5.63.82-.55 1.65-1.1 2.49-1.63l1.07-.65c4.28-2.6 8.71-5.3 11.27-9.23 2.77-4.26 3.14-9.33 3.14-14.21a63.65 63.65 0 00-1.19-15.13c-2.69-4.9-7.53-8.35-12.88-11.04z"/></svg>
