<svg xmlns="http://www.w3.org/2000/svg" viewBox="0 0 64 64"><path d="M34.35 3.42c-.6-.09-1.22-.17-1.82-.27-1.54-.23-3.07-.59-4.61-.94-4.29-.98-8.55-1.96-12.65-.37-5.55 2.14-9.39 7.57-11.8 12.5C1.03 19.3.88 24.9 1.03 30.3l.03.98c.13 5.11.28 10.55 3.2 14.59 1.95 2.68 5.11 3.98 8.33 5.3 1.94.8 3.9 1.61 5.62 2.74 1.68 1.1 3.16 2.48 4.61 3.83 2.9 2.7 5.66 5.27 9.7 5.27 5.9-.27 11.62-2.1 16.57-5.3.98-.56 2-1.1 3.04-1.64 4.43-2.32 9-4.7 10.77-9.06.38-3.51-.5-7.19-1.4-10.92a72.9 72.9 0 01-1.22-5.8c-.23-1.64-.25-3.3-.27-4.96-.03-3.18-.06-6.31-1.66-9.2-2.44-4.37-7.05-7.25-11.5-9.48-3.91-1.95-8.19-2.58-12.51-3.22l.01-.01z"/></svg>
