<svg xmlns="http://www.w3.org/2000/svg" viewBox="0 0 64 64"><path d="M45.7 5.58C42.04 3.3 38.38 1 34.11 1c-4.63 0-8.69 2.42-12.69 4.8l-1.71 1a40.27 40.27 0 00-11.7 9.46c-3.32 4.34-6.32 9.12-6.82 14.45A23.27 23.27 0 005.06 46.8c2.25 3.12 5.78 4.61 9.35 6.13 1.68.71 3.36 1.43 4.94 2.32 1.53.87 2.99 1.95 4.44 3.02 3.2 2.38 6.37 4.73 10.33 4.73 4.9 0 8.98-3.12 12.9-6.12l2-1.51a36.5 36.5 0 0010.24-10.74A27.38 27.38 0 0063 30.73c0-5.03-.02-10.18-2.7-14.46-2.23-3.6-5.94-5.68-9.76-7.82-.73-.41-1.47-.82-2.2-1.25-.9-.53-1.78-1.07-2.65-1.62h.01z"/></svg>
