<svg xmlns="http://www.w3.org/2000/svg" fill="none" viewBox="0 0 64 64"><path fill="#fff" fill-rule="evenodd" d="M45.7 7.13a39.03 39.03 0 00-12.86-4.18v-.02c-1.1-.21-2.22-.47-3.33-.73-4.2-.99-8.44-1.98-12.42-.28-5.04 2.15-8.21 7.51-11 12.47a38.22 38.22 0 00-5.04 16.5c-.31 6.01.9 12 3.54 17.41a30.61 30.61 0 0011.82 12.9c5.04 1.76 10.83 1.76 16.43 1.76a22.25 22.25 0 0014.8-4.61c2.73-2.27 4.23-5.51 5.78-8.84.7-1.51 1.4-3.04 2.24-4.5.81-1.43 1.82-2.79 2.82-4.14C60.75 37.8 63 34.74 63 30.92c0-5.31-3.31-9.85-6.4-14.08l-.32-.44c-2.8-3.83-6.42-7-10.58-9.27z"/></svg>
