<svg xmlns="http://www.w3.org/2000/svg" viewBox="0 0 64 64"><path d="M49.27 5.19C44.22 1.54 37.42.67 31 1.09c-6 .65-11.72 2.83-16.61 6.34a30.57 30.57 0 00-11.5 12.11C.6 24.5.76 29.84 1.46 35.35c.7 5.53 1.51 11.16 5.11 15.66a32.92 32.92 0 0015.18 9.69 47.07 47.07 0 0019.21 2.07c4.15-1.54 6.37-5.23 8.6-8.94a42.13 42.13 0 013.27-4.93 43.45 43.45 0 013.8-3.82c3.01-2.78 5.98-5.52 6.37-9.34 0-4.35-1.91-8.2-3.9-12.2-.54-1.09-1.09-2.18-1.6-3.3a54.45 54.45 0 01-1.75-4.49c-1.41-3.98-2.82-7.92-6.48-10.56z"/></svg>
