<svg xmlns="http://www.w3.org/2000/svg" viewBox="0 0 38 29"><path fill="#000" d="M5.67 25.15a2.87 2.87 0 0 1-2.87 2.88A2.8 2.8 0 0 1 0 25.15a2.87 2.87 0 0 1 2.88-2.87 2.8 2.8 0 0 1 2.8 2.87zM5.67 14.35a2.87 2.87 0 0 1-2.87 2.87A2.8 2.8 0 0 1 0 14.35a2.87 2.87 0 0 1 2.88-2.88 2.8 2.8 0 0 1 2.8 2.88zM16.47 25.15a2.87 2.87 0 1 1-5.75 0 2.82 2.82 0 0 1 2.88-2.87 2.92 2.92 0 0 1 2.87 2.87zM16.47 14.35a2.87 2.87 0 1 1-5.75 0 2.82 2.82 0 0 1 2.88-2.88c1.55.08 2.87 1.32 2.87 2.88zM38 14.35a2.87 2.87 0 1 1-5.75 0 2.82 2.82 0 0 1 2.87-2.88c1.56.08 2.88 1.32 2.88 2.88zM38 3.63a2.87 2.87 0 1 1-5.75 0 2.87 2.87 0 1 1 5.75 0zM27.2 25.15a2.87 2.87 0 0 1-2.88 2.88 2.82 2.82 0 0 1-2.87-2.88 2.82 2.82 0 0 1 2.87-2.87 2.87 2.87 0 0 1 2.88 2.87zM27.2 14.35a2.87 2.87 0 0 1-2.88 2.87 2.82 2.82 0 0 1-2.87-2.87 2.82 2.82 0 0 1 2.87-2.88 2.87 2.87 0 0 1 2.88 2.88zM27.2 3.63a2.87 2.87 0 0 1-2.88 2.87 2.82 2.82 0 0 1-2.87-2.87c0-1.64 1.4-2.88 2.95-2.88a2.8 2.8 0 0 1 2.8 2.88z"/></svg>
