<svg xmlns="http://www.w3.org/2000/svg" viewBox="0 0 1224 1324"><defs><linearGradient id="a" gradientUnits="userSpaceOnUse" x1="1074" y1="662" x2="1074" y2="406"><stop offset="0" stop-color="#c6f523"/><stop offset=".9" stop-color="#afe63a"/></linearGradient><linearGradient id="b" gradientUnits="userSpaceOnUse" x1="1074" y1="406" x2="612" y2="150"><stop offset="0" stop-color="#afe63a"/><stop offset=".9" stop-color="#81c36d"/></linearGradient><linearGradient id="c" gradientUnits="userSpaceOnUse" x1="612" y1="150" x2="150" y2="406"><stop offset="0" stop-color="#81c36d"/><stop offset=".8" stop-color="#61afb4"/></linearGradient><linearGradient id="d" gradientUnits="userSpaceOnUse" x1="150" y1="406" x2="612" y2="662"><stop offset="0" stop-color="#61afb4"/><stop offset=".9" stop-color="#42a0da"/></linearGradient><linearGradient id="e" gradientUnits="userSpaceOnUse" x1="612" y1="662" x2="612" y2="1174"><stop offset="0" stop-color="#42a0da"/><stop offset=".8" stop-color="#3b84bb"/></linearGradient><linearGradient id="f" gradientUnits="userSpaceOnUse" x1="1074" y1="918" x2="612" y2="1174"><stop offset="0" stop-color="#386d9b"/><stop offset=".7" stop-color="#3b84bb"/></linearGradient><linearGradient id="g" gradientUnits="userSpaceOnUse" x1="612" y1="1174" x2="150" y2="918"><stop offset=".3" stop-color="#3b84bb"/><stop offset=".9" stop-color="#366fa5"/></linearGradient><linearGradient id="h" gradientUnits="userSpaceOnUse" x1="150" y1="918" x2="150" y2="662"><stop offset="0" stop-color="#366fa5"/><stop offset="1" stop-color="#366998"/></linearGradient></defs><g stroke-width="120" stroke-linecap="round" stroke-linejoin="round" fill="none"><path stroke="#fff" stroke-width="300" fill="#fff" d="M1074 406L612 150 150 406v512l462 256 462-256z"/><path stroke="url(#a)" d="M1074 662V406"/><path stroke="url(#b)" d="M1074 406L612 150"/><path stroke="url(#c)" d="M612 150L150 406"/><path stroke="url(#d)" d="M150 406l462 256"/><path stroke="url(#e)" d="M612 662v512"/><path stroke="url(#f)" d="M1074 918l-462 256"/><path stroke="url(#g)" d="M612 1174L150 918"/><path stroke="url(#h)" d="M150 918V662"/></g></svg>