<svg xmlns="http://www.w3.org/2000/svg" viewBox="0 0 24 15"><path fill="#1D1D1B" d="M19.75 13.32a.71.71 0 01-.7-.46c-.15-.4 0-.82.4-.98a4.79 4.79 0 002.6-2.6c.27-.63.4-1.25.4-1.92 0-.66-.13-1.32-.4-1.9a4.79 4.79 0 00-2.6-2.62.74.74 0 01.58-1.36c.78.31 1.44.78 2.06 1.4a6.91 6.91 0 011.4 2.07c.35.78.51 1.63.51 2.53a6.26 6.26 0 01-1.9 4.6 6.91 6.91 0 01-2.07 1.4c-.08-.16-.16-.16-.28-.16z"/><path fill="#1D1D1B" d="M17.69 10.9a.71.71 0 01-.7-.46c-.16-.39 0-.82.39-.97.27-.12.54-.28.74-.5.23-.24.39-.48.5-.75.12-.27.2-.58.2-.9 0-.3-.08-.62-.2-.9a1.94 1.94 0 00-.5-.73 2.28 2.28 0 00-.74-.5c-.4-.16-.55-.63-.4-.98a.74.74 0 01.98-.4c.47.2.86.48 1.2.83.36.35.63.78.83 1.2a3.92 3.92 0 010 3.04c-.2.47-.47.86-.82 1.21s-.78.62-1.2.82h-.28zM13.44 0L12.2.86C8.3 3.58 5.38 5.34.66 5.96.27 5.96 0 6.55 0 7.3 0 8.03.31 8.6.66 8.6c4.68.66 7.64 2.42 11.53 5.1l1.25.86c.82 0 2.18-3.15 2.18-7.32S14.26 0 13.44 0z"/></svg>
