<svg xmlns="http://www.w3.org/2000/svg">
    <symbol id="cross" viewBox="0 0 32 32"><path d="M7 24L25 8M25 24L7 8" stroke-width="3" stroke-linecap="round"/></symbol>
    <symbol id="duo" viewBox="0 0 24 24"><path fill-opacity="0.75" d="M 12,1 a 11,11 0 1,0 0,23"/><path fill-opacity="0.25" d="M 12,1 a 11,11 0 1,1 0,23"/></symbol>
    <symbol id="menu" viewBox="0 0 32 32"><path d="M5 8h22M5 16h22M27 24H5" stroke-width="3" stroke-linecap="round"/></symbol>
    <symbol id="moon" viewBox="0 0 24 24"><path d="M11.082 12.918C8.418 10.222 7.685 6.207 9.14 2.72c.227-.542-.467-.847-.872-.671a10.4 10.4 0 00-5.58 13.263c.945 2.431 2.788 4.486 5.145 5.629a10.403 10.403 0 0014.117-5.209c.174-.404-.131-1.099-.672-.872-3.49 1.456-7.502.723-10.199-1.94-.546-.539-1.387.302-.841.84 2.97 2.934 7.49 3.86 11.357 2.247l-.672-.872c-1.003 2.316-2.885 4.208-5.266 5.09a9.386 9.386 0 01-6.557-.02C4.725 18.563 2.293 13.661 3.51 9.18c.747-2.752 2.75-4.97 5.358-6.098l-.873-.671c-1.614 3.864-.687 8.384 2.247 11.353.538.54 1.38-.302.84-.846z"/></symbol>
    <symbol id="sun" viewBox="0 0 24 24"><path d="M12 5.666A6.34 6.34 0 005.667 12 6.34 6.34 0 0012 18.333 6.34 6.34 0 0018.333 12 6.34 6.34 0 0012 5.666zm0 10.889A4.56 4.56 0 017.445 12 4.561 4.561 0 0112 7.444 4.561 4.561 0 0116.555 12 4.56 4.56 0 0112 16.555zM12 4.37a.89.89 0 00.889-.889V.89a.89.89 0 00-1.778 0V3.48c0 .491.398.89.889.89zM12 19.629a.889.889 0 00-.889.888v2.593a.889.889 0 001.778 0v-2.593A.89.89 0 0012 19.63zM23.111 11.11H20.52a.889.889 0 000 1.778h2.592a.89.89 0 000-1.777zM4.37 12a.889.889 0 00-.888-.89H.889a.889.889 0 000 1.778h2.593A.889.889 0 004.37 12zM18.652 6.605l1.833-1.834a.89.89 0 00-1.257-1.256l-1.833 1.832a.889.889 0 101.257 1.258zM5.348 17.395l-1.833 1.833a.889.889 0 001.256 1.257l1.834-1.833a.89.89 0 00-1.257-1.258zM18.652 17.395a.89.89 0 00-1.257 1.257l1.833 1.833a.889.889 0 101.257-1.257l-1.833-1.833zM5.348 6.605a.89.89 0 001.257-1.258L4.77 3.514a.89.89 0 00-1.256 1.257l1.833 1.834z"/></symbol>
    <symbol id="wave" viewBox="0 0 32 32"><path d="M27.11 15.34a2 2 0 0 1-2.02-1.65c-.3-1.75-.9-2.96-1.56-2.96s-1.22 1.16-1.57 2.86c-.1.68-.76 1.16-1.46 1.16h-.66c-.81 0-1.47-.58-1.52-1.36-.25-4.27-.96-7.52-1.92-8.24a.39.39 0 0 0-.2-.1c-.05 0-.05 0-.1-.05h-.2c-.05 0-.05 0-.1.05s-.15.05-.2.1c-.91.72-1.67 4.02-1.92 8.24a1.48 1.48 0 0 1-1.52 1.36h-.65c-.71 0-1.37-.48-1.47-1.16-.3-1.7-.9-2.86-1.57-2.86-.65 0-1.26 1.2-1.56 2.96a2.04 2.04 0 0 1-2.02 1.65c-2.17 0-3.89.53-3.89 1.16 0 .63 1.72 1.16 3.89 1.16a2 2 0 0 1 2.02 1.65c.3 1.75.9 2.96 1.56 2.96s1.22-1.16 1.57-2.86c.1-.68.76-1.16 1.47-1.16h.65c.81 0 1.42.58 1.52 1.36.25 4.27.96 7.52 1.92 8.24.05.05.15.1.2.1.05 0 .05 0 .1.05h.2c.05 0 .05 0 .1-.05s.15-.05.2-.1c.91-.72 1.67-4.02 1.92-8.24.05-.78.71-1.36 1.52-1.36h.65c.71 0 1.37.48 1.47 1.16.3 1.7.9 2.86 1.57 2.86.65 0 1.26-1.2 1.56-2.96a2.04 2.04 0 0 1 2.02-1.65c2.17 0 3.89-.53 3.89-1.16 0-.63-1.72-1.16-3.89-1.16Z"/></symbol>
</svg>
