<svg xmlns="http://www.w3.org/2000/svg" viewBox="0 0 800 450"><path d="M406.91 132.81a6.91 6.91 0 1 1-6.91-6.91 6.91 6.91 0 0 1 6.91 6.91M314.72 181.75a6.92 6.92 0 1 1-6.91-6.92 6.91 6.91 0 0 1 6.91 6.92M314.72 279.62a6.92 6.92 0 1 1-6.91-6.92 6.91 6.91 0 0 1 6.91 6.92M406.91 328.55a6.91 6.91 0 1 1-6.91-6.91 6.91 6.91 0 0 1 6.91 6.91M406.91 230.68a6.91 6.91 0 1 1-6.91-6.91 6.91 6.91 0 0 1 6.91 6.91M499.11 181.75a6.92 6.92 0 1 1-6.92-6.92 6.91 6.91 0 0 1 6.92 6.92M499.11 279.62a6.92 6.92 0 1 1-6.92-6.92 6.91 6.91 0 0 1 6.92 6.92M314.72 255.15a6.92 6.92 0 1 1-6.91-6.91 6.91 6.91 0 0 1 6.91 6.91M337.77 169.51a6.92 6.92 0 1 1-6.92-6.91 6.92 6.92 0 0 1 6.92 6.91M476.06 169.51a6.92 6.92 0 1 1-6.91-6.91 6.92 6.92 0 0 1 6.91 6.91M360.82 157.28a6.92 6.92 0 1 1-6.92-6.92 6.91 6.91 0 0 1 6.92 6.92M453 157.28a6.92 6.92 0 1 1-6.91-6.92 6.91 6.91 0 0 1 6.91 6.92M383.87 145.05a6.92 6.92 0 1 1-6.92-6.92 6.92 6.92 0 0 1 6.92 6.92M430 145.05a6.92 6.92 0 1 1-6.91-6.92 6.91 6.91 0 0 1 6.91 6.92M406.91 279.62a6.91 6.91 0 1 1-6.91-6.92 6.91 6.91 0 0 1 6.91 6.92M383.87 316.32a6.92 6.92 0 1 1-6.87-6.92 6.91 6.91 0 0 1 6.92 6.92M430 316.32a6.92 6.92 0 1 1-6.91-6.92 6.91 6.91 0 0 1 6.91 6.92M360.82 304.08a6.92 6.92 0 1 1-6.92-6.91 6.92 6.92 0 0 1 6.92 6.91M406.91 304.08a6.91 6.91 0 1 1-6.91-6.91 6.91 6.91 0 0 1 6.91 6.91M453 304.08a6.92 6.92 0 1 1-6.91-6.91 6.91 6.91 0 0 1 6.91 6.91M337.77 291.85a6.92 6.92 0 1 1-6.92-6.91 6.92 6.92 0 0 1 6.92 6.91M476.06 291.85a6.92 6.92 0 1 1-6.91-6.91 6.92 6.92 0 0 1 6.91 6.91M406.91 255.15a6.91 6.91 0 1 1-6.91-6.91 6.91 6.91 0 0 1 6.91 6.91M383.87 218.45a6.92 6.92 0 1 1-6.92-6.92 6.91 6.91 0 0 1 6.92 6.92M360.82 206.21a6.92 6.92 0 1 1-6.92-6.91 6.92 6.92 0 0 1 6.92 6.91M337.77 194a6.92 6.92 0 1 1-6.92-6.91 6.92 6.92 0 0 1 6.92 6.91" fill="#71d431"/><path d="M312.65 230.68a4.84 4.84 0 1 1-4.84-4.84 4.84 4.84 0 0 1 4.84 4.84M358.74 132.81a4.84 4.84 0 1 1-4.84-4.81 4.83 4.83 0 0 1 4.84 4.84M450.94 132.81a4.84 4.84 0 1 1-4.84-4.81 4.84 4.84 0 0 1 4.84 4.84M381.79 120.58a4.84 4.84 0 1 1-4.84-4.84 4.84 4.84 0 0 1 4.84 4.84M427.89 120.58a4.84 4.84 0 1 1-4.84-4.84 4.84 4.84 0 0 1 4.84 4.84M404.84 108.34a4.84 4.84 0 1 1-4.84-4.84 4.84 4.84 0 0 1 4.84 4.84M358.74 181.75a4.84 4.84 0 1 1-4.84-4.84 4.84 4.84 0 0 1 4.84 4.84M450.94 181.75a4.84 4.84 0 1 1-4.84-4.84 4.84 4.84 0 0 1 4.84 4.84M289.6 169.51a4.84 4.84 0 1 1-4.84-4.84 4.84 4.84 0 0 1 4.84 4.84M381.79 169.51a4.84 4.84 0 1 1-4.84-4.84 4.84 4.84 0 0 1 4.84 4.84M427.89 169.51a4.84 4.84 0 1 1-4.84-4.84 4.84 4.84 0 0 1 4.84 4.84M520.08 169.51a4.84 4.84 0 1 1-4.84-4.84 4.83 4.83 0 0 1 4.84 4.84M312.65 157.28a4.84 4.84 0 1 1-4.84-4.84 4.84 4.84 0 0 1 4.84 4.84M404.84 157.28a4.84 4.84 0 1 1-4.84-4.84 4.84 4.84 0 0 1 4.84 4.84M497 157.28a4.84 4.84 0 1 1-4.84-4.84 4.84 4.84 0 0 1 4.84 4.84M335.69 145.05a4.84 4.84 0 1 1-4.84-4.84 4.84 4.84 0 0 1 4.84 4.84M474 145.05a4.84 4.84 0 1 1-4.84-4.84 4.84 4.84 0 0 1 4.84 4.84M358.74 279.62a4.84 4.84 0 1 1-4.84-4.84 4.84 4.84 0 0 1 4.84 4.84M450.94 279.62a4.84 4.84 0 1 1-4.84-4.84 4.84 4.84 0 0 1 4.84 4.84M358.74 328.55a4.84 4.84 0 1 1-4.84-4.84 4.83 4.83 0 0 1 4.84 4.84M450.94 328.55a4.84 4.84 0 1 1-4.84-4.84 4.84 4.84 0 0 1 4.84 4.84M335.69 316.32a4.84 4.84 0 1 1-4.84-4.84 4.84 4.84 0 0 1 4.84 4.84M474 316.32a4.84 4.84 0 1 1-4.84-4.84 4.84 4.84 0 0 1 4.84 4.84M404.84 353a4.84 4.84 0 1 1-4.84-4.84 4.84 4.84 0 0 1 4.84 4.84M381.79 340.79A4.84 4.84 0 1 1 377 336a4.84 4.84 0 0 1 4.84 4.84M427.89 340.79a4.84 4.84 0 1 1-4.84-4.84 4.84 4.84 0 0 1 4.84 4.84M312.65 304.08a4.84 4.84 0 1 1-4.84-4.84 4.85 4.85 0 0 1 4.84 4.84M497 304.08a4.84 4.84 0 1 1-4.84-4.84 4.84 4.84 0 0 1 4.84 4.84M289.6 291.85a4.84 4.84 0 1 1-4.84-4.84 4.84 4.84 0 0 1 4.84 4.84M381.79 291.85A4.84 4.84 0 1 1 377 287a4.84 4.84 0 0 1 4.84 4.84M427.89 291.85a4.84 4.84 0 1 1-4.84-4.84 4.84 4.84 0 0 1 4.84 4.84M520.08 291.85a4.84 4.84 0 1 1-4.84-4.84 4.84 4.84 0 0 1 4.84 4.84M358.74 230.68a4.84 4.84 0 1 1-4.84-4.84 4.83 4.83 0 0 1 4.84 4.84M497 255.15a4.84 4.84 0 1 1-4.84-4.84 4.84 4.84 0 0 1 4.84 4.84M289.6 218.45a4.84 4.84 0 1 1-4.84-4.84 4.84 4.84 0 0 1 4.84 4.84M335.69 218.45a4.84 4.84 0 1 1-4.84-4.84 4.84 4.84 0 0 1 4.84 4.84M427.89 218.45a4.84 4.84 0 1 1-4.84-4.84 4.84 4.84 0 0 1 4.84 4.84M312.65 206.21a4.84 4.84 0 1 1-4.84-4.84 4.85 4.85 0 0 1 4.84 4.84M404.84 206.21a4.84 4.84 0 1 1-4.84-4.84 4.85 4.85 0 0 1 4.84 4.84M497 206.21a4.84 4.84 0 1 1-4.84-4.84 4.84 4.84 0 0 1 4.84 4.84M289.6 194a4.84 4.84 0 1 1-4.84-4.84 4.84 4.84 0 0 1 4.84 4.84M381.79 194a4.84 4.84 0 1 1-4.84-4.84 4.84 4.84 0 0 1 4.84 4.84M474 194a4.84 4.84 0 1 1-4.84-4.84A4.84 4.84 0 0 1 474 194M520.08 194a4.84 4.84 0 1 1-4.84-4.84 4.84 4.84 0 0 1 4.84 4.84M289.6 267.38a4.84 4.84 0 1 1-4.84-4.84 4.84 4.84 0 0 1 4.84 4.84M335.69 267.38a4.84 4.84 0 1 1-4.84-4.84 4.83 4.83 0 0 1 4.84 4.84M381.79 267.38a4.84 4.84 0 1 1-4.84-4.84 4.84 4.84 0 0 1 4.84 4.84M427.89 267.38a4.84 4.84 0 1 1-4.84-4.84 4.84 4.84 0 0 1 4.84 4.84M474 267.38a4.84 4.84 0 1 1-4.84-4.84 4.84 4.84 0 0 1 4.84 4.84M520.08 267.38a4.84 4.84 0 1 1-4.84-4.84 4.83 4.83 0 0 1 4.84 4.84M289.6 242.92a4.84 4.84 0 1 1-4.84-4.84 4.84 4.84 0 0 1 4.84 4.84M381.79 242.92a4.84 4.84 0 1 1-4.84-4.84 4.84 4.84 0 0 1 4.84 4.84M427.89 242.92a4.84 4.84 0 1 1-4.84-4.84 4.84 4.84 0 0 1 4.84 4.84" fill="#00bb6e"/><path d="M126.88 83.88a3.46 3.46 0 1 1-3.46-3.46 3.45 3.45 0 0 1 3.46 3.46M173 83.88a3.46 3.46 0 1 1-3.45-3.46 3.44 3.44 0 0 1 3.45 3.46M265.17 83.88a3.46 3.46 0 1 1-3.46-3.46 3.45 3.45 0 0 1 3.46 3.46M311.26 83.88a3.46 3.46 0 1 1-3.45-3.46 3.44 3.44 0 0 1 3.45 3.46M357.36 83.88a3.46 3.46 0 1 1-3.46-3.46 3.45 3.45 0 0 1 3.46 3.46M403.46 83.88a3.46 3.46 0 1 1-3.46-3.46 3.45 3.45 0 0 1 3.46 3.46M449.55 83.88a3.46 3.46 0 1 1-3.45-3.46 3.44 3.44 0 0 1 3.45 3.46M495.65 83.88a3.46 3.46 0 1 1-3.46-3.46 3.45 3.45 0 0 1 3.46 3.46M541.75 83.88a3.46 3.46 0 1 1-3.46-3.46 3.45 3.45 0 0 1 3.46 3.46M587.85 83.88a3.46 3.46 0 1 1-3.46-3.46 3.45 3.45 0 0 1 3.46 3.46M633.94 83.88a3.46 3.46 0 1 1-3.46-3.46 3.45 3.45 0 0 1 3.46 3.46M680 83.88a3.46 3.46 0 1 1-3.46-3.46 3.45 3.45 0 0 1 3.46 3.46M219.07 83.88a3.46 3.46 0 1 1-3.46-3.46 3.45 3.45 0 0 1 3.46 3.46M126.88 132.81a3.46 3.46 0 1 1-3.46-3.46 3.46 3.46 0 0 1 3.46 3.46M173 132.81a3.46 3.46 0 1 1-3.45-3.46 3.45 3.45 0 0 1 3.45 3.46M265.17 132.81a3.46 3.46 0 1 1-3.46-3.46 3.46 3.46 0 0 1 3.46 3.46M311.26 132.81a3.46 3.46 0 1 1-3.45-3.46 3.45 3.45 0 0 1 3.45 3.46M495.65 132.81a3.46 3.46 0 1 1-3.46-3.46 3.46 3.46 0 0 1 3.46 3.46M541.75 132.81a3.46 3.46 0 1 1-3.46-3.46 3.46 3.46 0 0 1 3.46 3.46M587.85 132.81a3.46 3.46 0 1 1-3.46-3.46 3.46 3.46 0 0 1 3.46 3.46M633.94 132.81a3.46 3.46 0 1 1-3.46-3.46 3.46 3.46 0 0 1 3.46 3.46M680 132.81a3.46 3.46 0 1 1-3.46-3.46 3.46 3.46 0 0 1 3.46 3.46M219.07 132.81a3.46 3.46 0 1 1-3.46-3.46 3.46 3.46 0 0 1 3.46 3.46M149.92 120.58a3.46 3.46 0 1 1-3.45-3.46 3.45 3.45 0 0 1 3.45 3.46M196 120.58a3.46 3.46 0 1 1-3.46-3.46 3.46 3.46 0 0 1 3.46 3.46M288.21 120.58a3.46 3.46 0 1 1-3.45-3.46 3.45 3.45 0 0 1 3.45 3.46M334.31 120.58a3.46 3.46 0 1 1-3.45-3.46 3.46 3.46 0 0 1 3.45 3.46M472.6 120.58a3.46 3.46 0 1 1-3.45-3.46 3.45 3.45 0 0 1 3.45 3.46M518.7 120.58a3.46 3.46 0 1 1-3.46-3.46 3.46 3.46 0 0 1 3.46 3.46M564.8 120.58a3.46 3.46 0 1 1-3.46-3.46 3.46 3.46 0 0 1 3.46 3.46M610.89 120.58a3.46 3.46 0 1 1-3.45-3.46 3.45 3.45 0 0 1 3.45 3.46M657 120.58a3.46 3.46 0 1 1-3.46-3.46 3.46 3.46 0 0 1 3.46 3.46M242.12 120.58a3.46 3.46 0 1 1-3.46-3.46 3.46 3.46 0 0 1 3.46 3.46M126.88 108.34a3.46 3.46 0 1 1-3.46-3.45 3.46 3.46 0 0 1 3.46 3.45M173 108.34a3.46 3.46 0 1 1-3.45-3.45 3.45 3.45 0 0 1 3.45 3.45M265.17 108.34a3.46 3.46 0 1 1-3.46-3.45 3.46 3.46 0 0 1 3.46 3.45M311.26 108.34a3.46 3.46 0 1 1-3.45-3.45 3.45 3.45 0 0 1 3.45 3.45M357.36 108.34a3.46 3.46 0 1 1-3.46-3.45 3.46 3.46 0 0 1 3.46 3.45M449.55 108.34a3.46 3.46 0 1 1-3.45-3.45 3.45 3.45 0 0 1 3.45 3.45M495.65 108.34a3.46 3.46 0 1 1-3.46-3.45 3.46 3.46 0 0 1 3.46 3.45M541.75 108.34a3.46 3.46 0 1 1-3.46-3.45 3.46 3.46 0 0 1 3.46 3.45M587.85 108.34a3.46 3.46 0 1 1-3.46-3.45 3.46 3.46 0 0 1 3.46 3.45M633.94 108.34a3.46 3.46 0 1 1-3.46-3.45 3.46 3.46 0 0 1 3.46 3.45M680 108.34a3.46 3.46 0 1 1-3.46-3.45 3.46 3.46 0 0 1 3.46 3.45M219.07 108.34a3.46 3.46 0 1 1-3.46-3.45 3.46 3.46 0 0 1 3.46 3.45M149.92 96.11a3.46 3.46 0 1 1-3.45-3.46 3.45 3.45 0 0 1 3.45 3.46M196 96.11a3.46 3.46 0 1 1-3.46-3.46 3.46 3.46 0 0 1 3.46 3.46M288.21 96.11a3.46 3.46 0 1 1-3.45-3.46 3.45 3.45 0 0 1 3.45 3.46M334.31 96.11a3.46 3.46 0 1 1-3.45-3.46 3.46 3.46 0 0 1 3.45 3.46M380.41 96.11a3.46 3.46 0 1 1-3.41-3.46 3.46 3.46 0 0 1 3.46 3.46M426.51 96.11a3.46 3.46 0 1 1-3.46-3.46 3.46 3.46 0 0 1 3.46 3.46M472.6 96.11a3.46 3.46 0 1 1-3.45-3.46 3.45 3.45 0 0 1 3.45 3.46M518.7 96.11a3.46 3.46 0 1 1-3.46-3.46 3.46 3.46 0 0 1 3.46 3.46M564.8 96.11a3.46 3.46 0 1 1-3.46-3.46 3.46 3.46 0 0 1 3.46 3.46M610.89 96.11a3.46 3.46 0 1 1-3.45-3.46 3.45 3.45 0 0 1 3.45 3.46M657 96.11a3.46 3.46 0 1 1-3.46-3.46 3.46 3.46 0 0 1 3.46 3.46M242.12 96.11a3.46 3.46 0 1 1-3.46-3.46 3.46 3.46 0 0 1 3.46 3.46M126.88 181.75a3.46 3.46 0 1 1-3.46-3.46 3.45 3.45 0 0 1 3.46 3.46M173 181.75a3.46 3.46 0 1 1-3.45-3.46 3.44 3.44 0 0 1 3.45 3.46M265.17 181.75a3.46 3.46 0 1 1-3.46-3.46 3.45 3.45 0 0 1 3.46 3.46M403.46 181.75a3.46 3.46 0 1 1-3.46-3.46 3.45 3.45 0 0 1 3.46 3.46M541.75 181.75a3.46 3.46 0 1 1-3.46-3.46 3.45 3.45 0 0 1 3.46 3.46M587.85 181.75a3.46 3.46 0 1 1-3.46-3.46 3.45 3.45 0 0 1 3.46 3.46M633.94 181.75a3.46 3.46 0 1 1-3.46-3.46 3.45 3.45 0 0 1 3.46 3.46M680 181.75a3.46 3.46 0 1 1-3.46-3.46 3.45 3.45 0 0 1 3.46 3.46M219.07 181.75a3.46 3.46 0 1 1-3.46-3.46 3.45 3.45 0 0 1 3.46 3.46M149.92 169.51a3.46 3.46 0 1 1-3.45-3.45 3.45 3.45 0 0 1 3.45 3.45M196 169.51a3.46 3.46 0 1 1-3.46-3.45 3.46 3.46 0 0 1 3.46 3.45M564.8 169.51a3.46 3.46 0 1 1-3.46-3.45 3.46 3.46 0 0 1 3.46 3.45M610.89 169.51a3.46 3.46 0 1 1-3.45-3.45 3.45 3.45 0 0 1 3.45 3.45M657 169.51a3.46 3.46 0 1 1-3.46-3.45 3.46 3.46 0 0 1 3.46 3.45M242.12 169.51a3.46 3.46 0 1 1-3.46-3.45 3.46 3.46 0 0 1 3.46 3.45M126.88 157.28a3.46 3.46 0 1 1-3.46-3.46 3.46 3.46 0 0 1 3.46 3.46M173 157.28a3.46 3.46 0 1 1-3.45-3.46 3.45 3.45 0 0 1 3.45 3.46M265.17 157.28a3.46 3.46 0 1 1-3.46-3.46 3.46 3.46 0 0 1 3.46 3.46M541.75 157.28a3.46 3.46 0 1 1-3.46-3.46 3.46 3.46 0 0 1 3.46 3.46M587.85 157.28a3.46 3.46 0 1 1-3.46-3.46 3.46 3.46 0 0 1 3.46 3.46M633.94 157.28a3.46 3.46 0 1 1-3.46-3.46 3.46 3.46 0 0 1 3.46 3.46M680 157.28a3.46 3.46 0 1 1-3.46-3.46 3.46 3.46 0 0 1 3.46 3.46M219.07 157.28a3.46 3.46 0 1 1-3.46-3.46 3.46 3.46 0 0 1 3.46 3.46M149.92 145.05a3.46 3.46 0 1 1-3.45-3.46 3.44 3.44 0 0 1 3.45 3.46M196 145.05a3.46 3.46 0 1 1-3.46-3.46 3.45 3.45 0 0 1 3.46 3.46M288.21 145.05a3.46 3.46 0 1 1-3.45-3.46 3.44 3.44 0 0 1 3.45 3.46M518.7 145.05a3.46 3.46 0 1 1-3.46-3.46 3.45 3.45 0 0 1 3.46 3.46M564.8 145.05a3.46 3.46 0 1 1-3.46-3.46 3.45 3.45 0 0 1 3.46 3.46M610.89 145.05a3.46 3.46 0 1 1-3.45-3.46 3.44 3.44 0 0 1 3.45 3.46M657 145.05a3.46 3.46 0 1 1-3.46-3.46 3.45 3.45 0 0 1 3.46 3.46M242.12 145.05a3.46 3.46 0 1 1-3.46-3.46 3.45 3.45 0 0 1 3.46 3.46M126.88 279.62a3.46 3.46 0 1 1-3.46-3.46 3.45 3.45 0 0 1 3.46 3.46M173 279.62a3.46 3.46 0 1 1-3.45-3.46 3.44 3.44 0 0 1 3.45 3.46M265.17 279.62a3.46 3.46 0 1 1-3.46-3.46 3.45 3.45 0 0 1 3.46 3.46M541.75 279.62a3.46 3.46 0 1 1-3.46-3.46 3.45 3.45 0 0 1 3.46 3.46M587.85 279.62a3.46 3.46 0 1 1-3.46-3.46 3.45 3.45 0 0 1 3.46 3.46M633.94 279.62a3.46 3.46 0 1 1-3.46-3.46 3.45 3.45 0 0 1 3.46 3.46M680 279.62a3.46 3.46 0 1 1-3.46-3.46 3.45 3.45 0 0 1 3.46 3.46M219.07 279.62a3.46 3.46 0 1 1-3.46-3.46 3.45 3.45 0 0 1 3.46 3.46M126.88 328.55a3.46 3.46 0 1 1-3.46-3.45 3.46 3.46 0 0 1 3.46 3.45M173 328.55a3.46 3.46 0 1 1-3.45-3.45 3.45 3.45 0 0 1 3.45 3.45M265.17 328.55a3.46 3.46 0 1 1-3.46-3.45 3.46 3.46 0 0 1 3.46 3.45M311.26 328.55a3.46 3.46 0 1 1-3.45-3.45 3.45 3.45 0 0 1 3.45 3.45M495.65 328.55a3.46 3.46 0 1 1-3.46-3.45 3.46 3.46 0 0 1 3.46 3.45M541.75 328.55a3.46 3.46 0 1 1-3.46-3.45 3.46 3.46 0 0 1 3.46 3.45M587.85 328.55a3.46 3.46 0 1 1-3.46-3.45 3.46 3.46 0 0 1 3.46 3.45M633.94 328.55a3.46 3.46 0 1 1-3.46-3.45 3.46 3.46 0 0 1 3.46 3.45M680 328.55a3.46 3.46 0 1 1-3.46-3.45 3.46 3.46 0 0 1 3.46 3.45M219.07 328.55a3.46 3.46 0 1 1-3.46-3.45 3.46 3.46 0 0 1 3.46 3.45M149.92 316.32a3.46 3.46 0 1 1-3.45-3.46 3.45 3.45 0 0 1 3.45 3.46M196 316.32a3.46 3.46 0 1 1-3.46-3.46 3.46 3.46 0 0 1 3.46 3.46M288.21 316.32a3.46 3.46 0 1 1-3.45-3.46 3.45 3.45 0 0 1 3.45 3.46M518.7 316.32a3.46 3.46 0 1 1-3.46-3.46 3.46 3.46 0 0 1 3.46 3.46M564.8 316.32a3.46 3.46 0 1 1-3.46-3.46 3.46 3.46 0 0 1 3.46 3.46M610.89 316.32a3.46 3.46 0 1 1-3.45-3.46 3.45 3.45 0 0 1 3.45 3.46M657 316.32a3.46 3.46 0 1 1-3.46-3.46 3.46 3.46 0 0 1 3.46 3.46M242.12 316.32a3.46 3.46 0 1 1-3.46-3.46 3.46 3.46 0 0 1 3.46 3.46M126.88 353a3.46 3.46 0 1 1-3.46-3.46 3.46 3.46 0 0 1 3.46 3.46M173 353a3.46 3.46 0 1 1-3.45-3.46A3.45 3.45 0 0 1 173 353M265.17 353a3.46 3.46 0 1 1-3.46-3.46 3.46 3.46 0 0 1 3.46 3.46M311.26 353a3.46 3.46 0 1 1-3.45-3.46 3.45 3.45 0 0 1 3.45 3.46M357.36 353a3.46 3.46 0 1 1-3.46-3.46 3.46 3.46 0 0 1 3.46 3.46M449.55 353a3.46 3.46 0 1 1-3.45-3.46 3.45 3.45 0 0 1 3.45 3.46M495.65 353a3.46 3.46 0 1 1-3.46-3.46 3.46 3.46 0 0 1 3.46 3.46M541.75 353a3.46 3.46 0 1 1-3.46-3.46 3.46 3.46 0 0 1 3.46 3.46M587.85 353a3.46 3.46 0 1 1-3.46-3.46 3.46 3.46 0 0 1 3.46 3.46M633.94 353a3.46 3.46 0 1 1-3.46-3.46 3.46 3.46 0 0 1 3.46 3.46M680 353a3.46 3.46 0 1 1-3.46-3.46A3.46 3.46 0 0 1 680 353M219.07 353a3.46 3.46 0 1 1-3.46-3.46 3.46 3.46 0 0 1 3.46 3.46M149.92 340.79a3.46 3.46 0 1 1-3.45-3.46 3.44 3.44 0 0 1 3.45 3.46M196 340.79a3.46 3.46 0 1 1-3.46-3.46 3.45 3.45 0 0 1 3.46 3.46M288.21 340.79a3.46 3.46 0 1 1-3.45-3.46 3.44 3.44 0 0 1 3.45 3.46M334.31 340.79a3.46 3.46 0 1 1-3.45-3.46 3.45 3.45 0 0 1 3.45 3.46M472.6 340.79a3.46 3.46 0 1 1-3.45-3.46 3.44 3.44 0 0 1 3.45 3.46M518.7 340.79a3.46 3.46 0 1 1-3.46-3.46 3.45 3.45 0 0 1 3.46 3.46M564.8 340.79a3.46 3.46 0 1 1-3.46-3.46 3.45 3.45 0 0 1 3.46 3.46M610.89 340.79a3.46 3.46 0 1 1-3.45-3.46 3.44 3.44 0 0 1 3.45 3.46M657 340.79a3.46 3.46 0 1 1-3.46-3.46 3.45 3.45 0 0 1 3.46 3.46M242.12 340.79a3.46 3.46 0 1 1-3.46-3.46 3.45 3.45 0 0 1 3.46 3.46M149.92 365.7a3.46 3.46 0 1 1-3.45-3.46 3.44 3.44 0 0 1 3.45 3.46M196 365.7a3.46 3.46 0 1 1-3.46-3.46 3.45 3.45 0 0 1 3.46 3.46M288.21 365.7a3.46 3.46 0 1 1-3.45-3.46 3.44 3.44 0 0 1 3.45 3.46M334.31 365.7a3.46 3.46 0 1 1-3.45-3.46 3.45 3.45 0 0 1 3.45 3.46M380.41 365.7a3.46 3.46 0 1 1-3.46-3.46 3.45 3.45 0 0 1 3.46 3.46M426.51 365.7a3.46 3.46 0 1 1-3.46-3.46 3.45 3.45 0 0 1 3.46 3.46M472.6 365.7a3.46 3.46 0 1 1-3.45-3.46 3.44 3.44 0 0 1 3.45 3.46M518.7 365.7a3.46 3.46 0 1 1-3.46-3.46 3.45 3.45 0 0 1 3.46 3.46M564.8 365.7a3.46 3.46 0 1 1-3.46-3.46 3.45 3.45 0 0 1 3.46 3.46M610.89 365.7a3.46 3.46 0 1 1-3.45-3.46 3.44 3.44 0 0 1 3.45 3.46M657 365.7a3.46 3.46 0 1 1-3.46-3.46 3.45 3.45 0 0 1 3.46 3.46M242.12 365.7a3.46 3.46 0 1 1-3.46-3.46 3.45 3.45 0 0 1 3.46 3.46M126.88 304.08a3.46 3.46 0 1 1-3.46-3.45 3.46 3.46 0 0 1 3.46 3.45M173 304.08a3.46 3.46 0 1 1-3.45-3.45 3.45 3.45 0 0 1 3.45 3.45M265.17 304.08a3.46 3.46 0 1 1-3.46-3.45 3.46 3.46 0 0 1 3.46 3.45M541.75 304.08a3.46 3.46 0 1 1-3.46-3.45 3.46 3.46 0 0 1 3.46 3.45M587.85 304.08a3.46 3.46 0 1 1-3.46-3.45 3.46 3.46 0 0 1 3.46 3.45M633.94 304.08a3.46 3.46 0 1 1-3.46-3.45 3.46 3.46 0 0 1 3.46 3.45M680 304.08a3.46 3.46 0 1 1-3.46-3.45 3.46 3.46 0 0 1 3.46 3.45M219.07 304.08a3.46 3.46 0 1 1-3.46-3.45 3.46 3.46 0 0 1 3.46 3.45M149.92 291.85a3.46 3.46 0 1 1-3.45-3.46 3.45 3.45 0 0 1 3.45 3.46M196 291.85a3.46 3.46 0 1 1-3.46-3.46 3.46 3.46 0 0 1 3.46 3.46M564.8 291.85a3.46 3.46 0 1 1-3.46-3.46 3.46 3.46 0 0 1 3.46 3.46M610.89 291.85a3.46 3.46 0 1 1-3.45-3.46 3.45 3.45 0 0 1 3.45 3.46M657 291.85a3.46 3.46 0 1 1-3.46-3.46 3.46 3.46 0 0 1 3.46 3.46M242.12 291.85a3.46 3.46 0 1 1-3.46-3.46 3.46 3.46 0 0 1 3.46 3.46M126.88 230.68a3.46 3.46 0 1 1-3.46-3.45 3.46 3.46 0 0 1 3.46 3.45M173 230.68a3.46 3.46 0 1 1-3.45-3.45 3.45 3.45 0 0 1 3.45 3.45M265.17 230.68a3.46 3.46 0 1 1-3.46-3.45 3.46 3.46 0 0 1 3.46 3.45M449.55 230.68a3.46 3.46 0 1 1-3.45-3.45 3.45 3.45 0 0 1 3.45 3.45M495.65 230.68a3.46 3.46 0 1 1-3.46-3.45 3.46 3.46 0 0 1 3.46 3.45M541.75 230.68a3.46 3.46 0 1 1-3.46-3.45 3.46 3.46 0 0 1 3.46 3.45M587.85 230.68a3.46 3.46 0 1 1-3.46-3.45 3.46 3.46 0 0 1 3.46 3.45M633.94 230.68a3.46 3.46 0 1 1-3.46-3.45 3.46 3.46 0 0 1 3.46 3.45M680 230.68a3.46 3.46 0 1 1-3.46-3.45 3.46 3.46 0 0 1 3.46 3.45M219.07 230.68a3.46 3.46 0 1 1-3.46-3.45 3.46 3.46 0 0 1 3.46 3.45M126.88 255.15a3.46 3.46 0 1 1-3.46-3.46 3.46 3.46 0 0 1 3.46 3.46M173 255.15a3.46 3.46 0 1 1-3.45-3.46 3.45 3.45 0 0 1 3.45 3.46M265.17 255.15a3.46 3.46 0 1 1-3.46-3.46 3.46 3.46 0 0 1 3.46 3.46M357.36 255.15a3.46 3.46 0 1 1-3.46-3.46 3.46 3.46 0 0 1 3.46 3.46M449.55 255.15a3.46 3.46 0 1 1-3.45-3.46 3.45 3.45 0 0 1 3.45 3.46M541.75 255.15a3.46 3.46 0 1 1-3.46-3.46 3.46 3.46 0 0 1 3.46 3.46M587.85 255.15a3.46 3.46 0 1 1-3.46-3.46 3.46 3.46 0 0 1 3.46 3.46M633.94 255.15a3.46 3.46 0 1 1-3.46-3.46 3.46 3.46 0 0 1 3.46 3.46M680 255.15a3.46 3.46 0 1 1-3.46-3.46 3.46 3.46 0 0 1 3.46 3.46M219.07 255.15a3.46 3.46 0 1 1-3.46-3.46 3.46 3.46 0 0 1 3.46 3.46M149.92 218.45a3.46 3.46 0 1 1-3.45-3.46 3.45 3.45 0 0 1 3.45 3.46M196 218.45a3.46 3.46 0 1 1-3.46-3.46 3.46 3.46 0 0 1 3.46 3.46M472.6 218.45a3.46 3.46 0 1 1-3.45-3.46 3.45 3.45 0 0 1 3.45 3.46M518.7 218.45a3.46 3.46 0 1 1-3.46-3.46 3.46 3.46 0 0 1 3.46 3.46M564.8 218.45a3.46 3.46 0 1 1-3.46-3.46 3.46 3.46 0 0 1 3.46 3.46M610.89 218.45a3.46 3.46 0 1 1-3.45-3.46 3.45 3.45 0 0 1 3.45 3.46M657 218.45a3.46 3.46 0 1 1-3.46-3.46 3.46 3.46 0 0 1 3.46 3.46M242.12 218.45a3.46 3.46 0 1 1-3.46-3.46 3.46 3.46 0 0 1 3.46 3.46M126.88 206.21a3.46 3.46 0 1 1-3.46-3.45 3.46 3.46 0 0 1 3.46 3.45M173 206.21a3.46 3.46 0 1 1-3.45-3.45 3.45 3.45 0 0 1 3.45 3.45M265.17 206.21a3.46 3.46 0 1 1-3.46-3.45 3.46 3.46 0 0 1 3.46 3.45M449.55 206.21a3.46 3.46 0 1 1-3.45-3.45 3.45 3.45 0 0 1 3.45 3.45M541.75 206.21a3.46 3.46 0 1 1-3.46-3.45 3.46 3.46 0 0 1 3.46 3.45M587.85 206.21a3.46 3.46 0 1 1-3.46-3.45 3.46 3.46 0 0 1 3.46 3.45M633.94 206.21a3.46 3.46 0 1 1-3.46-3.45 3.46 3.46 0 0 1 3.46 3.45M680 206.21a3.46 3.46 0 1 1-3.46-3.45 3.46 3.46 0 0 1 3.46 3.45M219.07 206.21a3.46 3.46 0 1 1-3.46-3.45 3.46 3.46 0 0 1 3.46 3.45M149.92 194a3.46 3.46 0 1 1-3.45-3.46 3.45 3.45 0 0 1 3.45 3.46M196 194a3.46 3.46 0 1 1-3.46-3.46A3.46 3.46 0 0 1 196 194M426.51 194a3.46 3.46 0 1 1-3.46-3.46 3.46 3.46 0 0 1 3.46 3.46M564.8 194a3.46 3.46 0 1 1-3.46-3.46 3.46 3.46 0 0 1 3.46 3.46M610.89 194a3.46 3.46 0 1 1-3.45-3.46 3.45 3.45 0 0 1 3.45 3.46M657 194a3.46 3.46 0 1 1-3.46-3.46A3.46 3.46 0 0 1 657 194M242.12 194a3.46 3.46 0 1 1-3.46-3.46 3.46 3.46 0 0 1 3.46 3.46M149.92 267.38a3.46 3.46 0 1 1-3.45-3.45 3.45 3.45 0 0 1 3.45 3.45M196 267.38a3.46 3.46 0 1 1-3.46-3.45 3.46 3.46 0 0 1 3.46 3.45M564.8 267.38a3.46 3.46 0 1 1-3.46-3.45 3.46 3.46 0 0 1 3.46 3.45M610.89 267.38a3.46 3.46 0 1 1-3.45-3.45 3.45 3.45 0 0 1 3.45 3.45M657 267.38a3.46 3.46 0 1 1-3.46-3.45 3.46 3.46 0 0 1 3.46 3.45M242.12 267.38a3.46 3.46 0 1 1-3.46-3.45 3.46 3.46 0 0 1 3.46 3.45M149.92 242.92a3.46 3.46 0 1 1-3.45-3.46 3.44 3.44 0 0 1 3.45 3.46M196 242.92a3.46 3.46 0 1 1-3.46-3.46 3.45 3.45 0 0 1 3.46 3.46M334.31 242.92a3.46 3.46 0 1 1-3.45-3.46 3.45 3.45 0 0 1 3.45 3.46M472.6 242.92a3.46 3.46 0 1 1-3.45-3.46 3.44 3.44 0 0 1 3.45 3.46M518.7 242.92a3.46 3.46 0 1 1-3.46-3.46 3.45 3.45 0 0 1 3.46 3.46M564.8 242.92a3.46 3.46 0 1 1-3.46-3.46 3.45 3.45 0 0 1 3.46 3.46M610.89 242.92a3.46 3.46 0 1 1-3.45-3.46 3.44 3.44 0 0 1 3.45 3.46M657 242.92a3.46 3.46 0 1 1-3.46-3.46 3.45 3.45 0 0 1 3.46 3.46M726.14 83.88a3.46 3.46 0 1 1-3.46-3.46 3.45 3.45 0 0 1 3.46 3.46M726.14 132.81a3.46 3.46 0 1 1-3.46-3.46 3.46 3.46 0 0 1 3.46 3.46M703.09 120.58a3.46 3.46 0 1 1-3.46-3.46 3.46 3.46 0 0 1 3.46 3.46M749.18 120.58a3.46 3.46 0 1 1-3.45-3.46 3.45 3.45 0 0 1 3.45 3.46M726.14 108.34a3.46 3.46 0 1 1-3.46-3.45 3.46 3.46 0 0 1 3.46 3.45M703.09 96.11a3.46 3.46 0 1 1-3.46-3.46 3.46 3.46 0 0 1 3.46 3.46M749.18 96.11a3.46 3.46 0 1 1-3.45-3.46 3.45 3.45 0 0 1 3.45 3.46M726.14 181.75a3.46 3.46 0 1 1-3.46-3.46 3.45 3.45 0 0 1 3.46 3.46M703.09 169.51a3.46 3.46 0 1 1-3.46-3.45 3.46 3.46 0 0 1 3.46 3.45M749.18 169.51a3.46 3.46 0 1 1-3.45-3.45 3.45 3.45 0 0 1 3.45 3.45M726.14 157.28a3.46 3.46 0 1 1-3.46-3.46 3.46 3.46 0 0 1 3.46 3.46M703.09 145.05a3.46 3.46 0 1 1-3.46-3.46 3.45 3.45 0 0 1 3.46 3.46M749.18 145.05a3.46 3.46 0 1 1-3.45-3.46 3.44 3.44 0 0 1 3.45 3.46M726.14 279.62a3.46 3.46 0 1 1-3.46-3.46 3.45 3.45 0 0 1 3.46 3.46M726.14 328.55a3.46 3.46 0 1 1-3.46-3.45 3.46 3.46 0 0 1 3.46 3.45M703.09 316.32a3.46 3.46 0 1 1-3.46-3.46 3.46 3.46 0 0 1 3.46 3.46M749.18 316.32a3.46 3.46 0 1 1-3.45-3.46 3.45 3.45 0 0 1 3.45 3.46M726.14 353a3.46 3.46 0 1 1-3.46-3.46 3.46 3.46 0 0 1 3.46 3.46M703.09 340.79a3.46 3.46 0 1 1-3.46-3.46 3.45 3.45 0 0 1 3.46 3.46M749.18 340.79a3.46 3.46 0 1 1-3.45-3.46 3.44 3.44 0 0 1 3.45 3.46M703.09 365.7a3.46 3.46 0 1 1-3.46-3.46 3.45 3.45 0 0 1 3.46 3.46M749.18 365.7a3.46 3.46 0 1 1-3.45-3.46 3.44 3.44 0 0 1 3.45 3.46M726.14 304.08a3.46 3.46 0 1 1-3.46-3.45 3.46 3.46 0 0 1 3.46 3.45M703.09 291.85a3.46 3.46 0 1 1-3.46-3.46 3.46 3.46 0 0 1 3.46 3.46M749.18 291.85a3.46 3.46 0 1 1-3.45-3.46 3.45 3.45 0 0 1 3.45 3.46M541.75 402.18a3.46 3.46 0 1 1-3.46-3.46 3.45 3.45 0 0 1 3.46 3.46M587.85 402.18a3.46 3.46 0 1 1-3.46-3.46 3.45 3.45 0 0 1 3.46 3.46M633.94 402.18a3.46 3.46 0 1 1-3.46-3.46 3.45 3.45 0 0 1 3.46 3.46M680 402.18a3.46 3.46 0 1 1-3.46-3.46 3.45 3.45 0 0 1 3.46 3.46M564.8 389.94a3.46 3.46 0 1 1-3.46-3.45 3.46 3.46 0 0 1 3.46 3.45M610.89 389.94a3.46 3.46 0 1 1-3.45-3.45 3.45 3.45 0 0 1 3.45 3.45M657 389.94a3.46 3.46 0 1 1-3.46-3.45 3.46 3.46 0 0 1 3.46 3.45M541.75 426.64a3.46 3.46 0 1 1-3.46-3.45 3.46 3.46 0 0 1 3.46 3.45M587.85 426.64a3.46 3.46 0 1 1-3.46-3.45 3.46 3.46 0 0 1 3.46 3.45M633.94 426.64a3.46 3.46 0 1 1-3.46-3.45 3.46 3.46 0 0 1 3.46 3.45M680 426.64a3.46 3.46 0 1 1-3.46-3.45 3.46 3.46 0 0 1 3.46 3.45M564.8 414.41a3.46 3.46 0 1 1-3.46-3.46 3.46 3.46 0 0 1 3.46 3.46M610.89 414.41a3.46 3.46 0 1 1-3.45-3.46 3.45 3.45 0 0 1 3.45 3.46M657 414.41a3.46 3.46 0 1 1-3.46-3.46 3.46 3.46 0 0 1 3.46 3.46M564.8 439.32a3.46 3.46 0 1 1-3.46-3.46 3.46 3.46 0 0 1 3.46 3.46M610.89 439.32a3.46 3.46 0 1 1-3.45-3.46 3.45 3.45 0 0 1 3.45 3.46M657 439.32a3.46 3.46 0 1 1-3.46-3.46 3.46 3.46 0 0 1 3.46 3.46M541.75 377.71a3.46 3.46 0 1 1-3.46-3.46 3.46 3.46 0 0 1 3.46 3.46M587.85 377.71a3.46 3.46 0 1 1-3.46-3.46 3.46 3.46 0 0 1 3.46 3.46M633.94 377.71a3.46 3.46 0 1 1-3.46-3.46 3.46 3.46 0 0 1 3.46 3.46M680 377.71a3.46 3.46 0 1 1-3.46-3.46 3.46 3.46 0 0 1 3.46 3.46M403.46 402.18a3.46 3.46 0 1 1-3.46-3.46 3.45 3.45 0 0 1 3.46 3.46M449.55 402.18a3.46 3.46 0 1 1-3.45-3.46 3.44 3.44 0 0 1 3.45 3.46M495.65 402.18a3.46 3.46 0 1 1-3.46-3.46 3.45 3.45 0 0 1 3.46 3.46M426.51 389.94a3.46 3.46 0 1 1-3.46-3.45 3.46 3.46 0 0 1 3.46 3.45M472.6 389.94a3.46 3.46 0 1 1-3.45-3.45 3.45 3.45 0 0 1 3.45 3.45M518.7 389.94a3.46 3.46 0 1 1-3.46-3.45 3.46 3.46 0 0 1 3.46 3.45M403.46 426.64a3.46 3.46 0 1 1-3.46-3.45 3.46 3.46 0 0 1 3.46 3.45M449.55 426.64a3.46 3.46 0 1 1-3.45-3.45 3.45 3.45 0 0 1 3.45 3.45M495.65 426.64a3.46 3.46 0 1 1-3.46-3.45 3.46 3.46 0 0 1 3.46 3.45M426.51 414.41a3.46 3.46 0 1 1-3.46-3.46 3.46 3.46 0 0 1 3.46 3.46M472.6 414.41a3.46 3.46 0 1 1-3.45-3.46 3.45 3.45 0 0 1 3.45 3.46M518.7 414.41a3.46 3.46 0 1 1-3.46-3.46 3.46 3.46 0 0 1 3.46 3.46M426.51 439.32a3.46 3.46 0 1 1-3.46-3.46 3.46 3.46 0 0 1 3.46 3.46M380.41 389.94a3.46 3.46 0 1 1-3.46-3.45 3.46 3.46 0 0 1 3.46 3.45M380.41 414.41A3.46 3.46 0 1 1 377 411a3.46 3.46 0 0 1 3.46 3.46M380.41 439.32a3.46 3.46 0 1 1-3.46-3.46 3.46 3.46 0 0 1 3.46 3.46M472.6 439.32a3.46 3.46 0 1 1-3.45-3.46 3.45 3.45 0 0 1 3.45 3.46M518.7 439.32a3.46 3.46 0 1 1-3.46-3.46 3.46 3.46 0 0 1 3.46 3.46M403.46 377.71a3.46 3.46 0 1 1-3.46-3.46 3.46 3.46 0 0 1 3.46 3.46M449.55 377.71a3.46 3.46 0 1 1-3.45-3.46 3.45 3.45 0 0 1 3.45 3.46M311.26 402.18a3.46 3.46 0 1 1-3.45-3.46 3.44 3.44 0 0 1 3.45 3.46M357.36 402.18a3.46 3.46 0 1 1-3.46-3.46 3.45 3.45 0 0 1 3.46 3.46M334.31 389.94a3.46 3.46 0 1 1-3.45-3.45 3.46 3.46 0 0 1 3.45 3.45M311.26 426.64a3.46 3.46 0 1 1-3.45-3.45 3.45 3.45 0 0 1 3.45 3.45M357.36 426.64a3.46 3.46 0 1 1-3.46-3.45 3.46 3.46 0 0 1 3.46 3.45M334.31 414.41a3.46 3.46 0 1 1-3.45-3.46 3.46 3.46 0 0 1 3.45 3.46M334.31 439.32a3.46 3.46 0 1 1-3.45-3.46 3.46 3.46 0 0 1 3.45 3.46M311.26 377.71a3.46 3.46 0 1 1-3.45-3.46 3.45 3.45 0 0 1 3.45 3.46M357.36 377.71a3.46 3.46 0 1 1-3.46-3.46 3.46 3.46 0 0 1 3.46 3.46M495.65 377.71a3.46 3.46 0 1 1-3.46-3.46 3.46 3.46 0 0 1 3.46 3.46M726.14 402.18a3.46 3.46 0 1 1-3.46-3.46 3.45 3.45 0 0 1 3.46 3.46M703.09 389.94a3.46 3.46 0 1 1-3.46-3.45 3.46 3.46 0 0 1 3.46 3.45M749.18 389.94a3.46 3.46 0 1 1-3.45-3.45 3.45 3.45 0 0 1 3.45 3.45M726.14 426.64a3.46 3.46 0 1 1-3.46-3.45 3.46 3.46 0 0 1 3.46 3.45M703.09 414.41a3.46 3.46 0 1 1-3.46-3.46 3.46 3.46 0 0 1 3.46 3.46M749.18 414.41a3.46 3.46 0 1 1-3.45-3.46 3.45 3.45 0 0 1 3.45 3.46M703.09 439.32a3.46 3.46 0 1 1-3.46-3.46 3.46 3.46 0 0 1 3.46 3.46M749.18 439.32a3.46 3.46 0 1 1-3.45-3.46 3.45 3.45 0 0 1 3.45 3.46M726.14 377.71a3.46 3.46 0 1 1-3.46-3.46 3.46 3.46 0 0 1 3.46 3.46M726.14 230.68a3.46 3.46 0 1 1-3.46-3.45 3.46 3.46 0 0 1 3.46 3.45M726.14 255.15a3.46 3.46 0 1 1-3.46-3.46 3.46 3.46 0 0 1 3.46 3.46M703.09 218.45a3.46 3.46 0 1 1-3.46-3.46 3.46 3.46 0 0 1 3.46 3.46M749.18 218.45a3.46 3.46 0 1 1-3.45-3.46 3.45 3.45 0 0 1 3.45 3.46M726.14 206.21a3.46 3.46 0 1 1-3.46-3.45 3.46 3.46 0 0 1 3.46 3.45M703.09 194a3.46 3.46 0 1 1-3.46-3.46 3.46 3.46 0 0 1 3.46 3.46M749.18 194a3.46 3.46 0 1 1-3.45-3.46 3.45 3.45 0 0 1 3.45 3.46M703.09 267.38a3.46 3.46 0 1 1-3.46-3.45 3.46 3.46 0 0 1 3.46 3.45M749.18 267.38a3.46 3.46 0 1 1-3.45-3.45 3.45 3.45 0 0 1 3.45 3.45M703.09 242.92a3.46 3.46 0 1 1-3.46-3.46 3.45 3.45 0 0 1 3.46 3.46M749.18 242.92a3.46 3.46 0 1 1-3.45-3.46 3.44 3.44 0 0 1 3.45 3.46M242.12 242.92a3.46 3.46 0 1 1-3.46-3.46 3.45 3.45 0 0 1 3.46 3.46" fill="#00acb5"/><path d="M126.88 83.88a3.46 3.46 0 1 1-3.46-3.46 3.45 3.45 0 0 1 3.46 3.46M80.78 83.88a3.46 3.46 0 1 1-3.46-3.46 3.45 3.45 0 0 1 3.46 3.46M80.78 132.81a3.46 3.46 0 1 1-3.46-3.46 3.46 3.46 0 0 1 3.46 3.46M57.73 120.58a3.46 3.46 0 1 1-3.46-3.46 3.46 3.46 0 0 1 3.46 3.46M103.83 120.58a3.46 3.46 0 1 1-3.46-3.46 3.46 3.46 0 0 1 3.46 3.46M80.78 108.34a3.46 3.46 0 1 1-3.46-3.45 3.46 3.46 0 0 1 3.46 3.45M57.73 96.11a3.46 3.46 0 1 1-3.46-3.46 3.46 3.46 0 0 1 3.46 3.46M103.83 96.11a3.46 3.46 0 1 1-3.46-3.46 3.46 3.46 0 0 1 3.46 3.46M80.78 181.75a3.46 3.46 0 1 1-3.46-3.46 3.45 3.45 0 0 1 3.46 3.46M57.73 169.51a3.46 3.46 0 1 1-3.46-3.45 3.46 3.46 0 0 1 3.46 3.45M103.83 169.51a3.46 3.46 0 1 1-3.46-3.45 3.46 3.46 0 0 1 3.46 3.45M80.78 157.28a3.46 3.46 0 1 1-3.46-3.46 3.46 3.46 0 0 1 3.46 3.46M57.73 145.05a3.46 3.46 0 1 1-3.46-3.46 3.45 3.45 0 0 1 3.46 3.46M103.83 145.05a3.46 3.46 0 1 1-3.46-3.46 3.45 3.45 0 0 1 3.46 3.46M80.78 279.62a3.46 3.46 0 1 1-3.46-3.46 3.45 3.45 0 0 1 3.46 3.46M80.78 328.55a3.46 3.46 0 1 1-3.46-3.45 3.46 3.46 0 0 1 3.46 3.45M57.73 316.32a3.46 3.46 0 1 1-3.46-3.46 3.46 3.46 0 0 1 3.46 3.46M103.83 316.32a3.46 3.46 0 1 1-3.46-3.46 3.46 3.46 0 0 1 3.46 3.46M80.78 353a3.46 3.46 0 1 1-3.46-3.46 3.46 3.46 0 0 1 3.46 3.46M57.73 340.79a3.46 3.46 0 1 1-3.46-3.46 3.45 3.45 0 0 1 3.46 3.46M103.83 340.79a3.46 3.46 0 1 1-3.46-3.46 3.45 3.45 0 0 1 3.46 3.46M57.73 365.7a3.46 3.46 0 1 1-3.46-3.46 3.45 3.45 0 0 1 3.46 3.46M103.83 365.7a3.46 3.46 0 1 1-3.46-3.46 3.45 3.45 0 0 1 3.46 3.46M80.78 304.08a3.46 3.46 0 1 1-3.46-3.45 3.46 3.46 0 0 1 3.46 3.45M57.73 291.85a3.46 3.46 0 1 1-3.46-3.46 3.46 3.46 0 0 1 3.46 3.46M126.88 402.4a3.46 3.46 0 1 1-3.46-3.46 3.46 3.46 0 0 1 3.46 3.46M173 402.4a3.46 3.46 0 1 1-3.45-3.46 3.45 3.45 0 0 1 3.45 3.46M265.17 402.4a3.46 3.46 0 1 1-3.46-3.46 3.46 3.46 0 0 1 3.46 3.46M219.07 402.4a3.46 3.46 0 1 1-3.46-3.46 3.46 3.46 0 0 1 3.46 3.46M149.92 390.16a3.46 3.46 0 1 1-3.45-3.45 3.45 3.45 0 0 1 3.45 3.45M196 390.16a3.46 3.46 0 1 1-3.46-3.45 3.46 3.46 0 0 1 3.46 3.45M288.21 390.16a3.46 3.46 0 1 1-3.45-3.45 3.45 3.45 0 0 1 3.45 3.45M242.12 390.16a3.46 3.46 0 1 1-3.46-3.45 3.46 3.46 0 0 1 3.46 3.45M126.88 426.87a3.46 3.46 0 1 1-3.46-3.46 3.45 3.45 0 0 1 3.46 3.46M173 426.87a3.46 3.46 0 1 1-3.45-3.46 3.44 3.44 0 0 1 3.45 3.46M265.17 426.87a3.46 3.46 0 1 1-3.46-3.46 3.45 3.45 0 0 1 3.46 3.46M219.07 426.87a3.46 3.46 0 1 1-3.46-3.46 3.45 3.45 0 0 1 3.46 3.46M149.92 414.63a3.46 3.46 0 1 1-3.45-3.45 3.45 3.45 0 0 1 3.45 3.45M196 414.63a3.46 3.46 0 1 1-3.46-3.45 3.46 3.46 0 0 1 3.46 3.45M288.21 414.63a3.46 3.46 0 1 1-3.45-3.45 3.45 3.45 0 0 1 3.45 3.45M242.12 414.63a3.46 3.46 0 1 1-3.46-3.45 3.46 3.46 0 0 1 3.46 3.45M149.92 439.54a3.46 3.46 0 1 1-3.45-3.45 3.45 3.45 0 0 1 3.45 3.45M196 439.54a3.46 3.46 0 1 1-3.46-3.45 3.46 3.46 0 0 1 3.46 3.45M288.21 439.54a3.46 3.46 0 1 1-3.45-3.45 3.45 3.45 0 0 1 3.45 3.45M242.12 439.54a3.46 3.46 0 1 1-3.46-3.45 3.46 3.46 0 0 1 3.46 3.45M126.88 377.93a3.46 3.46 0 1 1-3.46-3.46 3.46 3.46 0 0 1 3.46 3.46M173 377.93a3.46 3.46 0 1 1-3.45-3.46 3.45 3.45 0 0 1 3.45 3.46M265.17 377.93a3.46 3.46 0 1 1-3.46-3.46 3.46 3.46 0 0 1 3.46 3.46M219.07 377.93a3.46 3.46 0 1 1-3.46-3.46 3.46 3.46 0 0 1 3.46 3.46M80.78 402.4a3.46 3.46 0 1 1-3.46-3.46 3.46 3.46 0 0 1 3.46 3.46M57.73 390.16a3.46 3.46 0 1 1-3.46-3.45 3.46 3.46 0 0 1 3.46 3.45M103.83 390.16a3.46 3.46 0 1 1-3.46-3.45 3.46 3.46 0 0 1 3.46 3.45M80.78 426.87a3.46 3.46 0 1 1-3.46-3.46 3.45 3.45 0 0 1 3.46 3.46M57.73 414.63a3.46 3.46 0 1 1-3.46-3.45 3.46 3.46 0 0 1 3.46 3.45M103.83 414.63a3.46 3.46 0 1 1-3.46-3.45 3.46 3.46 0 0 1 3.46 3.45M57.73 439.54a3.46 3.46 0 1 1-3.46-3.45 3.46 3.46 0 0 1 3.46 3.45M103.83 439.54a3.46 3.46 0 1 1-3.46-3.45 3.46 3.46 0 0 1 3.46 3.45M80.78 377.93a3.46 3.46 0 1 1-3.46-3.46 3.46 3.46 0 0 1 3.46 3.46M149.92 22.69a3.46 3.46 0 1 1-3.45-3.46 3.45 3.45 0 0 1 3.45 3.46M196 22.69a3.46 3.46 0 1 1-3.46-3.46 3.46 3.46 0 0 1 3.46 3.46M288.21 22.69a3.46 3.46 0 1 1-3.45-3.46 3.45 3.45 0 0 1 3.45 3.46M334.31 22.69a3.46 3.46 0 1 1-3.45-3.46 3.46 3.46 0 0 1 3.45 3.46M380.41 22.69a3.46 3.46 0 1 1-3.41-3.46 3.46 3.46 0 0 1 3.46 3.46M426.51 22.69a3.46 3.46 0 1 1-3.46-3.46 3.46 3.46 0 0 1 3.46 3.46M472.6 22.69a3.46 3.46 0 1 1-3.45-3.46 3.45 3.45 0 0 1 3.45 3.46M518.7 22.69a3.46 3.46 0 1 1-3.46-3.46 3.46 3.46 0 0 1 3.46 3.46M564.8 22.69a3.46 3.46 0 1 1-3.46-3.46 3.46 3.46 0 0 1 3.46 3.46M610.89 22.69a3.46 3.46 0 1 1-3.45-3.46 3.45 3.45 0 0 1 3.45 3.46M657 22.69a3.46 3.46 0 1 1-3.46-3.46 3.46 3.46 0 0 1 3.46 3.46M242.12 22.69a3.46 3.46 0 1 1-3.46-3.46 3.46 3.46 0 0 1 3.46 3.46M703.09 22.69a3.46 3.46 0 1 1-3.46-3.46 3.46 3.46 0 0 1 3.46 3.46M749.18 22.69a3.46 3.46 0 1 1-3.45-3.46 3.45 3.45 0 0 1 3.45 3.46M541.75 59.17a3.46 3.46 0 1 1-3.46-3.46 3.46 3.46 0 0 1 3.46 3.46M587.85 59.17a3.46 3.46 0 1 1-3.46-3.46 3.46 3.46 0 0 1 3.46 3.46M633.94 59.17a3.46 3.46 0 1 1-3.46-3.46 3.46 3.46 0 0 1 3.46 3.46M680 59.17a3.46 3.46 0 1 1-3.46-3.46 3.46 3.46 0 0 1 3.46 3.46M564.8 46.94a3.46 3.46 0 1 1-3.46-3.46 3.45 3.45 0 0 1 3.46 3.46M610.89 46.94a3.46 3.46 0 1 1-3.45-3.46 3.44 3.44 0 0 1 3.45 3.46M657 46.94a3.46 3.46 0 1 1-3.46-3.46 3.45 3.45 0 0 1 3.46 3.46M564.8 71.4a3.46 3.46 0 1 1-3.46-3.4 3.46 3.46 0 0 1 3.46 3.45M610.89 71.4a3.46 3.46 0 1 1-3.45-3.4 3.45 3.45 0 0 1 3.45 3.45M657 71.4a3.46 3.46 0 1 1-3.47-3.4 3.46 3.46 0 0 1 3.47 3.4M541.75 34.7a3.46 3.46 0 1 1-3.46-3.45 3.46 3.46 0 0 1 3.46 3.45M587.85 34.7a3.46 3.46 0 1 1-3.46-3.45 3.46 3.46 0 0 1 3.46 3.45M633.94 34.7a3.46 3.46 0 1 1-3.46-3.45 3.46 3.46 0 0 1 3.46 3.45M680 34.7a3.46 3.46 0 1 1-3.46-3.45A3.46 3.46 0 0 1 680 34.7M403.46 59.17a3.46 3.46 0 1 1-3.46-3.46 3.46 3.46 0 0 1 3.46 3.46M449.55 59.17a3.46 3.46 0 1 1-3.45-3.46 3.45 3.45 0 0 1 3.45 3.46M495.65 59.17a3.46 3.46 0 1 1-3.46-3.46 3.46 3.46 0 0 1 3.46 3.46M426.51 46.94a3.46 3.46 0 1 1-3.46-3.46 3.45 3.45 0 0 1 3.46 3.46M472.6 46.94a3.46 3.46 0 1 1-3.45-3.46 3.44 3.44 0 0 1 3.45 3.46M518.7 46.94a3.46 3.46 0 1 1-3.46-3.46 3.45 3.45 0 0 1 3.46 3.46M426.51 71.4a3.46 3.46 0 1 1-3.46-3.4 3.46 3.46 0 0 1 3.46 3.45M472.6 71.4a3.46 3.46 0 1 1-3.45-3.4 3.45 3.45 0 0 1 3.45 3.45M518.7 71.4a3.46 3.46 0 1 1-3.46-3.4 3.46 3.46 0 0 1 3.46 3.45M380.41 46.94a3.46 3.46 0 1 1-3.41-3.46 3.45 3.45 0 0 1 3.46 3.46M380.41 71.4A3.46 3.46 0 1 1 377 68a3.46 3.46 0 0 1 3.46 3.45M403.46 34.7a3.46 3.46 0 1 1-3.46-3.45 3.46 3.46 0 0 1 3.46 3.45M449.55 34.7a3.46 3.46 0 1 1-3.45-3.45 3.45 3.45 0 0 1 3.45 3.45M311.26 59.17a3.46 3.46 0 1 1-3.45-3.46 3.45 3.45 0 0 1 3.45 3.46M357.36 59.17a3.46 3.46 0 1 1-3.46-3.46 3.46 3.46 0 0 1 3.46 3.46M334.31 46.94a3.46 3.46 0 1 1-3.45-3.46 3.45 3.45 0 0 1 3.45 3.46M334.31 71.4a3.46 3.46 0 1 1-3.45-3.4 3.46 3.46 0 0 1 3.45 3.45M311.26 34.7a3.46 3.46 0 1 1-3.45-3.45 3.45 3.45 0 0 1 3.45 3.45M357.36 34.7a3.46 3.46 0 1 1-3.46-3.45 3.46 3.46 0 0 1 3.46 3.45M495.65 34.7a3.46 3.46 0 1 1-3.46-3.45 3.46 3.46 0 0 1 3.46 3.45M726.14 59.17a3.46 3.46 0 1 1-3.46-3.46 3.46 3.46 0 0 1 3.46 3.46M703.09 46.94a3.46 3.46 0 1 1-3.46-3.46 3.45 3.45 0 0 1 3.46 3.46M749.18 46.94a3.46 3.46 0 1 1-3.45-3.46 3.44 3.44 0 0 1 3.45 3.46M703.09 71.4a3.46 3.46 0 1 1-3.46-3.4 3.46 3.46 0 0 1 3.46 3.45M749.18 71.4a3.46 3.46 0 1 1-3.45-3.4 3.45 3.45 0 0 1 3.45 3.45M726.14 34.7a3.46 3.46 0 1 1-3.46-3.45 3.46 3.46 0 0 1 3.46 3.45M57.73 22.69a3.46 3.46 0 1 1-3.46-3.46 3.46 3.46 0 0 1 3.46 3.46M103.83 22.69a3.46 3.46 0 1 1-3.46-3.46 3.46 3.46 0 0 1 3.46 3.46M126.88 59.39a3.46 3.46 0 1 1-3.46-3.45 3.46 3.46 0 0 1 3.46 3.45M173 59.39a3.46 3.46 0 1 1-3.45-3.45 3.45 3.45 0 0 1 3.45 3.45M265.17 59.39a3.46 3.46 0 1 1-3.46-3.45 3.46 3.46 0 0 1 3.46 3.45M219.07 59.39a3.46 3.46 0 1 1-3.46-3.45 3.46 3.46 0 0 1 3.46 3.45M149.92 47.16a3.46 3.46 0 1 1-3.45-3.46 3.45 3.45 0 0 1 3.45 3.46M196 47.16a3.46 3.46 0 1 1-3.46-3.46 3.46 3.46 0 0 1 3.46 3.46M288.21 47.16a3.46 3.46 0 1 1-3.45-3.46 3.45 3.45 0 0 1 3.45 3.46M242.12 47.16a3.46 3.46 0 1 1-3.46-3.46 3.46 3.46 0 0 1 3.46 3.46M149.92 71.63a3.46 3.46 0 1 1-3.45-3.46 3.44 3.44 0 0 1 3.45 3.46M196 71.63a3.46 3.46 0 1 1-3.46-3.46 3.45 3.45 0 0 1 3.46 3.46M288.21 71.63a3.46 3.46 0 1 1-3.45-3.46 3.44 3.44 0 0 1 3.45 3.46M242.12 71.63a3.46 3.46 0 1 1-3.46-3.46 3.45 3.45 0 0 1 3.46 3.46M126.88 34.92a3.46 3.46 0 1 1-3.46-3.45 3.46 3.46 0 0 1 3.46 3.45M173 34.92a3.46 3.46 0 1 1-3.45-3.45 3.45 3.45 0 0 1 3.45 3.45M265.17 34.92a3.46 3.46 0 1 1-3.46-3.45 3.46 3.46 0 0 1 3.46 3.45M219.07 34.92a3.46 3.46 0 1 1-3.46-3.45 3.46 3.46 0 0 1 3.46 3.45M80.78 59.39a3.46 3.46 0 1 1-3.46-3.45 3.46 3.46 0 0 1 3.46 3.45M57.73 47.16a3.46 3.46 0 1 1-3.46-3.46 3.46 3.46 0 0 1 3.46 3.46M103.83 47.16a3.46 3.46 0 1 1-3.46-3.46 3.46 3.46 0 0 1 3.46 3.46M57.73 71.63a3.46 3.46 0 1 1-3.46-3.46 3.45 3.45 0 0 1 3.46 3.46M103.83 71.63a3.46 3.46 0 1 1-3.46-3.46 3.45 3.45 0 0 1 3.46 3.46M80.78 34.92a3.46 3.46 0 1 1-3.46-3.45 3.46 3.46 0 0 1 3.46 3.45M541.75 10.46A3.46 3.46 0 1 1 538.29 7a3.45 3.45 0 0 1 3.46 3.46M587.85 10.46A3.46 3.46 0 1 1 584.39 7a3.45 3.45 0 0 1 3.46 3.46M633.94 10.46A3.46 3.46 0 1 1 630.48 7a3.45 3.45 0 0 1 3.46 3.46M680 10.46A3.46 3.46 0 1 1 676.58 7a3.45 3.45 0 0 1 3.42 3.46M403.46 10.46A3.46 3.46 0 1 1 400 7a3.45 3.45 0 0 1 3.46 3.46M449.55 10.46A3.46 3.46 0 1 1 446.1 7a3.44 3.44 0 0 1 3.45 3.46M311.26 10.46A3.46 3.46 0 1 1 307.81 7a3.44 3.44 0 0 1 3.45 3.46M357.36 10.46A3.46 3.46 0 1 1 353.9 7a3.45 3.45 0 0 1 3.46 3.46M495.65 10.46A3.46 3.46 0 1 1 492.19 7a3.45 3.45 0 0 1 3.46 3.46M726.14 10.46A3.46 3.46 0 1 1 722.68 7a3.45 3.45 0 0 1 3.46 3.46M772.23 83.88a3.46 3.46 0 1 1-3.45-3.46 3.45 3.45 0 0 1 3.45 3.46M772.23 132.81a3.46 3.46 0 1 1-3.45-3.46 3.46 3.46 0 0 1 3.45 3.46M795.28 120.58a3.46 3.46 0 1 1-3.46-3.46 3.46 3.46 0 0 1 3.46 3.46M772.23 108.34a3.46 3.46 0 1 1-3.45-3.45 3.46 3.46 0 0 1 3.45 3.45M795.28 96.11a3.46 3.46 0 1 1-3.46-3.46 3.46 3.46 0 0 1 3.46 3.46M772.23 181.75a3.46 3.46 0 1 1-3.45-3.46 3.45 3.45 0 0 1 3.45 3.46M795.28 169.51a3.46 3.46 0 1 1-3.46-3.45 3.46 3.46 0 0 1 3.46 3.45M772.23 157.28a3.46 3.46 0 1 1-3.45-3.46 3.46 3.46 0 0 1 3.45 3.46M795.28 145.05a3.46 3.46 0 1 1-3.46-3.46 3.45 3.45 0 0 1 3.46 3.46M772.23 279.62a3.46 3.46 0 1 1-3.45-3.46 3.45 3.45 0 0 1 3.45 3.46M772.23 328.55a3.46 3.46 0 1 1-3.45-3.45 3.46 3.46 0 0 1 3.45 3.45M795.28 316.32a3.46 3.46 0 1 1-3.46-3.46 3.46 3.46 0 0 1 3.46 3.46M772.23 353a3.46 3.46 0 1 1-3.45-3.46 3.46 3.46 0 0 1 3.45 3.46M795.28 340.79a3.46 3.46 0 1 1-3.46-3.46 3.45 3.45 0 0 1 3.46 3.46M795.28 365.7a3.46 3.46 0 1 1-3.46-3.46 3.45 3.45 0 0 1 3.46 3.46M772.23 304.08a3.46 3.46 0 1 1-3.45-3.45 3.46 3.46 0 0 1 3.45 3.45M795.28 291.85a3.46 3.46 0 1 1-3.46-3.46 3.46 3.46 0 0 1 3.46 3.46M772.23 402.18a3.46 3.46 0 1 1-3.45-3.46 3.45 3.45 0 0 1 3.45 3.46M795.28 389.94a3.46 3.46 0 1 1-3.46-3.45 3.46 3.46 0 0 1 3.46 3.45M772.23 426.64a3.46 3.46 0 1 1-3.45-3.45 3.46 3.46 0 0 1 3.45 3.45M795.28 414.41a3.46 3.46 0 1 1-3.46-3.46 3.46 3.46 0 0 1 3.46 3.46M795.28 439.32a3.46 3.46 0 1 1-3.46-3.46 3.46 3.46 0 0 1 3.46 3.46M772.23 377.71a3.46 3.46 0 1 1-3.45-3.46 3.46 3.46 0 0 1 3.45 3.46M772.23 230.68a3.46 3.46 0 1 1-3.45-3.45 3.46 3.46 0 0 1 3.45 3.45M772.23 255.15a3.46 3.46 0 1 1-3.45-3.46 3.46 3.46 0 0 1 3.45 3.46M795.28 218.45a3.46 3.46 0 1 1-3.46-3.46 3.46 3.46 0 0 1 3.46 3.46M772.23 206.21a3.46 3.46 0 1 1-3.45-3.45 3.46 3.46 0 0 1 3.45 3.45M795.28 194a3.46 3.46 0 1 1-3.46-3.46 3.46 3.46 0 0 1 3.46 3.46M795.28 267.38a3.46 3.46 0 1 1-3.46-3.45 3.46 3.46 0 0 1 3.46 3.45M795.28 242.92a3.46 3.46 0 1 1-3.46-3.46 3.45 3.45 0 0 1 3.46 3.46M795.28 22.69a3.46 3.46 0 1 1-3.46-3.46 3.46 3.46 0 0 1 3.46 3.46M772.23 59.17a3.46 3.46 0 1 1-3.45-3.46 3.46 3.46 0 0 1 3.45 3.46M795.28 46.94a3.46 3.46 0 1 1-3.46-3.46 3.45 3.45 0 0 1 3.46 3.46M795.28 71.4a3.46 3.46 0 1 1-3.46-3.4 3.46 3.46 0 0 1 3.46 3.45M772.23 34.7a3.46 3.46 0 1 1-3.45-3.45 3.46 3.46 0 0 1 3.45 3.45M772.23 10.46A3.46 3.46 0 1 1 768.78 7a3.45 3.45 0 0 1 3.45 3.46M126.88 10.68a3.46 3.46 0 1 1-3.46-3.46 3.46 3.46 0 0 1 3.46 3.46M173 10.68a3.46 3.46 0 1 1-3.45-3.46 3.45 3.45 0 0 1 3.45 3.46M265.17 10.68a3.46 3.46 0 1 1-3.46-3.46 3.46 3.46 0 0 1 3.46 3.46M219.07 10.68a3.46 3.46 0 1 1-3.46-3.46 3.46 3.46 0 0 1 3.46 3.46M80.78 10.68a3.46 3.46 0 1 1-3.46-3.46 3.46 3.46 0 0 1 3.46 3.46M103.83 291.85a3.46 3.46 0 1 1-3.46-3.46 3.46 3.46 0 0 1 3.46 3.46M80.78 230.68a3.46 3.46 0 1 1-3.46-3.45 3.46 3.46 0 0 1 3.46 3.45M80.78 255.15a3.46 3.46 0 1 1-3.46-3.46 3.46 3.46 0 0 1 3.46 3.46M57.73 218.45a3.46 3.46 0 1 1-3.46-3.45 3.46 3.46 0 0 1 3.46 3.46M103.83 218.45a3.46 3.46 0 1 1-3.46-3.46 3.46 3.46 0 0 1 3.46 3.46M80.78 206.21a3.46 3.46 0 1 1-3.46-3.45 3.46 3.46 0 0 1 3.46 3.45M57.73 194a3.46 3.46 0 1 1-3.46-3.46 3.46 3.46 0 0 1 3.46 3.46M103.83 194a3.46 3.46 0 1 1-3.46-3.46 3.46 3.46 0 0 1 3.46 3.46M57.73 267.38a3.46 3.46 0 1 1-3.46-3.45 3.46 3.46 0 0 1 3.46 3.45M103.83 267.38a3.46 3.46 0 1 1-3.46-3.45 3.46 3.46 0 0 1 3.46 3.45M57.73 242.92a3.46 3.46 0 1 1-3.46-3.46 3.45 3.45 0 0 1 3.46 3.46M34.68 83.88a3.46 3.46 0 1 1-3.46-3.46 3.45 3.45 0 0 1 3.46 3.46M34.68 132.81a3.46 3.46 0 1 1-3.46-3.46 3.46 3.46 0 0 1 3.46 3.46M11.63 120.58a3.46 3.46 0 1 1-3.45-3.46 3.45 3.45 0 0 1 3.45 3.46M34.68 108.34a3.46 3.46 0 1 1-3.46-3.45 3.46 3.46 0 0 1 3.46 3.45M11.63 96.11a3.46 3.46 0 1 1-3.45-3.46 3.45 3.45 0 0 1 3.45 3.46M34.68 181.75a3.46 3.46 0 1 1-3.46-3.46 3.45 3.45 0 0 1 3.46 3.46M11.63 169.51a3.46 3.46 0 1 1-3.45-3.45 3.45 3.45 0 0 1 3.45 3.45M34.68 157.28a3.46 3.46 0 1 1-3.46-3.46 3.46 3.46 0 0 1 3.46 3.46M11.63 145.05a3.46 3.46 0 1 1-3.45-3.46 3.44 3.44 0 0 1 3.45 3.46M34.68 279.62a3.46 3.46 0 1 1-3.46-3.46 3.45 3.45 0 0 1 3.46 3.46M34.68 328.55a3.46 3.46 0 1 1-3.46-3.45 3.46 3.46 0 0 1 3.46 3.45M11.63 316.32a3.46 3.46 0 1 1-3.45-3.46 3.45 3.45 0 0 1 3.45 3.46M34.68 353a3.46 3.46 0 1 1-3.46-3.46 3.46 3.46 0 0 1 3.46 3.46M11.63 340.79a3.46 3.46 0 1 1-3.45-3.46 3.44 3.44 0 0 1 3.45 3.46M11.63 365.7a3.46 3.46 0 1 1-3.45-3.46 3.44 3.44 0 0 1 3.45 3.46M34.68 304.08a3.46 3.46 0 1 1-3.46-3.45 3.46 3.46 0 0 1 3.46 3.45M11.63 291.85a3.46 3.46 0 1 1-3.45-3.46 3.45 3.45 0 0 1 3.45 3.46M34.68 402.4a3.46 3.46 0 1 1-3.46-3.46 3.46 3.46 0 0 1 3.46 3.46M11.63 390.16a3.46 3.46 0 1 1-3.45-3.45 3.45 3.45 0 0 1 3.45 3.45M34.68 426.87a3.46 3.46 0 1 1-3.46-3.46 3.45 3.45 0 0 1 3.46 3.46M11.63 414.63a3.46 3.46 0 1 1-3.45-3.45 3.45 3.45 0 0 1 3.45 3.45M11.63 439.54a3.46 3.46 0 1 1-3.45-3.45 3.45 3.45 0 0 1 3.45 3.45M34.68 377.93a3.46 3.46 0 1 1-3.46-3.46 3.46 3.46 0 0 1 3.46 3.46M11.63 22.69a3.46 3.46 0 1 1-3.45-3.46 3.45 3.45 0 0 1 3.45 3.46M34.68 59.39a3.46 3.46 0 1 1-3.46-3.45 3.46 3.46 0 0 1 3.46 3.45M11.63 47.16a3.46 3.46 0 1 1-3.45-3.46 3.45 3.45 0 0 1 3.45 3.46M11.63 71.63a3.46 3.46 0 1 1-3.45-3.46 3.44 3.44 0 0 1 3.45 3.46M34.68 34.92a3.46 3.46 0 1 1-3.46-3.45 3.46 3.46 0 0 1 3.46 3.45M34.68 10.68a3.46 3.46 0 1 1-3.46-3.46 3.46 3.46 0 0 1 3.46 3.46M34.68 230.68a3.46 3.46 0 1 1-3.46-3.45 3.46 3.46 0 0 1 3.46 3.45M34.68 255.15a3.46 3.46 0 1 1-3.46-3.46 3.46 3.46 0 0 1 3.46 3.46M11.63 218.45A3.46 3.46 0 1 1 8.18 215a3.45 3.45 0 0 1 3.45 3.46M34.68 206.21a3.46 3.46 0 1 1-3.46-3.45 3.46 3.46 0 0 1 3.46 3.45M11.63 194a3.46 3.46 0 1 1-3.45-3.46 3.45 3.45 0 0 1 3.45 3.46M11.63 267.38a3.46 3.46 0 1 1-3.45-3.45 3.45 3.45 0 0 1 3.45 3.45M11.63 242.92a3.46 3.46 0 1 1-3.45-3.46 3.44 3.44 0 0 1 3.45 3.46M103.83 242.92a3.46 3.46 0 1 1-3.46-3.46 3.45 3.45 0 0 1 3.46 3.46" fill="#00acb5"/></svg>
