<svg xmlns="http://www.w3.org/2000/svg" viewBox="0 0 800 450"><path d="M116.54 112.8a5.67 5.67 0 0 1-2.66-10.68l47.25-25.07a5.67 5.67 0 1 1 5.31 10l-47.24 25.09a5.66 5.66 0 0 1-2.66.66" fill="#71d431"/><path d="M211 263.3a5.65 5.65 0 0 1-2.65-.66L161 237.48a5.67 5.67 0 1 1 5.32-10l47.4 25.16A5.67 5.67 0 0 1 211 263.3" fill="#00acb5"/><path d="M211 263.3a5.67 5.67 0 0 1-2.66-10.68l47.24-25.08a5.67 5.67 0 0 1 5.32 10l-47.24 25.08a5.66 5.66 0 0 1-2.66.66" fill="#00789f"/><path d="M281.89 150.41a5.59 5.59 0 0 1-2.65-.66L232 124.68a5.67 5.67 0 1 1 5.32-10l47.24 25.08a5.67 5.67 0 0 1-2.66 10.67" fill="#71d431"/><path d="M636.22 213.11a5.67 5.67 0 0 1-2.66-.67l-47.24-25.07a5.67 5.67 0 0 1 5.31-10l47.25 25.08a5.67 5.67 0 0 1-2.66 10.68" fill="#00bb6e"/><path d="M757 215.08l-118.12-62.69a5.67 5.67 0 1 0-5.32 10l118.11 62.69a5.67 5.67 0 1 0 5.32-10z" fill="#00789f"/><path d="M428.63 393.42a5.67 5.67 0 0 0-7.67-2.35l-70.87 37.61a5.67 5.67 0 0 0 2.66 10.68 5.59 5.59 0 0 0 2.65-.66l70.88-37.62a5.67 5.67 0 0 0 2.35-7.66zM263.28 305.19a5.68 5.68 0 0 0-7.67-2.34L137.5 366a5.67 5.67 0 1 0 5.32 10l118.11-63.14a5.69 5.69 0 0 0 2.35-7.67z" fill="#71d431"/><path d="M140.17 150.41a5.67 5.67 0 0 1-2.67-10.67l47.25-25.08a5.67 5.67 0 0 1 5.31 10l-47.24 25.07a5.65 5.65 0 0 1-2.65.66" fill="#00789f"/><path d="M352.75 363.56a5.65 5.65 0 0 1-2.65-.66l-47.24-25.07a5.67 5.67 0 0 1 5.31-10l47.25 25.08a5.67 5.67 0 0 1-2.67 10.67" fill="#00bb6e"/><path d="M275 406.32a5.67 5.67 0 0 1-2.73-10.64L350 352.93a5.67 5.67 0 1 1 5.46 9.93l-77.73 42.76a5.72 5.72 0 0 1-2.73.7" fill="#00acb5"/><path d="M589 112.8a5.66 5.66 0 0 1-2.66-.66l-47.26-25.08a5.67 5.67 0 1 1 5.31-10l47.25 25.07A5.67 5.67 0 0 1 589 112.8" fill="#00789f"/><path d="M518.12 150.41a5.67 5.67 0 0 1-2.66-10.67l70.86-37.62a5.67 5.67 0 0 1 5.32 10l-70.87 37.61a5.65 5.65 0 0 1-2.65.66" fill="#00acb5"/><path d="M683.46 112.8a5.65 5.65 0 0 1-2.65-.66l-47.24-25.08a5.67 5.67 0 1 1 5.31-10l47.25 25.07a5.67 5.67 0 0 1-2.67 10.68" fill="#00bb6e"/><path d="M376.39 100.26a5.67 5.67 0 0 1-2.67-10.68l23.63-12.53a5.67 5.67 0 1 1 5.31 10L379 99.6a5.65 5.65 0 0 1-2.65.66" fill="#00acb5"/><path d="M281.89 100.26a5.59 5.59 0 0 1-2.65-.66l-23.63-12.54a5.67 5.67 0 1 1 5.32-10l23.62 12.53a5.67 5.67 0 0 1-2.66 10.68" fill="#00789f"/><path d="M95.57 320.4a5.72 5.72 0 0 1-8.31 4.67L.2 278.86.15 266S92 314.44 93.44 315.62a5.71 5.71 0 0 1 2.13 4.78" fill="#71d431"/><path d="M89.92 325.73a5.67 5.67 0 0 1-5.67-5.67v-75.23a5.67 5.67 0 1 1 11.34 0v75.23a5.67 5.67 0 0 1-5.67 5.67" fill="#00bb6e"/><path d="M234.64 200.57a5.66 5.66 0 0 1-2.65-.67l-94.49-50.15a5.67 5.67 0 1 1 5.32-10l94.49 50.15a5.67 5.67 0 0 1-2.67 10.68" fill="#00acb5"/><path d="M116.54 213.11a5.67 5.67 0 0 1-2.66-10.68l23.62-12.54a5.67 5.67 0 1 1 5.32 10l-23.62 12.55a5.67 5.67 0 0 1-2.66.67" fill="#00bb6e"/><path d="M565.36 326.06a5.67 5.67 0 0 1-2.66-10.68l23.62-12.53a5.67 5.67 0 0 1 5.31 10L568 325.4a5.59 5.59 0 0 1-2.65.66" fill="#00acb5"/><path d="M494.49 363.68a5.67 5.67 0 0 1-2.66-10.68l23.62-12.54a5.67 5.67 0 0 1 5.32 10L497.15 363a5.67 5.67 0 0 1-2.66.67M281.9 150.41a5.67 5.67 0 0 1-2.67-10.67l47.25-25.08a5.67 5.67 0 1 1 5.31 10l-47.24 25.07a5.65 5.65 0 0 1-2.65.66" fill="#00bb6e"/><path d="M305.52 288.33a5.66 5.66 0 0 1-5.67-5.66v-50.16a5.67 5.67 0 1 1 11.33 0v50.16a5.65 5.65 0 0 1-5.66 5.66" fill="#00acb5"/><path d="M400 338.49a5.55 5.55 0 0 1-2.65-.67l-94.49-50.15a5.67 5.67 0 0 1 5.31-10L400 326.4l91.83-48.74a5.67 5.67 0 1 1 5.32 10l-94.49 50.15a5.56 5.56 0 0 1-2.66.67" fill="#00789f"/><path d="M163.78 288.12a5.61 5.61 0 0 1-2.65-.67l-23.63-12.53a5.67 5.67 0 1 1 5.32-10l23.62 12.54a5.67 5.67 0 0 1-2.66 10.68M636.22 363.68a5.67 5.67 0 0 1-2.66-.67l-23.62-12.53a5.67 5.67 0 0 1 5.32-10L638.88 353a5.67 5.67 0 0 1-2.66 10.68" fill="#00bb6e"/><path d="M92.91 175.27a5.65 5.65 0 0 1-2.65-.66L43 149.53a5.67 5.67 0 0 1 5.31-10l47.25 25.07a5.67 5.67 0 0 1-2.67 10.68" fill="#00acb5"/><path d="M22.06 212.89a5.67 5.67 0 0 1-2.67-10.68l70.87-37.62a5.67 5.67 0 0 1 5.32 10l-70.87 37.63a5.66 5.66 0 0 1-2.65.67" fill="#00789f"/><path d="M92.43 74.29L0 123.37v-12.85l87.11-46.25a5.67 5.67 0 0 1 5.32 10" fill="#00bb6e"/><path d="M47.53 46.86a5.65 5.65 0 0 1-7.67 2.35L0 28.05V15.22l45.18 24a5.66 5.66 0 0 1 2.35 7.66" fill="#71d431"/><path d="M329.13 49.65a5.55 5.55 0 0 1-2.63-.65l-47.25-24.86a5.67 5.67 0 0 1 5.28-10L331.78 39a5.67 5.67 0 0 1-2.65 10.69" fill="#00acb5"/><path d="M234.65 49.87A5.67 5.67 0 0 1 232 39.19l47.25-25.07a5.67 5.67 0 0 1 5.31 10l-47.25 25.09a5.66 5.66 0 0 1-2.66.66" fill="#00bb6e"/><path d="M42.67 401.41a5.67 5.67 0 0 1-5.67-5.67v-50.6a5.67 5.67 0 0 1 11.34 0v50.6a5.67 5.67 0 0 1-5.67 5.67" fill="#00acb5"/><path d="M48.34 345.14a5.72 5.72 0 0 1-2.73 4.86c-.56.34-45.46 24.28-45.46 24.28v-12.85L40 340.16a5.73 5.73 0 0 1 8.38 5" fill="#00789f"/><path d="M447.25 62.18a5.67 5.67 0 0 1-2.66-10.67l70.87-37.62a5.67 5.67 0 0 1 5.31 10l-70.86 37.63a5.66 5.66 0 0 1-2.66.66" fill="#00acb5"/><path d="M800 291.07v12.81l-63 33.47a5.94 5.94 0 0 1-6.31-.06 5.73 5.73 0 0 1-1.4-8 9.71 9.71 0 0 1 3.62-2.57z" fill="#00789f"/><path d="M707.1 426.26a5.67 5.67 0 0 1-2.67-10.67l47.25-25.08a5.67 5.67 0 0 1 5.31 10l-47.24 25.09a5.65 5.65 0 0 1-2.65.66" fill="#00bb6e"/><path d="M683.46 252a5.66 5.66 0 0 0-5.66 5.67V358a5.67 5.67 0 0 0 11.33 0V257.7a5.67 5.67 0 0 0-5.67-5.7zM565.35 326.06a5.66 5.66 0 0 1-5.66-5.67v-50.15a5.67 5.67 0 1 1 11.33 0v50.15a5.67 5.67 0 0 1-5.67 5.67M800 115.54v12.84l-63.48 33.69a5.67 5.67 0 1 1-5.32-10z" fill="#71d431"/><path d="M730.72 87.5a5.67 5.67 0 0 1-2.67-10.67l47.25-25.1a5.67 5.67 0 0 1 5.32 10l-47.25 25.11a5.65 5.65 0 0 1-2.65.66" fill="#00bb6e"/><path d="M730.71 87.5a5.67 5.67 0 0 1-5.71-5.67V31.44a5.67 5.67 0 1 1 11.34 0v50.39a5.67 5.67 0 0 1-5.67 5.67" fill="#71d431"/><path d="M800 361.59v12.87s-66.14-35.41-68.61-36.76a5.79 5.79 0 0 1-3.17-5.65 5.72 5.72 0 0 1 5.2-5.11 8 8 0 0 1 4.46 1.37z" fill="#00acb5"/><path d="M636.23 288.45a5.67 5.67 0 0 1-2.67-10.68l47.25-25.08a5.67 5.67 0 0 1 5.31 10l-47.24 25.07a5.66 5.66 0 0 1-2.65.67" fill="#00bb6e"/><path d="M589 238.18a5.66 5.66 0 0 1-2.66-.66l-47.24-25.08a5.67 5.67 0 0 1 5.31-10l47.25 25.07a5.67 5.67 0 0 1-2.66 10.67" fill="#00acb5"/><path d="M470.86 125.34a5.66 5.66 0 0 1-2.65-.67l-70.87-37.61a5.67 5.67 0 0 1 5.32-10l70.87 37.62a5.67 5.67 0 0 1-2.67 10.68" fill="#00bb6e"/><path d="M470.87 125.34a5.67 5.67 0 0 1-2.66-10.68l23.62-12.54a5.67 5.67 0 1 1 5.32 10l-23.62 12.53a5.67 5.67 0 0 1-2.66.67" fill="#71d431"/><path d="M494.5 238.18a5.67 5.67 0 0 1-2.67-10.68l47.25-25.07a5.67 5.67 0 1 1 5.31 10l-47.24 25.08a5.65 5.65 0 0 1-2.65.66" fill="#00789f"/><path d="M352.8 163a5.67 5.67 0 0 1-2.66-10.68l47.25-25.08a5.67 5.67 0 0 1 5.31 10l-47.24 25.08a5.78 5.78 0 0 1-2.66.66" fill="#71d431"/><path d="M402.66 227.5l-94.4-50.1a5.67 5.67 0 1 0-5.32 10l94.41 50.11a5.59 5.59 0 0 0 2.65.66 5.67 5.67 0 0 0 2.66-10.68z" fill="#00bb6e"/><path d="M400 288.45a5.67 5.67 0 0 1-5.67-5.67v-50.27a5.67 5.67 0 0 1 11.34 0v50.27a5.67 5.67 0 0 1-5.67 5.67M497.1 177.38l-94.4-50.11a5.67 5.67 0 0 0-5.31 10l94.4 50.11a5.59 5.59 0 0 0 2.65.66 5.67 5.67 0 0 0 2.66-10.68z" fill="#00acb5"/><path d="M512.44 0v18.83a5.74 5.74 0 0 0 6.94 5.59c3-.68 4.4-3.31 4.4-6.17V0zM426.32 13.91L400.59 0h-23.86l44.2 23.89a5.67 5.67 0 0 0 5.39-10z" fill="#00bb6e"/><path d="M210.75 0l-47 25.23-2.67 1.44a5.67 5.67 0 0 0 2.68 10.67h.6a4.85 4.85 0 0 0 .76-.14l.2-.05a1.71 1.71 0 0 0 .38-.13.45.45 0 0 0 .11 0l.31-.14.33-.16.21-.11L234.7 0z" fill="#00789f"/><path d="M166.46 26.67l-2.69-1.44L116.57 0H92.51l68.6 36.67a5.68 5.68 0 0 0 4.72.29l.31-.14.33-.16.21-.11a5.81 5.81 0 0 0 2.1-2.21 5.66 5.66 0 0 0-2.32-7.67z" fill="#00acb5"/><path d="M683 0l-96.69 51.51a5.67 5.67 0 1 0 5.34 10L707.07 0zM562.7 401.08L654.86 450H679l-111-58.93a5.67 5.67 0 0 0-5.31 10z" fill="#00789f"/><path d="M500.16 450v-92a5.67 5.67 0 1 0-11.34.05v91.94z" fill="#00acb5"/><path d="M184.77 401.09L278.14 450h24.31l-112.4-58.94a5.67 5.67 0 1 0-5.28 10z" fill="#00bb6e"/><path d="M90.27 425.84l2.65 1.4L136.08 450h24.29L95.8 415.94l-.24-.13a5.24 5.24 0 0 0-.64-.29l-.33-.11a5.63 5.63 0 0 0-3.35 0l-.33.11a5.24 5.24 0 0 0-.64.29l-.24.13a5.68 5.68 0 0 0 .24 9.9z" fill="#71d431"/><path d="M49.76 450l43.15-22.76 2.64-1.4a5.68 5.68 0 0 0 .24-9.9l-.24-.13a5.24 5.24 0 0 0-.64-.29l-.33-.11-.41-.11-.42-.08a3 3 0 0 0-.42-.05h-.83a3 3 0 0 0-.42.05 5.87 5.87 0 0 0-.83.19l-.33.11a5.24 5.24 0 0 0-.64.29l-.24.13L25.47 450z" fill="#00bb6e"/></svg>
