<svg xmlns="http://www.w3.org/2000/svg" viewBox="0 0 800 450"><path d="M280.54 324.7a5.7 5.7 0 0 1-5.73-5.67V143.5a5.74 5.74 0 0 1 11.47 0V319a5.71 5.71 0 0 1-5.74 5.67M400 337.24a5.7 5.7 0 0 1-5.73-5.67v-25.08a5.73 5.73 0 0 1 11.46 0v25.08a5.7 5.7 0 0 1-5.73 5.67M400 287.09a5.7 5.7 0 0 1-5.73-5.67v-25.08a5.73 5.73 0 0 1 11.46 0v25.08a5.7 5.7 0 0 1-5.73 5.67M304.43 287.09a5.7 5.7 0 0 1-5.73-5.67v-25.08a5.74 5.74 0 0 1 11.47 0v25.08a5.71 5.71 0 0 1-5.74 5.67" fill="#00789f"/><path d="M304.43 236.93a5.7 5.7 0 0 1-5.73-5.67v-25.07a5.74 5.74 0 0 1 11.47 0v25.07a5.71 5.71 0 0 1-5.74 5.67M376.11 324.7a5.71 5.71 0 0 1-5.74-5.67V243.8a5.74 5.74 0 0 1 11.47 0V319a5.7 5.7 0 0 1-5.73 5.67" fill="#00acb5"/><path d="M352.22 312.16a5.71 5.71 0 0 1-5.74-5.67v-75.23a5.74 5.74 0 0 1 11.47 0v75.23a5.7 5.7 0 0 1-5.73 5.67" fill="#71d431"/><path d="M328.33 299.62a5.7 5.7 0 0 1-5.74-5.66v-75.24a5.74 5.74 0 0 1 11.47 0V294a5.7 5.7 0 0 1-5.73 5.66" fill="#00bb6e"/><path d="M400 236.93a5.7 5.7 0 0 1-5.73-5.67V131a5.73 5.73 0 0 1 11.46 0v100.3a5.7 5.7 0 0 1-5.73 5.67" fill="#71d431"/><path d="M423.89 324.7a5.7 5.7 0 0 1-5.73-5.67V143.5a5.73 5.73 0 0 1 11.46 0V319a5.7 5.7 0 0 1-5.73 5.67" fill="#00bb6e"/><path d="M495.57 287.09a5.71 5.71 0 0 1-5.74-5.67V181.11a5.74 5.74 0 0 1 11.47 0v100.31a5.7 5.7 0 0 1-5.73 5.67" fill="#71d431"/><path d="M471.67 299.69a5.7 5.7 0 0 1-5.73-5.67V168.51a5.74 5.74 0 0 1 11.47 0V294a5.71 5.71 0 0 1-5.74 5.67" fill="#00789f"/><path d="M447.78 312.16a5.7 5.7 0 0 1-5.73-5.67V156a5.74 5.74 0 0 1 11.47 0v150.49a5.71 5.71 0 0 1-5.74 5.67" fill="#00acb5"/><path d="M376.11 224.43a5.7 5.7 0 0 1-5.74-5.66V143.5a5.74 5.74 0 0 1 11.47 0v75.27a5.69 5.69 0 0 1-5.73 5.66" fill="#00789f"/><path d="M352.22 211.86a5.71 5.71 0 0 1-5.74-5.67V156a5.74 5.74 0 0 1 11.52 0v50.16a5.7 5.7 0 0 1-5.73 5.67" fill="#00acb5"/><path d="M304.44 186.78a5.67 5.67 0 1 1 5.73-5.67 5.76 5.76 0 0 1-5.73 5.67M113.3 186.89a5.67 5.67 0 1 1 5.73-6 5.75 5.75 0 0 1-5.73 6" fill="#71d431"/><path d="M328.33 199.32a5.71 5.71 0 0 1-5.74-5.67v-25.14a5.74 5.74 0 0 1 11.47 0v25.14a5.7 5.7 0 0 1-5.73 5.67" fill="#00789f"/><path d="M304.43 413a5.7 5.7 0 0 1-5.73-5.67V306.49a5.74 5.74 0 0 1 11.47 0v100.88a5.71 5.71 0 0 1-5.74 5.67" fill="#71d431"/><path d="M304.43 161.7a5.7 5.7 0 0 1-5.73-5.7V31a5.74 5.74 0 0 1 11.47 0v125a5.71 5.71 0 0 1-5.74 5.67M232.76 99a5.67 5.67 0 1 1 5.72-6 5.75 5.75 0 0 1-5.72 6" fill="#00bb6e"/><path d="M662.81 99a5.67 5.67 0 1 1 5.73-5.67 5.76 5.76 0 0 1-5.73 5.67" fill="#00789f"/><path d="M567.24 74.27A5.67 5.67 0 1 1 573 68.6a5.74 5.74 0 0 1-5.74 5.67M376.11 124.09a5.71 5.71 0 0 1-5.74-5.67V43.53a5.74 5.74 0 0 1 11.47 0v74.89a5.7 5.7 0 0 1-5.73 5.67" fill="#71d431"/><path d="M256.65 362.32a5.7 5.7 0 0 1-5.73-5.67V231.26a5.73 5.73 0 0 1 11.46 0v125.39a5.7 5.7 0 0 1-5.73 5.67" fill="#00acb5"/><path d="M256.65 211.86a5.7 5.7 0 0 1-5.73-5.67V80.8a5.73 5.73 0 0 1 11.46 0v125.39a5.7 5.7 0 0 1-5.73 5.67M495.57 161.7a5.71 5.71 0 0 1-5.74-5.67V80.81a5.74 5.74 0 0 1 11.47 0V156a5.7 5.7 0 0 1-5.73 5.67" fill="#00bb6e"/><path d="M447.78 136.63a5.7 5.7 0 0 1-5.73-5.67V56.07a5.74 5.74 0 0 1 11.47 0V131a5.71 5.71 0 0 1-5.74 5.67M543.35 312.16a5.71 5.71 0 0 1-5.74-5.67V80.81a5.74 5.74 0 0 1 11.47 0v225.68a5.7 5.7 0 0 1-5.73 5.67" fill="#71d431"/><path d="M543.35 362.32a5.71 5.71 0 0 1-5.74-5.67v-25.08a5.74 5.74 0 0 1 11.47 0v25.08a5.7 5.7 0 0 1-5.73 5.67" fill="#00acb5"/><path d="M567.24 375.31a5.7 5.7 0 0 1-5.73-5.67V268.88a5.73 5.73 0 0 1 11.46 0v100.76a5.7 5.7 0 0 1-5.73 5.67" fill="#00789f"/><path d="M567.24 249.47a5.7 5.7 0 0 1-5.73-5.67V93.34a5.73 5.73 0 0 1 11.46 0V243.8a5.7 5.7 0 0 1-5.73 5.67" fill="#00acb5"/><path d="M591.13 186.78a5.7 5.7 0 0 1-5.73-5.67V80.8a5.73 5.73 0 0 1 11.46 0v100.31a5.7 5.7 0 0 1-5.73 5.67" fill="#00bb6e"/><path d="M591.13 413a5.7 5.7 0 0 1-5.73-5.67v-75.8a5.73 5.73 0 0 1 11.46 0v75.8a5.7 5.7 0 0 1-5.73 5.67" fill="#17839c"/><path d="M615 149.16a5.7 5.7 0 0 1-5.73-5.66V93.34a5.74 5.74 0 0 1 11.47 0v50.16a5.7 5.7 0 0 1-5.74 5.66" fill="#00789f"/><path d="M615 375.31a5.7 5.7 0 0 1-5.73-5.67V168.57a5.74 5.74 0 0 1 11.47 0v201.07a5.71 5.71 0 0 1-5.74 5.67" fill="#00bb6e"/><path d="M638.91 362.32a5.7 5.7 0 0 1-5.73-5.67V256.34a5.74 5.74 0 0 1 11.47 0v100.31a5.71 5.71 0 0 1-5.74 5.67" fill="#71d431"/><path d="M638.91 236.93a5.7 5.7 0 0 1-5.73-5.67V80.8a5.74 5.74 0 0 1 11.47 0v150.46a5.71 5.71 0 0 1-5.74 5.67" fill="#00acb5"/><path d="M662.81 199.32a5.71 5.71 0 0 1-5.74-5.67v-75.23a5.74 5.74 0 0 1 11.47 0v75.23a5.7 5.7 0 0 1-5.73 5.67" fill="#00bb6e"/><path d="M662.81 349.89a5.71 5.71 0 0 1-5.74-5.67V218.73a5.74 5.74 0 0 1 11.47 0v125.49a5.7 5.7 0 0 1-5.73 5.67M232.76 249.47a5.7 5.7 0 0 1-5.76-5.67V118.42a5.73 5.73 0 0 1 11.46 0V243.8a5.7 5.7 0 0 1-5.73 5.67" fill="#00789f"/><path d="M232.76 349.89a5.7 5.7 0 0 1-5.73-5.67v-75.34a5.73 5.73 0 0 1 11.46 0v75.34a5.7 5.7 0 0 1-5.73 5.67" fill="#00bb6e"/><path d="M208.87 388a5.71 5.71 0 0 1-5.74-5.67v-75.8a5.74 5.74 0 0 1 11.47 0v75.8a5.7 5.7 0 0 1-5.73 5.67" fill="#00acb5"/><path d="M208.87 287.09a5.71 5.71 0 0 1-5.74-5.67V80.8a5.74 5.74 0 0 1 11.47 0v200.62a5.7 5.7 0 0 1-5.73 5.67M185 224.39a5.7 5.7 0 0 1-5.74-5.66v-50.16a5.74 5.74 0 0 1 11.47 0v50.16a5.7 5.7 0 0 1-5.73 5.66" fill="#00bb6e"/><path d="M185 299.74a5.71 5.71 0 0 1-5.74-5.67V243.8a5.74 5.74 0 0 1 11.47 0v50.27a5.7 5.7 0 0 1-5.73 5.67" fill="#71d431"/><path d="M161.09 337.24a5.71 5.71 0 0 1-5.74-5.67V231.26a5.74 5.74 0 0 1 11.47 0v100.31a5.7 5.7 0 0 1-5.73 5.67" fill="#00bb6e"/><path d="M137.19 375.31a5.7 5.7 0 0 1-5.73-5.67V143.5a5.74 5.74 0 0 1 11.47 0v226.14a5.71 5.71 0 0 1-5.74 5.67" fill="#00789f"/><path d="M137.19 124.09a5.7 5.7 0 0 1-5.73-5.67V93.34a5.74 5.74 0 0 1 11.47 0v25.08a5.71 5.71 0 0 1-5.74 5.67M591.13 287.09a5.7 5.7 0 0 1-5.73-5.67v-75.23a5.73 5.73 0 0 1 11.46 0v75.23a5.7 5.7 0 0 1-5.73 5.67" fill="#71d431"/><path d="M591.13 312.16a5.67 5.67 0 1 1 5.72-6 5.75 5.75 0 0 1-5.72 6M710.59 324.81a5.67 5.67 0 1 1 5.72-6 5.76 5.76 0 0 1-5.72 6" fill="#00789f"/><path d="M734.48 236.93a5.67 5.67 0 1 1 5.73-5.67 5.77 5.77 0 0 1-5.73 5.67M638.91 388a5.67 5.67 0 1 1 5.73-5.67 5.78 5.78 0 0 1-5.73 5.67" fill="#00bb6e"/><path d="M161.08 362.54a5.67 5.67 0 1 1 5.74-5.67 5.75 5.75 0 0 1-5.74 5.67M89.41 400.5a5.67 5.67 0 1 1 5.74-5.67 5.76 5.76 0 0 1-5.74 5.67M17.73 312.5a5.67 5.67 0 1 1 5.74-5.67 5.76 5.76 0 0 1-5.74 5.67" fill="#71d431"/><path d="M519.46 375.31a5.71 5.71 0 0 1-5.74-5.67V243.8a5.74 5.74 0 0 1 11.47 0v125.84a5.7 5.7 0 0 1-5.73 5.67" fill="#00789f"/><path d="M686.7 388a5.71 5.71 0 0 1-5.74-5.67v-75.72a5.74 5.74 0 0 1 11.47 0v75.68a5.7 5.7 0 0 1-5.73 5.71" fill="#00acb5"/><path d="M686.7 287.2a5.71 5.71 0 0 1-5.74-5.67V156.15a5.74 5.74 0 0 1 11.47 0v125.38a5.7 5.7 0 0 1-5.73 5.67" fill="#71d431"/><path d="M710.59 299.74a5.71 5.71 0 0 1-5.74-5.67V193.76a5.74 5.74 0 0 1 11.47 0v100.31a5.7 5.7 0 0 1-5.73 5.67" fill="#00acb5"/><path d="M734.48 212a5.7 5.7 0 0 1-5.73-5.67v-75.26a5.73 5.73 0 0 1 11.46 0v75.23a5.7 5.7 0 0 1-5.73 5.67M734.48 362.43a5.7 5.7 0 0 1-5.73-5.67V256.45a5.73 5.73 0 0 1 11.46 0v100.31a5.7 5.7 0 0 1-5.73 5.67" fill="#00789f"/><path d="M758.37 400.5a5.7 5.7 0 0 1-5.73-5.67v-75.69a5.73 5.73 0 0 1 11.46 0v75.69a5.7 5.7 0 0 1-5.73 5.67" fill="#71d431"/><path d="M758.37 299.74a5.7 5.7 0 0 1-5.73-5.67V168.69a5.73 5.73 0 0 1 11.46 0v125.38a5.7 5.7 0 0 1-5.73 5.67" fill="#00bb6e"/><path d="M782.26 237.05a5.7 5.7 0 0 1-5.73-5.67V106a5.74 5.74 0 0 1 11.47 0v125.38a5.71 5.71 0 0 1-5.74 5.67" fill="#00789f"/><path d="M782.26 362.43a5.7 5.7 0 0 1-5.73-5.67V256.45a5.74 5.74 0 0 1 11.47 0v100.31a5.71 5.71 0 0 1-5.74 5.67" fill="#00acb5"/><path d="M113.3 287.2a5.7 5.7 0 0 1-5.73-5.67V206.3a5.74 5.74 0 0 1 11.47 0v75.23a5.71 5.71 0 0 1-5.74 5.67" fill="#00789f"/><path d="M89.41 249.58a5.69 5.69 0 0 1-5.73-5.66V118.53a5.73 5.73 0 0 1 11.46 0v125.39a5.69 5.69 0 0 1-5.73 5.66" fill="#00bb6e"/><path d="M89.41 375.42a5.7 5.7 0 0 1-5.73-5.67V269a5.73 5.73 0 0 1 11.46 0v100.75a5.7 5.7 0 0 1-5.73 5.67" fill="#17839c"/><path d="M65.52 312.28a5.7 5.7 0 0 1-5.73-5.67V181.22a5.73 5.73 0 0 1 11.46 0v125.39a5.7 5.7 0 0 1-5.73 5.67" fill="#71d431"/><path d="M65.52 161.82a5.7 5.7 0 0 1-5.73-5.67V56.07a5.73 5.73 0 0 1 11.46 0v100.08a5.7 5.7 0 0 1-5.73 5.67" fill="#00acb5"/><path d="M41.63 224.51a5.71 5.71 0 0 1-5.74-5.67v-75.23a5.74 5.74 0 0 1 11.47 0v75.23a5.7 5.7 0 0 1-5.73 5.67" fill="#00789f"/><path d="M41.63 375.42a5.71 5.71 0 0 1-5.74-5.67V243.91a5.74 5.74 0 0 1 11.47 0v125.84a5.7 5.7 0 0 1-5.73 5.67" fill="#00bb6e"/><path d="M17.74 287.2a5.71 5.71 0 0 1-5.74-5.67V181.22a5.74 5.74 0 0 1 11.47 0v100.31a5.7 5.7 0 0 1-5.73 5.67" fill="#00acb5"/><path d="M12 0v156.15a5.74 5.74 0 0 0 11.47 0V0z" fill="#00bb6e"/><path d="M35.89 0v118.53a5.74 5.74 0 0 0 11.47 0V0z" fill="#71d431"/><path d="M59.79 0v31a5.74 5.74 0 0 0 11.47 0V0z" fill="#00789f"/><path d="M83.68 0v93.45a5.74 5.74 0 0 0 11.47 0V0z" fill="#71d431"/><path d="M107.57 0v156.15a5.74 5.74 0 0 0 11.47 0V0z" fill="#00acb5"/><path d="M131.46 0v68.61a5.74 5.74 0 0 0 11.47 0V0z" fill="#00bb6e"/><path d="M155.35 0v206.19a5.74 5.74 0 0 0 11.47 0V0z" fill="#00acb5"/><path d="M179.25 0v143.49a5.74 5.74 0 0 0 11.47 0V0z" fill="#00789f"/><path d="M203.14 0v56.07a5.73 5.73 0 0 0 11.46 0V0z" fill="#71d431"/><path d="M227 0v68.61a5.74 5.74 0 0 0 11.47 0V0z" fill="#00acb5"/><path d="M250.91 0v56.07a5.74 5.74 0 0 0 11.47 0V0z" fill="#71d431"/><path d="M274.8 0v118.42a5.74 5.74 0 0 0 11.47 0V0z" fill="#17839c"/><path d="M322.59 143.49a5.74 5.74 0 0 0 11.47 0V0h-11.47z" fill="#00acb5"/><path d="M346.48 0v131a5.74 5.74 0 0 0 11.52 0V0zM370.37 0v18.45a5.74 5.74 0 0 0 11.47 0V0z" fill="#00bb6e"/><path d="M394.27 0v105.88a5.73 5.73 0 0 0 11.46 0V0z" fill="#00789f"/><path d="M418.16 0v118.42a5.74 5.74 0 0 0 11.47 0V0z" fill="#00acb5"/><path d="M442.05 0v31a5.74 5.74 0 0 0 11.47 0V0z" fill="#00bb6e"/><path d="M465.94 0v143.49a5.74 5.74 0 0 0 11.47 0V0z" fill="#00acb5"/><path d="M489.83 0v56.07a5.74 5.74 0 0 0 11.47 0V0z" fill="#00789f"/><path d="M513.73 0v218.72a5.73 5.73 0 0 0 11.46 0V0z" fill="#00acb5"/><path d="M537.62 0v56.07a5.74 5.74 0 0 0 11.47 0V0z" fill="#00789f"/><path d="M561.51 0v43.53a5.74 5.74 0 0 0 11.47 0V0z" fill="#00bb6e"/><path d="M585.4 0v56.07a5.73 5.73 0 0 0 11.46 0V0z" fill="#00acb5"/><path d="M609.29 0v68.61a5.73 5.73 0 0 0 11.46 0V0z" fill="#00bb6e"/><path d="M633.18 0v56.07a5.73 5.73 0 0 0 11.46 0V0z" fill="#71d431"/><path d="M657.07 0v68.61a5.74 5.74 0 0 0 11.47 0V0z" fill="#00acb5"/><path d="M681 131.07a5.74 5.74 0 0 0 11.47 0V0H681z" fill="#00789f"/><path d="M704.85 0v168.68a5.74 5.74 0 0 0 11.47 0V0z" fill="#00bb6e"/><path d="M728.74 0v106a5.74 5.74 0 0 0 11.47 0V0z" fill="#71d431"/><path d="M752.64 0v143.61a5.73 5.73 0 0 0 11.46 0V0z" fill="#00acb5"/><path d="M776.53 0v80.92a5.74 5.74 0 0 0 11.47 0V0z" fill="#00bb6e"/><path d="M23.47 450V331.68a5.74 5.74 0 0 0-11.47 0V450z" fill="#00789f"/><path d="M47.36 450v-55.17a5.74 5.74 0 0 0-11.47 0V450z" fill="#00acb5"/><path d="M71.26 450V331.68a5.74 5.74 0 0 0-11.47 0V450z" fill="#00bb6e"/><path d="M95.15 450v-30.1a5.74 5.74 0 0 0-11.47 0V450z" fill="#00acb5"/><path d="M119 450V306.6a5.74 5.74 0 0 0-11.47 0V450z" fill="#00bb6e"/><path d="M142.93 450v-55.17a5.74 5.74 0 0 0-11.47 0V450z" fill="#71d431"/><path d="M166.82 450v-67.71a5.74 5.74 0 0 0-11.47 0V450z" fill="#00acb5"/><path d="M190.72 450V319.14a5.74 5.74 0 0 0-11.47 0V450z" fill="#00789f"/><path d="M214.6 450v-42.64a5.73 5.73 0 0 0-11.46 0V450z" fill="#00bb6e"/><path d="M238.49 450v-80.25a5.74 5.74 0 0 0-11.47 0V450z" fill="#71d431"/><path d="M262.38 450v-67.71a5.74 5.74 0 0 0-11.47 0V450z" fill="#00789f"/><path d="M286.27 450V344.11a5.57 5.57 0 0 0-1.68-4 5.13 5.13 0 0 0-.85-.69 5.66 5.66 0 0 0-2.62-.94 5.49 5.49 0 0 0-.58 0 5.68 5.68 0 0 0-.59 0 5.78 5.78 0 0 0-2.62.94 6.11 6.11 0 0 0-.85.69 5.65 5.65 0 0 0-1.68 4V450z" fill="#00bb6e"/><path d="M310.17 450v-17.56a5.74 5.74 0 0 0-11.47 0V450zM334.06 450V319a5.74 5.74 0 0 0-11.47 0v131z" fill="#00acb5"/><path d="M358 450V331.57a5.74 5.74 0 0 0-11.47 0V450z" fill="#00789f"/><path d="M381.84 450V344.11a5.74 5.74 0 0 0-11.47 0V450z" fill="#00bb6e"/><path d="M405.73 450v-93.35a5.73 5.73 0 0 0-11.46 0V450z" fill="#00acb5"/><path d="M429.63 450V344.11a5.74 5.74 0 0 0-11.47 0V450z" fill="#71d431"/><path d="M453.52 450V331.57a5.74 5.74 0 0 0-11.47 0V450z" fill="#00789f"/><path d="M477.41 450V319a5.74 5.74 0 0 0-11.47 0v131z" fill="#00bb6e"/><path d="M501.3 450V306.49a5.74 5.74 0 0 0-11.47 0V450zM525.19 450v-55.17a5.73 5.73 0 0 0-11.46 0V450z" fill="#00acb5"/><path d="M549.09 450v-67.71a5.74 5.74 0 0 0-11.47 0V450z" fill="#00789f"/><path d="M573 450v-55.17a5.74 5.74 0 0 0-11.47 0V450z" fill="#71d431"/><path d="M596.86 450v-17.56a5.73 5.73 0 0 0-11.46 0V450z" fill="#00bb6e"/><path d="M620.75 450v-55.17a5.73 5.73 0 0 0-11.46 0V450z" fill="#00789f"/><path d="M644.64 450v-42.64a5.73 5.73 0 0 0-11.46 0V450z" fill="#00acb5"/><path d="M668.54 450v-80.25a5.74 5.74 0 0 0-11.47 0V450z" fill="#00bb6e"/><path d="M716.32 450V344.22a5.74 5.74 0 0 0-11.47 0V450z" fill="#71d431"/><path d="M692.43 450v-42.64a5.74 5.74 0 0 0-11.47 0V450zM764.1 450v-30.1a5.73 5.73 0 0 0-11.46 0V450z" fill="#00789f"/><path d="M788 450v-67.71a5.74 5.74 0 0 0-11.47 0V450zM740.21 450v-67.71a5.74 5.74 0 0 0-11.47 0V450z" fill="#00bb6e"/><path d="M298.7 5.46a5.74 5.74 0 0 0 11.47 0V0H298.7z" fill="#00789f"/></svg>
