<svg xmlns="http://www.w3.org/2000/svg" viewBox="0 0 282 282"><path d="M126 4a32.02 32.02 0 0131 0l98.52 54.53A31.94 31.94 0 01272 86.47v109.06a31.94 31.94 0 01-16.48 27.94L157 278a32.02 32.02 0 01-31 0l-98.52-54.53A31.94 31.94 0 0111 195.53V86.47a31.94 31.94 0 0116.48-27.94L126 4z" fill="#fff"/><path d="M239.98 153.67a12.8 12.8 0 01-12.8-12.77V86.42a12.76 12.76 0 0112.8-12.77 12.8 12.8 0 0112.8 12.77v54.48a12.75 12.75 0 01-12.8 12.77z" fill="url(#a)"/><path d="M239.98 99.19c-2.16 0-4.3-.55-6.18-1.6L135.3 43.1a12.78 12.78 0 01-1.77-21.16 12.8 12.8 0 0114.17-1.18l98.5 54.47a12.78 12.78 0 011.63 21.3 12.81 12.81 0 01-7.85 2.65z" fill="url(#b)"/><path d="M43 99.19a12.8 12.8 0 01-12.4-9.57 12.75 12.75 0 016.18-14.37l98.5-54.47a12.82 12.82 0 0117.4 4.98 12.75 12.75 0 01-5 17.36L49.18 97.6A12.74 12.74 0 0143 99.19z" fill="url(#c)"/><path d="M141.48 153.67c-2.16 0-4.29-.56-6.18-1.6L36.8 97.58a12.79 12.79 0 01-5-17.36 12.8 12.8 0 0117.4-4.99l98.5 54.48a12.78 12.78 0 011.63 21.29 12.8 12.8 0 01-7.85 2.66z" fill="url(#d)"/><path d="M141.48 262.62a12.8 12.8 0 01-12.79-12.77V140.9a12.76 12.76 0 0112.8-12.77 12.8 12.8 0 0112.78 12.77v108.95a12.75 12.75 0 01-12.79 12.77z" fill="url(#e)"/><path d="M141.5 262.62a12.81 12.81 0 01-12.4-9.57 12.75 12.75 0 016.18-14.37l98.5-54.48a12.82 12.82 0 0118.91 9.73 12.77 12.77 0 01-6.5 12.62l-98.5 54.47a12.75 12.75 0 01-6.2 1.6z" fill="url(#f)"/><path d="M141.48 262.62c-2.16 0-4.29-.55-6.18-1.6l-98.5-54.48a12.77 12.77 0 1112.4-22.34l98.5 54.47a12.77 12.77 0 01-6.22 23.95z" fill="url(#g)"/><path d="M42.98 208.14a12.8 12.8 0 01-12.79-12.77V140.9A12.76 12.76 0 0143 128.13a12.8 12.8 0 0112.79 12.77v54.47a12.75 12.75 0 01-12.8 12.77z" fill="url(#h)"/><defs><linearGradient id="a" x1="239.98" y1="140.9" x2="239.98" y2="86.42" gradientUnits="userSpaceOnUse"><stop stop-color="#c6f523"/><stop offset=".9" stop-color="#afe63a"/></linearGradient><linearGradient id="b" x1="239.98" y1="86.42" x2="141.57" y2="31.79" gradientUnits="userSpaceOnUse"><stop stop-color="#afe63a"/><stop offset=".9" stop-color="#81c36d"/></linearGradient><linearGradient id="c" x1="141.48" y1="31.95" x2="43.07" y2="86.58" gradientUnits="userSpaceOnUse"><stop stop-color="#81c36d"/><stop offset=".8" stop-color="#61afb4"/></linearGradient><linearGradient id="d" x1="42.98" y1="86.42" x2="141.39" y2="141.06" gradientUnits="userSpaceOnUse"><stop stop-color="#61afb4"/><stop offset=".9" stop-color="#42a0da"/></linearGradient><linearGradient id="e" x1="141.48" y1="140.9" x2="141.48" y2="249.85" gradientUnits="userSpaceOnUse"><stop stop-color="#42a0da"/><stop offset=".8" stop-color="#3b84bb"/></linearGradient><linearGradient id="f" x1="239.98" y1="195.37" x2="141.57" y2="250.01" gradientUnits="userSpaceOnUse"><stop stop-color="#386d9b"/><stop offset=".7" stop-color="#3b84bb"/></linearGradient><linearGradient id="g" x1="141.48" y1="249.85" x2="43.07" y2="195.22" gradientUnits="userSpaceOnUse"><stop offset=".3" stop-color="#3b84bb"/><stop offset=".9" stop-color="#366fa5"/></linearGradient><linearGradient id="h" x1="42.98" y1="195.37" x2="42.98" y2="140.9" gradientUnits="userSpaceOnUse"><stop stop-color="#366fa5"/><stop offset="1" stop-color="#366998"/></linearGradient></defs></svg>