<svg viewBox="0 0 512 512" xmlns="http://www.w3.org/2000/svg"><circle cx="256" cy="256" fill="#77D4B6" r="256"/><path d="M211.9 235.1l21.5 64.2 66.7-22.4-21.5-64.2-66.7 22.4zM398 298.8l-32.4 10.8 11.2 33.5c4.5 13.5-2.8 28.2-16.3 32.8-3 1-5.9 1.4-8.9 1.3-10.6-.3-20.3-7.1-23.9-17.7L316.5 326l-66.7 22.4 11.2 33.5c4.5 13.6-2.8 28.2-16.3 32.8-3 1-5.9 1.4-8.9 1.3-10.6-.3-20.3-7.1-23.9-17.7l-11.2-33.5-32.4 10.8c-3 1-6 1.4-8.9 1.3-10.6-.3-20.3-7.1-23.9-17.7-4.5-13.5 2.8-28.2 16.3-32.8l32.4-10.8-21.5-64.2-32.4 10.8c-3 1-5.9 1.4-8.9 1.3-10.6-.3-20.3-7.1-23.9-17.7-4.5-13.5 2.8-28.2 16.3-32.8l32.4-10.8-11.2-33.5c-4.5-13.6 2.8-28.2 16.3-32.8 13.6-4.5 28.2 2.8 32.8 16.3l11.2 33.5 66.7-22.4-11.2-33.5c-4.5-13.6 2.8-28.2 16.3-32.8 13.6-4.5 28.2 2.8 32.8 16.3l11.2 33.5 32.4-10.8c13.6-4.5 28.2 2.8 32.8 16.3 4.5 13.6-2.8 28.2-16.3 32.8l-32.4 10.8 21.5 64.2 32.4-10.8c13.5-4.5 28.2 2.8 32.8 16.3 4.6 14-2.7 28.6-16.3 33.2z" fill="#FFF"/></svg>
