<svg viewBox="0 0 58 58" xmlns="http://www.w3.org/2000/svg"><path d="M28.95 0a29 29 0 00-9.1 56.52c1.44.27 1.9-.63 1.9-1.39v-5.4c-8 1.75-9.68-3.42-9.68-3.42-1.31-3.35-3.2-4.24-3.2-4.24-2.61-1.8.2-1.76.2-1.76a6 6 0 014.41 3c2.57 4.43 6.73 3.15 8.38 2.41a6.17 6.17 0 011.83-3.88c-6.39-.74-13.12-3.22-13.12-14.33a11.27 11.27 0 013-7.78 10.5 10.5 0 01.26-7.73s2.42-.78 7.92 3c4.715-1.3 9.695-1.3 14.41 0 5.5-3.75 7.91-3 7.91-3a10.49 10.49 0 01.28 7.68 11.24 11.24 0 013 7.78c0 11.14-6.73 13.59-13.14 14.31a7 7 0 012 5.37v8c0 .77.46 1.68 1.92 1.39A29 29 0 0028.95 0z" fill="#B7B7B7"/></svg>
