<svg viewBox="0 0 58 58" fill="none" xmlns="http://www.w3.org/2000/svg"><path fill-rule="evenodd" clip-rule="evenodd" d="M21.53 31l2.35 7.81.54-4.99 14.24-12.95a.393.393 0 10-.48-.62L21.53 31zm15.41 12.19a1.66 1.66 0 001.55.21 1.64 1.64 0 001-1.19c1.22-5.76 4.17-20.33 5.27-25.56a1.11 1.11 0 00-.34-1.08 1.12 1.12 0 00-1.12-.2c-5.87 2.19-23.94 9-31.33 11.77a1.16 1.16 0 00.07 2.2c3.31 1 7.66 2.39 7.66 2.39s2 6.18 3.09 9.32a1.23 1.23 0 00.84.81 1.2 1.2 0 001.14-.29l4.33-4.12s5.01 3.7 7.84 5.74zM29.21 0A29 29 0 1058 29 28.9 28.9 0 0029.21 0z" fill="#38AEEA"/></svg>
