<svg fill="none" xmlns="http://www.w3.org/2000/svg" viewBox="0 0 72 72"><path d="M0 0h72v72H0V0Z" fill="#83DB4D"/><path d="M11.28 21.55h2.59l2.67 5.94 2.28-5.94h2.41l-3.86 8.7a8.58 8.58 0 0 1-1.3 2.16c-.43.49-1 .73-1.69.73-.68 0-1.21-.04-1.6-.13v-1.72l.9.03c.53 0 .91-.1 1.14-.29.23-.2.46-.62.67-1.26l-4.2-8.22Zm17.32 5.6-2.16.4a1.56 1.56 0 0 0-.5-.98 1.48 1.48 0 0 0-1-.33c-.55 0-.99.2-1.32.57-.32.38-.48 1-.48 1.9 0 .98.16 1.67.5 2.08.33.4.77.6 1.33.6.42 0 .76-.1 1.02-.34.27-.24.46-.65.56-1.23l2.16.37a3.83 3.83 0 0 1-1.29 2.24c-.63.5-1.49.76-2.55.76a3.81 3.81 0 0 1-2.9-1.15 4.46 4.46 0 0 1-1.09-3.18c0-1.37.36-2.44 1.09-3.2a3.85 3.85 0 0 1 2.94-1.14c1 0 1.8.21 2.4.65.6.43 1.03 1.1 1.3 1.99Zm1.59-2.45h7.36V33h-2.2v-6.52h-2.97V33h-2.2v-8.3Zm14.56 5.66 2.19.37a3.6 3.6 0 0 1-1.34 1.83c-.6.42-1.36.63-2.27.63-1.44 0-2.51-.47-3.2-1.42a4.75 4.75 0 0 1-.83-2.86c0-1.37.36-2.45 1.08-3.22a3.55 3.55 0 0 1 2.73-1.17c1.23 0 2.2.4 2.92 1.22.71.81 1.06 2.06 1.02 3.74h-5.5c.02.66.2 1.16.54 1.53.33.36.76.54 1.26.54.35 0 .63-.1.87-.28.23-.2.41-.5.53-.91Zm.13-2.22c-.02-.63-.18-1.12-.5-1.44a1.5 1.5 0 0 0-1.14-.5c-.48 0-.87.17-1.19.52-.3.35-.46.82-.46 1.42h3.28Zm2.7 4.86 2.99-4.27-2.87-4.03h2.68l1.47 2.28 1.55-2.28h2.58l-2.82 3.93L56.23 33h-2.7l-1.68-2.57-1.7 2.57h-2.57Zm10.82-2.95-.57-5.82v-2.68h2.37v2.68l-.56 5.82H58.4ZM57.92 33v-2.2h2.2V33h-2.2ZM30.95 44.9v-2.2h2.2v2.2h-2.2Zm0 6.1v-2.2h2.2V51h-2.2Zm4.36-3.04 2.13-.26c.07.54.25.96.54 1.25.3.28.66.42 1.08.42.46 0 .84-.17 1.14-.51.32-.34.47-.8.47-1.4 0-.54-.15-.98-.44-1.3-.3-.33-.66-.49-1.09-.49-.28 0-.62.06-1 .17l.23-1.8c.6.02 1.05-.1 1.36-.38.32-.27.47-.64.47-1.09 0-.39-.11-.7-.34-.92a1.24 1.24 0 0 0-.91-.35c-.38 0-.7.13-.97.4-.26.26-.42.64-.48 1.14l-2.02-.35c.14-.7.35-1.24.63-1.65.29-.42.68-.75 1.19-.98a3.98 3.98 0 0 1 1.7-.36 3.4 3.4 0 0 1 2.6 1.03c.54.56.8 1.2.8 1.9 0 1.01-.54 1.81-1.64 2.41a2.71 2.71 0 0 1 2.17 2.72c0 1-.38 1.86-1.11 2.57a3.8 3.8 0 0 1-2.74 1.07c-1.04 0-1.9-.3-2.58-.9a3.53 3.53 0 0 1-1.19-2.34Z" fill="#000"/></svg>