<svg xmlns="http://www.w3.org/2000/svg" fill="none" viewBox="0 0 64 64"><circle cx="32" cy="32" r="32" fill="url(#a)"/><path fill="#000" d="M43.7 20c.34 0 .64.1.83.3.2.15.25.45.25.75s-.1.55-.3.75c-.2.2-.44.3-.79.3-.34 0-.59-.1-.79-.3-.2-.15-.3-.45-.3-.75s.1-.55.3-.75c.2-.2.45-.3.8-.3ZM22.1 32.7h1.03c.25 0 .35-.1.35-.35V26.1c0-.85-.2-1.5-.65-1.95a2.48 2.48 0 0 0-1.87-.7c-1.14 0-2.33.4-3.46 1.25-.4-.85-1.14-1.25-2.23-1.25s-2.17.4-3.26 1.15l-.1-.55c0-.15-.05-.2-.15-.25-.05-.05-.15-.05-.24-.05h-.8c-.24 0-.34.1-.34.35v8.3c0 .25.1.35.34.35h1.04c.25 0 .35-.1.35-.35v-6.75a5 5 0 0 1 2.57-.8c.5 0 .84.15 1.04.45.2.3.34.7.34 1.3v5.75c0 .25.1.35.35.35h1.04c.24 0 .34-.1.34-.35v-6.7c.9-.55 1.73-.8 2.57-.8.5 0 .84.15 1.04.45.2.3.35.7.35 1.3v5.75c0 .25.1.35.34.35Zm15.86-1.1c.54 0 .99-.15 1.29-.35.3-.2.44-.55.44-.95 0-.3-.05-.5-.25-.7-.2-.2-.5-.35-.99-.55l-1.48-.55c-1.28-.5-1.93-1.35-1.93-2.5 0-.75.3-1.4.9-1.85.59-.45 1.38-.7 2.32-.7.74 0 1.48.15 2.22.4.15.05.25.1.3.2.05.1.1.2.1.35v.5c0 .2-.1.3-.25.3l-.2-.05-.2-.05c-.59-.2-1.23-.3-1.87-.3-1.14 0-1.69.4-1.69 1.15 0 .35.1.55.3.75.15.2.55.4 1.09.6l1.38.55c.7.25 1.19.6 1.49.95.3.4.44.85.44 1.45 0 .85-.3 1.5-.94 2-.64.5-1.43.75-2.47.75-.99 0-1.88-.15-2.67-.5a.77.77 0 0 1-.3-.2.73.73 0 0 1-.1-.35v-.5c0-.2.05-.3.2-.3.08 0 .17.03.3.06l.15.04c.79.25 1.58.35 2.42.35Zm-6.48-.9v-6.65c0-.2.1-.35.4-.35h1.04c.25 0 .34.1.34.35v8.25c0 .25-.1.35-.34.35h-.74c-.15 0-.25 0-.3-.05-.1-.05-.15-.1-.15-.25l-.1-.6a5.65 5.65 0 0 1-3.36 1.2 2.6 2.6 0 0 1-1.93-.7c-.44-.45-.64-1.15-.64-2v-6.2c0-.25.1-.35.35-.35h1.04c.24 0 .34.1.34.35v5.65c0 .65.1 1.1.35 1.4.24.3.64.45 1.18.45.84 0 1.68-.3 2.52-.85Zm.94 12.1a43.2 43.2 0 0 0 16.61-3.45c.84-.35 1.53.55.7 1.15-4.8 3.6-11.77 5.5-17.8 5.5-8.4 0-16.02-3.15-21.75-8.4-.35-.35-.15-.75.2-.75.1 0 .2.05.3.1a43.27 43.27 0 0 0 21.74 5.85Zm16.46-17.1c.45-.5 1.14-.75 2.13-.75.5 0 .99.05 1.43.2.15.05.2.05.3.05.15 0 .25-.1.25-.35v-.5c0-.15-.05-.3-.1-.35-.05-.05-.15-.15-.25-.2a8.61 8.61 0 0 0-1.88-.3c-1.38 0-2.42.4-3.21 1.25-.74.8-1.14 2-1.14 3.5s.35 2.65 1.09 3.45c.74.8 1.78 1.2 3.16 1.2.74 0 1.44-.1 1.98-.35.15-.05.25-.1.3-.2.05-.05.05-.2.05-.35v-.5c0-.25-.1-.35-.25-.35-.05 0-.15 0-.25.05a6.1 6.1 0 0 1-1.58.25c-.94 0-1.63-.25-2.08-.75-.44-.5-.64-1.3-.64-2.35v-.25c.05-1.1.25-1.9.7-2.4Z"/><path fill="#000" d="M53.83 36.6c.54.7-.15 5.25-2.72 7.45-.45.3-.8.15-.64-.3.59-1.45 1.87-4.75 1.28-5.55-.64-.8-4.1-.4-5.63-.2-.45.05-.55-.35-.1-.65a8.75 8.75 0 0 1 4.9-1.35c1.47 0 2.66.3 2.9.6Zm-9.59-12.9H43.2c-.25 0-.35.1-.35.35v8.3c0 .25.1.35.35.35h1.04c.24 0 .34-.1.34-.35v-8.3c0-.2-.1-.35-.34-.35Z"/><defs><linearGradient id="a" x1="32" x2="32" y1="0" y2="64" gradientUnits="userSpaceOnUse"><stop stop-color="#79DDE7"/><stop offset="1" stop-color="#34CAD3"/></linearGradient></defs></svg>