<svg xmlns="http://www.w3.org/2000/svg" fill="none" viewBox="0 0 64 64"><circle cx="32" cy="32" r="32" fill="url(#a)"/><path fill="#fff" d="M32.5 31.86c-1.95-3.77-7.25-10.78-12.18-14.24-4.72-3.32-6.52-2.74-7.7-2.21-1.37.61-1.62 2.7-1.62 3.93 0 1.22.68 10.06 1.12 11.54 1.46 4.87 6.65 6.52 11.43 5.99-7 1.03-13.23 3.57-5.07 12.6 8.99 9.25 12.31-1.98 14.02-7.67 1.7 5.7 3.67 16.52 13.86 7.68 7.64-7.68 2.1-11.58-4.91-12.61 4.78.53 9.97-1.12 11.43-6C53.32 29.4 54 20.58 54 19.35c0-1.23-.25-3.32-1.62-3.93-1.18-.53-2.98-1.1-7.7 2.2-4.93 3.47-10.23 10.48-12.18 14.25Z"/><defs><linearGradient id="a" x1="32" x2="32" y1="0" y2="64" gradientUnits="userSpaceOnUse"><stop stop-color="#0a7aff"/><stop offset="1" stop-color="#59b9ff"/></linearGradient></defs></svg>