<svg xmlns="http://www.w3.org/2000/svg" fill="none" viewBox="0 0 64 64"><circle cx="32" cy="32" r="32" fill="url(#a)"/><path fill="#fff" d="M36.37 20.07a2.44 2.44 0 0 0-2.5 2.37v5.75c0 .72-.67 1.3-1.5 1.3-.82 0-1.5-.58-1.5-1.3v-7.82a2.44 2.44 0 0 0-2.5-2.37 2.44 2.44 0 0 0-2.5 2.37v6.27c0 .72-.67 1.3-1.5 1.3-.82 0-1.5-.58-1.5-1.3v-2.27a2.44 2.44 0 0 0-2.5-2.38 2.44 2.44 0 0 0-2.5 2.38v5.37c0 .72-.66 1.31-1.5 1.31-.82 0-1.5-.59-1.5-1.31v-.63a2.5 2.5 0 0 0-2.49-2.48 2.5 2.5 0 0 0-2.5 2.48v7.46a2.5 2.5 0 0 0 2.5 2.48 2.5 2.5 0 0 0 2.5-2.48v-.62c0-.73.67-1.32 1.5-1.32s1.5.6 1.5 1.32v8.52a2.44 2.44 0 0 0 2.5 2.37c1.38 0 2.5-1.06 2.5-2.37V32.84c0-.72.67-1.31 1.5-1.31.82 0 1.5.59 1.5 1.31v5.86a2.44 2.44 0 0 0 2.5 2.37c1.37 0 2.5-1.06 2.5-2.37v-4.3c0-.73.67-1.32 1.5-1.32.82 0 1.5.59 1.5 1.31V39a2.44 2.44 0 0 0 2.5 2.38c1.37 0 2.5-1.07 2.5-2.38V22.44a2.44 2.44 0 0 0-2.5-2.37Zm8 6.41a2.44 2.44 0 0 0-2.5 2.38v9.45a2.44 2.44 0 0 0 2.5 2.37c1.38 0 2.5-1.06 2.5-2.37v-9.45a2.44 2.44 0 0 0-2.5-2.38Zm5.5 7.18a2.44 2.44 0 0 1 2.5-2.37c1.38 0 2.5 1.06 2.5 2.37v2.35a2.44 2.44 0 0 1-2.5 2.38 2.44 2.44 0 0 1-2.5-2.38v-2.35Z"/><defs><linearGradient id="a" x1=".05" x2="63.73" y1="-.03" y2="63.82" gradientUnits="userSpaceOnUse"><stop stop-color="#F7B369"/><stop offset=".2" stop-color="#F39A53"/><stop offset=".57" stop-color="#ED6D34"/><stop offset=".85" stop-color="#EA4E24"/><stop offset="1" stop-color="#E8401F"/></linearGradient></defs></svg>