<svg xmlns="http://www.w3.org/2000/svg" fill="none" viewBox="0 0 64 64"><circle cx="32" cy="32" r="32" fill="#A238FF"/><path fill="#fff" fill-rule="evenodd" d="M46.23 19.4c.38-2.24.95-3.66 1.59-3.66 1.18 0 2.13 4.91 2.13 10.98 0 6.06-.96 10.98-2.14 10.98-.48 0-.92-.84-1.28-2.24-.57 5.12-1.75 8.64-3.11 8.64-1.06 0-2-2.11-2.64-5.45-.43 6.35-1.53 10.84-2.8 10.84-.8 0-1.53-1.78-2.08-4.68C35.25 50.8 33.75 55 32 55s-3.26-4.2-3.9-10.2c-.54 2.91-1.27 4.7-2.08 4.7-1.27 0-2.36-4.5-2.8-10.85-.63 3.34-1.58 5.45-2.64 5.45-1.36 0-2.54-3.52-3.1-8.64-.36 1.4-.81 2.24-1.3 2.24-1.17 0-2.13-4.92-2.13-10.98 0-6.07.96-10.98 2.14-10.98.63 0 1.2 1.42 1.59 3.67.63-3.89 1.65-6.41 2.8-6.41 1.37 0 2.56 3.57 3.13 8.75.55-3.77 1.38-6.17 2.31-6.17 1.31 0 2.43 4.73 2.84 11.32.78-3.38 1.9-5.5 3.14-5.5 1.25 0 2.37 2.12 3.14 5.5.42-6.6 1.53-11.32 2.84-11.32.93 0 1.77 2.4 2.32 6.17.56-5.18 1.75-8.75 3.12-8.75 1.15 0 2.18 2.53 2.8 6.4ZM11 25.65c0-2.71.54-4.91 1.21-4.91.67 0 1.21 2.2 1.21 4.9 0 2.72-.54 4.92-1.2 4.92-.68 0-1.22-2.2-1.22-4.91Zm39.58 0c0-2.71.54-4.91 1.2-4.91.68 0 1.22 2.2 1.22 4.9 0 2.72-.54 4.92-1.21 4.92-.67 0-1.21-2.2-1.21-4.91Z" clip-rule="evenodd"/></svg>