<svg xmlns="http://www.w3.org/2000/svg" viewBox="0 0 64 64"><path d="M32.5 1c-6.329 0-13.016.877-18.278 4.393C8.959 8.909 5.922 13.653 3.5 19.5 1.078 25.347.265 32.793 1.5 39c1.235 6.207 4.025 10.525 8.5 15s8.793 7.265 15 8.5c6.207 1.235 12.653 1.422 18.5-1 5.847-2.422 11.59-6.46 15.107-11.722C62.123 44.516 62.5 38.33 62.5 32c0-8.487-1.999-14.999-8-21-6.001-6.001-13.513-10-22-10z" fill="#fff"/><path d="M32 0a32 32 0 00-6 63.43V40.81h-7.6v-8.62H26v-6.58C26 18.13 30.43 14 37.25 14a46 46 0 016.68.58v7.34h-3.77c-3.7 0-4.86 2.31-4.86 4.66v5.61h8.28l-1.32 8.62h-7v23A32 32 0 0032 0z" fill="#46629d"/></svg>
