<svg xmlns="http://www.w3.org/2000/svg" viewBox="0 0 64 64"><path d="M31.94 0a32.13 32.13 0 00-27.3 48.77A32 32 0 0021.9 62.6c1.59.3 2.1-.7 2.1-1.54v-6c-8.83 1.94-10.68-3.77-10.68-3.77-1.45-3.71-3.53-4.7-3.53-4.7-2.88-2 .22-2 .22-2A6.59 6.59 0 0114.87 48c2.84 4.9 7.43 3.49 9.25 2.67a6.81 6.81 0 012-4.3c-7-.82-14.48-3.57-14.48-15.87A12.54 12.54 0 0115 21.85a11.67 11.67 0 01.29-8.56s2.67-.86 8.74 3.32a29.76 29.76 0 0115.89 0c6.07-4.15 8.73-3.32 8.73-3.32a11.69 11.69 0 01.31 8.51 12.51 12.51 0 013.31 8.61c0 12.34-7.43 15.05-14.5 15.85A7.67 7.67 0 0139.48 49a7.79 7.79 0 01.52 3.21v8.86c0 .85.51 1.86 2.12 1.54A32.13 32.13 0 0031.94 0z" fill="#24292e"/></svg>
