<svg xmlns="http://www.w3.org/2000/svg" viewBox="0 0 65 64"><circle cx="33" cy="32" r="32" fill="#24292E"/><path d="M24.22 62.78a2.5 2.5 0 0 0 .74-1.72v-6c-8.82 1.94-10.67-3.77-10.67-3.77-1.44-3.71-3.52-4.7-3.52-4.7-2.88-2 .22-2 .22-2A6.58 6.58 0 0 1 15.84 48c2.84 4.9 7.42 3.49 9.24 2.67a6.81 6.81 0 0 1 2-4.3c-7-.82-14.46-3.57-14.46-15.87-.03-3.2 1.17-6.3 3.35-8.65-.99-2.79-.89-5.85.29-8.56 0 0 2.67-.86 8.73 3.32a29.68 29.68 0 0 1 15.87 0c6.06-4.15 8.71-3.32 8.71-3.32a11.7 11.7 0 0 1 .31 8.51 12.52 12.52 0 0 1 3.3 8.61c0 12.34-7.41 15.05-14.47 15.85A7.67 7.67 0 0 1 40.4 49a7.8 7.8 0 0 1 .53 3.21v8.86c0 .66.3 1.26.75 1.74a32.03 32.03 0 0 1-17.47-.03Z" fill="#fff"/></svg>
