<svg xmlns="http://www.w3.org/2000/svg" viewBox="0 0 64 64"><path d="M63.5 32a31.5 31.5 0 1 1-63 0 31.5 31.5 0 0 1 63 0Z" fill="#F7F7F7" stroke="#E6E6E6"/><rect x="48.36" y="27.78" width="5.45" height="8.43" rx="2.72" fill="#4285F4"/><rect x="38.94" y="18.86" width="5.45" height="8.43" rx="2.72" fill="#34A853"/><rect x="38.94" y="30.01" width="5.45" height="15.13" rx="2.72" fill="#34A853"/><rect x="29.27" y="10.18" width="5.45" height="8.43" rx="2.72" fill="#FAB908"/><rect x="29.27" y="45.39" width="5.45" height="8.43" rx="2.72" fill="#FAB908"/><rect x="29.27" y="21.34" width="5.45" height="21.32" rx="2.72" fill="#FAB908"/><rect x="19.6" y="36.72" width="5.45" height="8.43" rx="2.72" fill="#EA4335"/><rect x="19.6" y="18.86" width="5.45" height="15.13" rx="2.72" fill="#EA4335"/><rect x="10.18" y="27.78" width="5.45" height="8.43" rx="2.72" fill="#0066D9"/></svg>
