<svg xmlns="http://www.w3.org/2000/svg" viewBox="0 0 58 58"><defs><radialGradient id="a" cx="0" cy="0" r="1" gradientUnits="userSpaceOnUse" gradientTransform="translate(11.89 50.687) scale(63.9638)"><stop stop-color="#fae100"/><stop offset=".054" stop-color="#fadc04"/><stop offset=".117" stop-color="#fbce0e"/><stop offset=".183" stop-color="#fcb720"/><stop offset=".251" stop-color="#fe9838"/><stop offset=".305" stop-color="#ff7950"/><stop offset=".492" stop-color="#ff1c74"/><stop offset="1" stop-color="#6c1cd1"/></radialGradient></defs><circle cx="29" cy="29" r="29" fill="url(#a)"/><path d="M14 23.055c.1-.706.176-1.416.303-2.117.72-3.97 3.531-6.671 7.55-6.81 4.839-.166 9.692-.175 14.53 0 4.374.157 7.542 3.396 7.678 7.771a223.11 223.11 0 010 13.95c-.136 4.375-3.303 7.614-7.678 7.772-4.838.174-9.692.179-14.53-.003-4.374-.164-7.399-3.41-7.691-7.793-.025-.379-.107-.754-.162-1.132V23.055zm15.09 17.972c2.213 0 4.43.067 6.641-.015 3.467-.129 5.6-2.198 5.68-5.661.1-4.316.1-8.638 0-12.954-.08-3.463-2.215-5.58-5.68-5.654a313.496 313.496 0 00-13.2 0c-3.44.072-5.578 2.147-5.672 5.572a241.69 241.69 0 000 13.119c.094 3.424 2.232 5.45 5.672 5.578 2.183.081 4.372.015 6.558.015z" fill="#fff"/><path d="M29.085 21.189a7.688 7.688 0 100 15.376 7.688 7.688 0 000-15.376zm0 12.729a5.041 5.041 0 110-10.082 5.041 5.041 0 010 10.082zM39.051 20.838a1.829 1.829 0 11-3.658 0 1.829 1.829 0 013.658 0z" fill="#fff"/></svg>