<svg xmlns="http://www.w3.org/2000/svg" fill="none" viewBox="0 0 64 64"><mask id="b" width="64" height="64" x="0" y="0" maskUnits="userSpaceOnUse" style="mask-type:alpha"><circle cx="32" cy="32" r="32" fill="url(#a)"/></mask><g mask="url(#b)"><path fill="url(#c)" d="M32.01 0C18.65 0 14.74.01 13.98.08c-2.74.22-4.44.66-6.3 1.58A12.78 12.78 0 0 0 4 4.36a13.74 13.74 0 0 0-3.7 7.78c-.22 1.5-.29 1.8-.3 9.45v10.4C0 45.34.02 49.24.08 50c.22 2.67.64 4.35 1.53 6.19a13.48 13.48 0 0 0 8.73 7.14c1.32.34 2.78.52 4.65.61.8.04 8.87.06 16.95.06s16.17-.01 16.94-.05c2.16-.1 3.42-.27 4.81-.63a13.4 13.4 0 0 0 8.74-7.15c.87-1.8 1.3-3.54 1.5-6.07.05-.55.07-9.34.07-18.12 0-8.78-.02-17.56-.06-18.11-.2-2.57-.65-4.3-1.54-6.12a12.69 12.69 0 0 0-2.74-3.76 13.81 13.81 0 0 0-7.8-3.7C50.38.08 50.08.01 42.44 0H32Z"/><path fill="url(#d)" d="M32.01 0C18.65 0 14.74.01 13.98.08c-2.74.22-4.44.66-6.3 1.58A12.78 12.78 0 0 0 4 4.36a13.74 13.74 0 0 0-3.7 7.78c-.22 1.5-.29 1.8-.3 9.45v10.4C0 45.34.02 49.24.08 50c.22 2.67.64 4.35 1.53 6.19a13.48 13.48 0 0 0 8.73 7.14c1.32.34 2.78.52 4.65.61.8.04 8.87.06 16.95.06s16.17-.01 16.94-.05c2.16-.1 3.42-.27 4.81-.63a13.4 13.4 0 0 0 8.74-7.15c.87-1.8 1.3-3.54 1.5-6.07.05-.55.07-9.34.07-18.12 0-8.78-.02-17.56-.06-18.11-.2-2.57-.65-4.3-1.54-6.12a12.69 12.69 0 0 0-2.74-3.76 13.81 13.81 0 0 0-7.8-3.7C50.38.08 50.08.01 42.44 0H32Z"/><path fill="url(#e)" d="M32.01 0C18.65 0 14.74.01 13.98.08c-2.74.22-4.44.66-6.3 1.58A12.78 12.78 0 0 0 4 4.36a13.74 13.74 0 0 0-3.7 7.78c-.22 1.5-.29 1.8-.3 9.45v10.4C0 45.34.02 49.24.08 50c.22 2.67.64 4.35 1.53 6.19a13.48 13.48 0 0 0 8.73 7.14c1.32.34 2.78.52 4.65.61.8.04 8.87.06 16.95.06s16.17-.01 16.94-.05c2.16-.1 3.42-.27 4.81-.63a13.4 13.4 0 0 0 8.74-7.15c.87-1.8 1.3-3.54 1.5-6.07.05-.55.07-9.34.07-18.12 0-8.78-.02-17.56-.06-18.11-.2-2.57-.65-4.3-1.54-6.12a12.69 12.69 0 0 0-2.74-3.76 13.81 13.81 0 0 0-7.8-3.7C50.38.08 50.08.01 42.44 0H32Z"/><path fill="url(#f)" d="M32.01 0C18.65 0 14.74.01 13.98.08c-2.74.22-4.44.66-6.3 1.58A12.78 12.78 0 0 0 4 4.36a13.74 13.74 0 0 0-3.7 7.78c-.22 1.5-.29 1.8-.3 9.45v10.4C0 45.34.02 49.24.08 50c.22 2.67.64 4.35 1.53 6.19a13.48 13.48 0 0 0 8.73 7.14c1.32.34 2.78.52 4.65.61.8.04 8.87.06 16.95.06s16.17-.01 16.94-.05c2.16-.1 3.42-.27 4.81-.63a13.4 13.4 0 0 0 8.74-7.15c.87-1.8 1.3-3.54 1.5-6.07.05-.55.07-9.34.07-18.12 0-8.78-.02-17.56-.06-18.11-.2-2.57-.65-4.3-1.54-6.12a12.69 12.69 0 0 0-2.74-3.76 13.81 13.81 0 0 0-7.8-3.7C50.38.08 50.08.01 42.44 0H32Z"/><path fill="#fff" d="M32.01 12c-5.43 0-6.12.02-8.25.11-2.13.1-3.59.44-4.86.93a9.8 9.8 0 0 0-3.55 2.3 9.82 9.82 0 0 0-2.3 3.55 14.6 14.6 0 0 0-.94 4.86c-.1 2.13-.12 2.81-.12 8.25 0 5.43.03 6.1.12 8.24.1 2.13.44 3.59.93 4.86a9.8 9.8 0 0 0 2.31 3.54 9.8 9.8 0 0 0 3.55 2.31c1.27.5 2.73.83 4.86.93 2.13.1 2.81.12 8.25.12 5.44 0 6.12-.02 8.25-.12 2.13-.1 3.6-.44 4.86-.93a9.8 9.8 0 0 0 3.55-2.3 9.82 9.82 0 0 0 2.3-3.55c.5-1.27.84-2.73.94-4.86.1-2.13.12-2.81.12-8.24 0-5.44-.03-6.12-.12-8.25-.1-2.13-.44-3.59-.93-4.86a9.82 9.82 0 0 0-2.31-3.54 9.78 9.78 0 0 0-3.55-2.3 14.6 14.6 0 0 0-4.86-.94c-2.14-.1-2.82-.12-8.25-.12Zm-1.8 3.6h1.8c5.35 0 5.98.02 8.1.11 1.94.1 3 .42 3.7.69.94.36 1.6.8 2.3 1.5a6.2 6.2 0 0 1 1.5 2.3c.28.7.6 1.76.7 3.71.1 2.1.11 2.74.11 8.08s-.02 5.97-.11 8.08a11.2 11.2 0 0 1-.7 3.72c-.36.93-.79 1.6-1.5 2.3a6.1 6.1 0 0 1-2.3 1.49c-.7.27-1.76.6-3.7.69-2.12.1-2.75.12-8.1.12-5.34 0-5.98-.03-8.09-.12a11.11 11.11 0 0 1-3.71-.7 6.2 6.2 0 0 1-2.3-1.49 6.2 6.2 0 0 1-1.5-2.3c-.28-.7-.6-1.76-.7-3.71-.09-2.1-.1-2.74-.1-8.08 0-5.35.01-5.98.1-8.08.1-1.96.42-3.01.7-3.72.36-.93.8-1.6 1.5-2.3.7-.7 1.36-1.13 2.3-1.5.7-.27 1.76-.6 3.71-.69 1.85-.08 2.57-.1 6.3-.1Zm12.49 3.32a2.4 2.4 0 1 0 0 4.8 2.4 2.4 0 0 0 0-4.8ZM32 21.72a10.28 10.28 0 1 0 0 20.56 10.28 10.28 0 0 0 0-20.56Zm0 3.6a6.67 6.67 0 1 1 0 13.35 6.67 6.67 0 0 1 0-13.34Z"/></g><defs><radialGradient id="c" cx="0" cy="0" r="1" gradientTransform="matrix(-39 11 -8 -28 61.93 30)" gradientUnits="userSpaceOnUse"><stop stop-color="#FF005F"/><stop offset="1" stop-color="#FC01D8"/></radialGradient><radialGradient id="d" cx="0" cy="0" r="1" gradientTransform="matrix(0 -51 54 0 17 68.93)" gradientUnits="userSpaceOnUse"><stop stop-color="#FC0"/><stop offset=".12" stop-color="#FC0"/><stop offset=".57" stop-color="#FE4A05"/><stop offset=".69" stop-color="#FF0F3F"/><stop offset="1" stop-color="#FE0657" stop-opacity="0"/></radialGradient><radialGradient id="e" cx="0" cy="0" r="1" gradientTransform="matrix(11 -18 24 14 33.62 63.1)" gradientUnits="userSpaceOnUse"><stop stop-color="#FC0"/><stop offset="1" stop-color="#FC0" stop-opacity="0"/></radialGradient><radialGradient id="f" cx="0" cy="0" r="1" gradientTransform="matrix(-39 11 -4 -13 8.68 2.6)" gradientUnits="userSpaceOnUse"><stop stop-color="#780CFF"/><stop offset="1" stop-color="#820BFF" stop-opacity="0"/></radialGradient><linearGradient id="a" x1="32" x2="32" y1="0" y2="64" gradientUnits="userSpaceOnUse"><stop stop-color="#0A7AFF"/><stop offset="1" stop-color="#59B9FF"/></linearGradient></defs></svg>