<svg xmlns="http://www.w3.org/2000/svg" viewBox="0 0 58 58"><defs><radialGradient id="a" cx="0" cy="0" r="1" gradientUnits="userSpaceOnUse" gradientTransform="translate(11.89 50.69) scale(63.9638)"><stop stop-color="#fae100"/><stop offset=".05" stop-color="#fadc04"/><stop offset=".12" stop-color="#fbce0e"/><stop offset=".18" stop-color="#fcb720"/><stop offset=".25" stop-color="#fe9838"/><stop offset=".3" stop-color="#ff7950"/><stop offset=".49" stop-color="#ff1c74"/><stop offset="1" stop-color="#6c1cd1"/></radialGradient></defs><circle cx="29" cy="29" r="29" fill="url(#a)"/><path d="M14 23.05c.1-.7.18-1.41.3-2.11.72-3.97 3.53-6.67 7.55-6.81 4.84-.17 9.7-.18 14.53 0a7.77 7.77 0 017.68 7.77 223.11 223.11 0 010 13.95 7.77 7.77 0 01-7.68 7.77c-4.83.18-9.69.18-14.53 0-4.37-.17-7.4-3.41-7.69-7.8-.02-.37-.1-.75-.16-1.13V23.06zm15.09 17.98c2.21 0 4.43.06 6.64-.02 3.47-.13 5.6-2.2 5.68-5.66.1-4.32.1-8.64 0-12.95-.08-3.47-2.21-5.58-5.68-5.66a313.5 313.5 0 00-13.2 0c-3.44.08-5.58 2.15-5.67 5.58a241.69 241.69 0 000 13.11c.1 3.43 2.23 5.45 5.67 5.58 2.18.08 4.37.02 6.56.02z" fill="#fff"/><path d="M29.09 21.19a7.69 7.69 0 100 15.37 7.69 7.69 0 000-15.37zm0 12.73a5.04 5.04 0 110-10.08 5.04 5.04 0 010 10.08zm9.96-13.08a1.83 1.83 0 11-3.66 0 1.83 1.83 0 013.66 0z" fill="#fff"/></svg>