<svg xmlns="http://www.w3.org/2000/svg" viewBox="0 0 64 64"><defs><radialGradient id="a" cx="-953.83" cy="607.65" r="1.1" gradientTransform="matrix(63.96 0 0 -63.96 61023.81 38923.43)" gradientUnits="userSpaceOnUse"><stop offset="0" stop-color="#fae100"/><stop offset=".05" stop-color="#fadc04"/><stop offset=".12" stop-color="#fbce0e"/><stop offset=".18" stop-color="#fcb720"/><stop offset=".25" stop-color="#fe9838"/><stop offset=".3" stop-color="#ff7950"/><stop offset=".49" stop-color="#ff1c74"/><stop offset="1" stop-color="#6c1cd1"/></radialGradient></defs><circle cx="32" cy="32" r="32" fill="url(#a)"/><path d="M32 18.06c4.54 0 5.08 0 6.87.1a9.32 9.32 0 013.16.59A5.63 5.63 0 0145.25 22a9.32 9.32 0 01.59 3.16c.08 1.79.1 2.33.1 6.87s0 5.08-.1 6.87a9.32 9.32 0 01-.59 3.1A5.63 5.63 0 0142 45.25a9.32 9.32 0 01-3.16.59c-1.79.08-2.33.1-6.87.1s-5.08 0-6.87-.1a9.32 9.32 0 01-3.1-.59A5.63 5.63 0 0118.75 42a9.32 9.32 0 01-.59-3.16c-.08-1.79-.1-2.33-.1-6.87s0-5.08.1-6.87a9.32 9.32 0 01.59-3.1A5.63 5.63 0 0122 18.75a9.32 9.32 0 013.16-.59c1.79-.08 2.33-.1 6.87-.1M32 15c-4.62 0-5.2 0-7 .1a12.49 12.49 0 00-4.13.79 8.69 8.69 0 00-5 5A12.49 12.49 0 0015.1 25c-.1 1.8-.1 2.38-.1 7s0 5.2.1 7a12.49 12.49 0 00.79 4.13 8.69 8.69 0 005 5 12.49 12.49 0 004.11.77c1.81.08 2.39.1 7 .1s5.2 0 7-.1a12.49 12.49 0 004.13-.79 8.69 8.69 0 005-5A12.49 12.49 0 0048.9 39c.08-1.81.1-2.39.1-7s0-5.2-.1-7a12.49 12.49 0 00-.79-4.13 8.69 8.69 0 00-5-5A12.49 12.49 0 0039 15.1c-1.8-.1-2.38-.1-7-.1z" fill="#fff"/><path d="M32 23.27A8.73 8.73 0 1040.73 32 8.73 8.73 0 0032 23.27zm0 14.4A5.67 5.67 0 1137.67 32 5.67 5.67 0 0132 37.67z" fill="#fff"/><circle cx="41.07" cy="22.93" r="2.04" fill="#fff"/></svg>
