<svg xmlns="http://www.w3.org/2000/svg" viewBox="0 0 64 64"><path fill="#0A66C2" d="M32 0a32 32 0 1 0 0 64 32 32 0 0 0 0-64Z"/><path fill="#fff" d="M46.45 15h-28.9A2.55 2.55 0 0 0 15 17.55v28.9A2.55 2.55 0 0 0 17.55 49h28.9A2.55 2.55 0 0 0 49 46.45v-28.9A2.55 2.55 0 0 0 46.45 15ZM25.2 43.9h-5.1V28.6h5.1v15.3Zm-2.55-18.27a2.97 2.97 0 1 1 3.06-2.98 3.03 3.03 0 0 1-3.06 2.98ZM43.9 43.9h-5.1v-8.06c0-2.41-1.02-3.28-2.35-3.28a2.96 2.96 0 0 0-2.75 3.16v8.18h-5.1V28.6h4.93v2.21a5.29 5.29 0 0 1 4.59-2.38c2.64 0 5.71 1.46 5.71 6.22l.07 9.25Z"/></svg>
