<svg xmlns="http://www.w3.org/2000/svg" viewBox="0 0 64 64"><path d="M32 64a32 32 0 1 0 0-64 32 32 0 0 0 0 64Z" fill="url(#a)"/><path d="M49.85 22.41c-.55-4.08-4.14-7.3-8.4-7.92-.72-.1-3.44-.49-9.75-.49h-.04c-6.31 0-7.66.38-8.38.49-4.14.6-7.92 3.5-8.84 7.63a25.92 25.92 0 0 0-.4 6.36c.11 2.96.13 5.93.4 8.88.2 1.96.52 3.91.99 5.83.87 3.54 4.4 6.49 7.86 7.69a21.27 21.27 0 0 0 12.74.26c.93-.29 2.01-.62 2.81-1.19a.09.09 0 0 0 .04-.07v-2.86a.08.08 0 0 0-.04-.07.09.09 0 0 0-.07-.01c-2.44.57-4.95.86-7.46.86-4.32 0-5.49-2.03-5.82-2.88a8.85 8.85 0 0 1-.5-2.3.08.08 0 0 1 .06-.05h.04c2.4.57 4.87.86 7.34.86.6 0 1.19 0 1.78-.02 2.49-.06 5.1-.2 7.56-.66l.17-.04c3.86-.74 7.53-3.04 7.9-8.87.02-.23.05-2.41.05-2.65 0-.8.27-5.74-.04-8.78Zm-5.93 14.56h-4.06v-9.84c0-2.08-.87-3.13-2.65-3.13-1.95 0-2.92 1.25-2.92 3.72v5.39h-4.04v-5.4c0-2.46-.98-3.71-2.93-3.71-1.76 0-2.64 1.05-2.64 3.13v9.84h-4.06V26.83c0-2.08.54-3.72 1.6-4.94a5.59 5.59 0 0 1 4.35-1.85c2.08 0 3.65.8 4.7 2.38l1 1.68 1.01-1.68a5.26 5.26 0 0 1 4.7-2.38 5.6 5.6 0 0 1 4.34 1.85c1.06 1.22 1.6 2.86 1.6 4.94v10.14Z" fill="#fff"/><defs><linearGradient id="a" x1="32" y1="0" x2="32" y2="64" gradientUnits="userSpaceOnUse"><stop stop-color="#6364FF"/><stop offset="1" stop-color="#563ACC"/></linearGradient></defs></svg>
