<svg xmlns="http://www.w3.org/2000/svg" viewBox="0 0 64 64"><path d="M42.24 6.52C24.49 9.22-1.7 27.7.09 42.77c1.56 13.27 19.22 21.6 36.98 18.9C54.82 58.98 60.65 46.32 61.53 33 62.05 11.62 60 3.8 42.23 6.52Z" fill="#3e1e5d"/><path d="M46.24 6.58C30.52 9.27 5.38 27.6 6.94 42.6c1.4 13.2 17.04 21.5 32.76 18.8 15.72-2.68 23.4-15.3 24.18-28.55.78-13.26-1.9-28.97-17.64-26.28Z" fill="#591ed7"/><path d="M50.24 40.61a3.06 3.06 0 0 1 .35 4.1c-3.17 4.02-8.62 7.2-15.53 7.2S22.54 48.86 19.5 44.9a3.15 3.15 0 0 1 .3-4.2 3.35 3.35 0 0 1 4.26-.28c10.48 7.93 13.6 7.36 18.47 5.05 4.88-2.31 5.69-6 7.6-4.97l.12.13h-.01Zm3.16-4.59a3.64 3.64 0 0 0 3.69-3.58 3.64 3.64 0 0 0-3.69-3.58 3.64 3.64 0 0 0-3.69 3.58 3.64 3.64 0 0 0 3.7 3.58Z" fill="#fff"/></svg>
