<svg xmlns="http://www.w3.org/2000/svg" viewBox="0 0 64 64"><circle cx="32" cy="32" r="32" fill="#f8991d"/><path fill="#fff" d="M26.5 42.2a4.6 4.6 0 0 1-4.8 4.8c-1.3 0-2.4-.5-3.3-1.4-1-1-1.4-2-1.4-3.4a5 5 0 0 1 1.4-3.4c1-.9 2-1.3 3.4-1.3a4.6 4.6 0 0 1 4.8 4.8Zm12.8 3c0 .5-.1 1-.5 1.3-.3.3-.6.5-1.1.5h-3.4c-.4 0-.7-.1-1-.4-.3-.3-.5-.6-.5-1a15.8 15.8 0 0 0-14.4-14.4c-.4 0-.7-.2-1-.5-.3-.3-.4-.6-.4-1v-3.4c0-.5.2-.9.5-1.2.3-.2.7-.4 1-.4h.2a22.3 22.3 0 0 1 20.6 20.6Zm12.7.1c0 .5-.1.9-.5 1.2-.3.3-.6.5-1.1.5h-3.5c-.5 0-.8-.1-1.2-.4-.3-.3-.4-.7-.4-1.1A27.8 27.8 0 0 0 37 27a28.6 28.6 0 0 0-18.5-8.3c-.4 0-.8-.2-1-.5-.4-.3-.5-.6-.5-1v-3.6c0-.5.2-.9.5-1.2.3-.3.7-.4 1-.4h.2a34.5 34.5 0 0 1 23 10.3 34.8 34.8 0 0 1 10.3 23Z"/></svg>
