<svg xmlns="http://www.w3.org/2000/svg" viewBox="0 0 512 512"><circle cx="256" cy="256" fill="#77d4b6" r="256"/><path d="M211.9 235.1l21.5 64.2 66.7-22.4-21.5-64.2-66.7 22.4zM398 298.8l-32.4 10.8 11.2 33.5c4.5 13.5-2.8 28.2-16.3 32.8a26.02 26.02 0 01-32.8-16.4L316.5 326l-66.7 22.4 11.2 33.5a26 26 0 01-16.3 32.8 26.02 26.02 0 01-32.8-16.4l-11.2-33.5-32.4 10.8a26.02 26.02 0 01-32.8-16.4 26.03 26.03 0 0116.3-32.8l32.4-10.8-21.5-64.2-32.4 10.8a26.02 26.02 0 01-32.8-16.4 26.03 26.03 0 0116.3-32.8l32.4-10.8-11.2-33.5a26 26 0 0116.3-32.8 26 26 0 0132.8 16.3l11.2 33.5 66.7-22.4-11.2-33.5A26 26 0 01267.1 97a26 26 0 0132.8 16.3l11.2 33.5 32.4-10.8a26 26 0 0132.8 16.3 26 26 0 01-16.3 32.8l-32.4 10.8 21.5 64.2 32.4-10.8c13.5-4.5 28.2 2.8 32.8 16.3 4.6 14-2.7 28.6-16.3 33.2z" fill="#fff"/></svg>