<svg xmlns="http://www.w3.org/2000/svg" viewBox="0 0 64 64"><circle cx="32" cy="32" r="32" fill="#fff"/><path d="M21.56 36.75A3.78 3.78 0 1117.78 33h3.78zM23.47 36.75a3.78 3.78 0 017.56 0v9.47a3.78 3.78 0 01-7.56 0z" fill="#e01e5a"/><path d="M27.25 21.56A3.78 3.78 0 1131 17.78v3.78zM27.25 23.47a3.78 3.78 0 010 7.56h-9.47a3.78 3.78 0 010-7.56z" fill="#36c5f0"/><path d="M42.44 27.25A3.78 3.78 0 1146.22 31h-3.78zM40.53 27.25a3.78 3.78 0 01-7.56 0v-9.47a3.78 3.78 0 017.56 0z" fill="#2eb67d"/><path d="M36.75 42.44A3.78 3.78 0 1133 46.22v-3.78zM36.75 40.53a3.78 3.78 0 010-7.56h9.47a3.78 3.78 0 010 7.56z" fill="#ecb22e"/></svg>
