<svg xmlns="http://www.w3.org/2000/svg" viewBox="0 0 64 64"><path d="M33.1 33.02c2.45 19.19 28.95 33.4-5.36 30.64C9.38 61.28-1.59 44.38.2 29.4 1.96 13.52 12.93 2.03 27.74.26c33.31-2.7 3.29 16.43 5.37 32.76Z" fill="#3E1E5D"/><path d="M63.77 30.55c2.44 19.2-11.67 35.51-30.04 33.1C15.37 61.29 4.4 44.39 6.18 29.4 7.95 13.52 18.9 2.03 33.73.26 48.55-1.5 61.7 14.23 63.77 30.56Z" fill="#591ED7"/><path d="M40.67 52.38c-2.13-.05-7.12.07-7.73-2.9-.33-1.59-.35-2.3 3.68-9.06 1.47-2.46 3.64-6.19 4.63-9.46.54-1.75 1.09-5.28-.3-5.28-2.04 0-1.18 5.1-4.77 5.9-1.18.3-2.38-.5-2.59-1.7a5.54 5.54 0 0 1 1-4.02c1.52-2.36 5.8-5.65 10.74-4.02 4.94 1.64 4.85 8.26-2.05 18.93-1.8 2.99-1 4.49-.41 4.86.62.4 1.49.3 2.93-.85.71-.52 1.35-.53 2.01.04 1.43 1.21 2.54 3.4.82 5.32-1.73 1.9-6.16 2.23-7.96 2.25Z" fill="#fff"/><path d="m34.25 17.94-.73-.02c-.74-.01-1.33-.6-1.3-1.3l.12-2.27c.06-1.5.6-2.7-3.49-2.78-3.08-.06-3.43 1.39-3.59 2.3-.15.9-.29 2.06-.38 2.9-.07.6-.58 1.07-1.22 1.1l-.96.07c-1.07 0-1.66.16-1.99 1.54 0 0-.79 2.57 1 2.57h1.78c2.03 0 .97 6.28.87 7.1-.98 7.63 0 16.51 3.58 16.51 4.19 0 8.42-10.64 5.93-10.18-2.95.54-3.86-4.06-3.16-8.07.3-1.76.7-2.93 1.1-3.7.68-1.26.91-1.66 2.45-1.66 1.84 0 1.99-1.42 2.12-2.67.13-1.25-.55-1.45-2.12-1.45v.01Z" fill="#fff"/></svg>
