<svg xmlns="http://www.w3.org/2000/svg" viewBox="0 0 64 64"><path d="M32 0a32 32 0 1 0 0 64 32 32 0 0 0 0-64Z" fill="#38AEEA"/><path d="m46.87 30.57 2.45-11.8h-.03a1.23 1.23 0 0 0-.38-1.18 1.23 1.23 0 0 0-1.24-.22c-3.82 1.41-12.3 4.58-20.3 7.56l-14.45 5.39c-.25.1-.47.27-.62.49a1.26 1.26 0 0 0 .05 1.49c.16.21.4.37.65.45 3.7 1.1 8.58 2.63 8.58 2.63s2.21 6.8 3.42 10.26c.07.21.2.4.35.56a1.31 1.31 0 0 0 1.26.33c.22-.05.43-.16.59-.32l4.8-4.54s5.51 4.08 8.64 6.32c.25.18.54.3.84.33a1.71 1.71 0 0 0 1.6-.61c.2-.23.33-.5.39-.8.76-3.56 2.13-10.2 3.4-16.34ZM42.5 22.7c.05.03.1.07.13.12.04.04.07.1.09.15v.16c0 .06-.03.11-.06.16a.28.28 0 0 1-.11.13L26.76 37.68l-.6 5.49-2.6-8.6 18.46-11.84.15-.08a.49.49 0 0 1 .17 0l.16.05Z" fill="#fff"/></svg>
