<svg xmlns="http://www.w3.org/2000/svg" viewBox="0 0 64 64"><path d="M42.63 22.82a.49.49 0 00-.13-.12l-.16-.05a.49.49 0 00-.17 0 .55.55 0 00-.15.08L23.56 34.57l2.6 8.6.6-5.49 15.79-14.26a.28.28 0 00.11-.13.44.44 0 00.06-.16.86.86 0 000-.16.53.53 0 00-.09-.15z" fill="#38aeea"/><path d="M32 0a32 32 0 1032 32A32 32 0 0032 0zm17.32 18.77c-1.22 5.76-4.49 21.8-5.85 28.14a1.72 1.72 0 01-.39.8 1.71 1.71 0 01-1.6.61 1.86 1.86 0 01-.84-.33C37.51 45.75 32 41.67 32 41.67l-4.8 4.54a1.27 1.27 0 01-.59.32 1.31 1.31 0 01-.68 0 1.41 1.41 0 01-.58-.33 1.43 1.43 0 01-.35-.56c-1.21-3.46-3.42-10.26-3.42-10.26S16.7 33.85 13 32.75a1.3 1.3 0 01-.65-.45 1.26 1.26 0 01-.05-1.49 1.36 1.36 0 01.62-.49c8.2-3.05 28.24-10.54 34.75-12.95a1.23 1.23 0 011.24.22 1.23 1.23 0 01.38 1.18z" fill="#38aeea"/></svg>
