<svg xmlns="http://www.w3.org/2000/svg" fill="none" viewBox="0 0 64 64"><circle cx="32" cy="32" r="32" fill="#000"/><path fill="#fff" d="m41.8 30.46-.57-.26c-.33-6.01-3.68-9.45-9.29-9.49h-.07c-3.36 0-6.15 1.41-7.87 3.97l3.08 2.09a5.51 5.51 0 0 1 4.79-2.33h.05c1.85.01 3.24.54 4.14 1.57.66.75 1.1 1.79 1.32 3.1a24 24 0 0 0-5.3-.25c-5.34.3-8.77 3.36-8.54 7.6a6.54 6.54 0 0 0 3.07 5.23 9.62 9.62 0 0 0 5.73 1.41c2.79-.15 4.98-1.2 6.5-3.1a11.4 11.4 0 0 0 2.22-5.72 6.78 6.78 0 0 1 2.86 3.08c.93 2.12.98 5.6-1.91 8.45-2.54 2.5-5.59 3.57-10.2 3.6-5.1-.04-8.96-1.65-11.48-4.79-2.35-2.94-3.57-7.18-3.61-12.62.04-5.44 1.26-9.68 3.61-12.62 2.52-3.14 6.38-4.75 11.49-4.8 5.14.05 9.08 1.66 11.68 4.82a15.54 15.54 0 0 1 2.88 5.76l3.62-.95a19.19 19.19 0 0 0-3.63-7.2c-3.35-4.04-8.24-6.11-14.54-6.15h-.02c-6.3.04-11.13 2.12-14.38 6.18C14.54 20.65 13.05 25.68 13 32c.05 6.3 1.54 11.34 4.43 14.95 3.25 4.06 8.09 6.14 14.38 6.18h.02c5.6-.04 9.53-1.47 12.78-4.66a11.3 11.3 0 0 0 2.72-12.62 10.9 10.9 0 0 0-5.54-5.4Zm-9.66 8.92c-2.34.13-4.77-.9-4.89-3.11-.09-1.64 1.19-3.47 5.03-3.69.44-.02.87-.04 1.3-.04 1.4 0 2.7.14 3.89.4-.44 5.43-3.04 6.32-5.33 6.44Z"/></svg>