<svg xmlns="http://www.w3.org/2000/svg" viewBox="0 0 64 64"><path d="M32 0a32 32 0 1 0 0 64 32 32 0 0 0 0-64Z" fill="#1DA1F2"/><path d="M47.8 25.46v1c0 10-7.62 21.56-21.56 21.56-4.11 0-8.14-1.18-11.6-3.41a15.21 15.21 0 0 0 11.21-3.14 7.57 7.57 0 0 1-7.08-5.26c1.13.22 2.3.18 3.42-.13a7.58 7.58 0 0 1-6.08-7.43v-.09a7.5 7.5 0 0 0 3.44.94 7.58 7.58 0 0 1-2.35-10.11 21.52 21.52 0 0 0 15.61 7.92 7.58 7.58 0 0 1 12.91-6.91c1.7-.34 3.33-.96 4.82-1.84a7.63 7.63 0 0 1-3.34 4.19c1.5-.18 2.97-.58 4.36-1.19a15.48 15.48 0 0 1-3.76 3.9Z" fill="#fff"/></svg>
