<svg xmlns="http://www.w3.org/2000/svg" viewBox="0 0 64 64"><path d="M32 0a32 32 0 1032 32A32 32 0 0032 0zm15.8 25.46v1c0 10-7.62 21.56-21.56 21.56a21.41 21.41 0 01-11.6-3.41 13.74 13.74 0 001.81.11 15.21 15.21 0 009.4-3.25 7.57 7.57 0 01-7.08-5.26 7.47 7.47 0 003.42-.13 7.58 7.58 0 01-6.08-7.43v-.09a7.51 7.51 0 003.44.94 7.58 7.58 0 01-2.35-10.11 21.52 21.52 0 0015.61 7.92 7.58 7.58 0 0112.91-6.91 15.42 15.42 0 004.82-1.84 7.63 7.63 0 01-3.34 4.19 15.34 15.34 0 004.36-1.19 15.48 15.48 0 01-3.76 3.9z" fill="#1da1f2"/></svg>
