<svg viewBox="0 0 58 58" xmlns="http://www.w3.org/2000/svg"><path d="M43.34 23.31C43.78 33.07 36.55 44 23.76 44a19.39 19.39 0 01-10.56-3.16A13.789 13.789 0 0023.4 38a6.91 6.91 0 01-6.4-4.86 6.86 6.86 0 003.07-.14 6.94 6.94 0 01-5.53-6.89 6.84 6.84 0 003.12.87 7 7 0 01-2.13-9.27A19.51 19.51 0 0029.73 25a6.939 6.939 0 016.72-8.52 6.86 6.86 0 015 2.19 13.68 13.68 0 004.4-1.67 7 7 0 01-3 3.84 13.671 13.671 0 004-1.09 13.89 13.89 0 01-3.51 3.56zM28.79 0a29 29 0 1028.79 29A28.9 28.9 0 0028.79 0z" fill="#1da1f2"/></svg>