<svg xmlns="http://www.w3.org/2000/svg" viewBox="0 0 64 64"><path d="M32.5 1c-6.329 0-13.016.877-18.278 4.393C8.959 8.909 5.922 13.653 3.5 19.5 1.078 25.347.265 32.793 1.5 39c1.235 6.207 4.025 10.525 8.5 15s8.793 7.265 15 8.5c6.207 1.235 12.653 1.422 18.5-1 5.847-2.422 11.59-6.46 15.107-11.722C62.123 44.516 62.5 38.33 62.5 32c0-8.487-1.999-14.999-8-21-6.001-6.001-13.513-10-22-10z" fill="#fff"/><path d="M32 0a32 32 0 1032 32A32 32 0 0032 0zm15.8 25.46v1c0 10-7.62 21.56-21.56 21.56a21.41 21.41 0 01-11.6-3.41 13.74 13.74 0 001.81.11 15.21 15.21 0 009.4-3.25 7.57 7.57 0 01-7.08-5.26 7.47 7.47 0 003.42-.13 7.58 7.58 0 01-6.08-7.43v-.09a7.51 7.51 0 003.44.94 7.58 7.58 0 01-2.35-10.11 21.52 21.52 0 0015.61 7.92 7.58 7.58 0 0112.91-6.91 15.42 15.42 0 004.82-1.84 7.63 7.63 0 01-3.34 4.19 15.34 15.34 0 004.36-1.19 15.48 15.48 0 01-3.76 3.9z" fill="#1da1f2"/></svg>
