<svg xmlns="http://www.w3.org/2000/svg" viewBox="0 0 59 58"><path d="M45.07 39.06h-4.51c-2.55 0-3-1.45-5.08-3.55-1.9-1.9-2.95-.44-2.9 2.26a1.13 1.13 0 01-1.2 1.29c-2.67 0-6.51.38-10.4-3.82-3.89-4.2-8.15-12.92-8.15-13.77 0-.5.42-.73 1.11-.73h4.59c1.22 0 1.32.6 1.66 1.37 1.41 3.22 4.79 9.67 5.69 6.07.52-2.07.73-6.86-1.49-7.27-1.26-.23 1-1.58 4.16-1.58.86 0 1.71.1 2.55.29 1.64.38 1.64 1.11 1.64 2.17-.08 4-.57 6.73.49 7.42 1.06.69 3.68-3.63 5.08-6.94.38-.91.46-1.53 1.55-1.53h5.58c2.94 0-.38 4.22-2.92 7.52-2 2.66-1.94 2.71.44 4.92 1.69 1.57 3.7 3.72 3.7 4.94 0 .57-.45.94-1.59.94zM29.74 0a29 29 0 100 58 29 29 0 000-58z" fill="#4a76a8"/></svg>