<svg xmlns="http://www.w3.org/2000/svg" viewBox="0 0 64 64"><circle cx="32" cy="32" r="32" fill="#25D366"/><path fill="#fff" d="M47.88 16.1a20.82 20.82 0 0 0-14.8-6.1 20.89 20.89 0 0 0-20.9 20.81c0 3.67.96 7.25 2.79 10.4L12 52l11.09-2.9A20.9 20.9 0 0 0 54 30.83c0-5.55-2.17-10.78-6.12-14.72Zm-14.8 32.02c-3.12 0-6.18-.83-8.85-2.4l-.63-.38-6.58 1.72 1.76-6.39-.42-.65a17.2 17.2 0 0 1-2.65-9.2c0-9.55 7.8-17.3 17.39-17.3 4.64 0 9 1.8 12.28 5.07a17.15 17.15 0 0 1 5.09 12.24c0 9.53-7.8 17.3-17.38 17.3Zm9.54-12.95a94.7 94.7 0 0 0-3.57-1.7c-.48-.17-.83-.25-1.17.27-.35.52-1.35 1.7-1.66 2.04-.3.34-.6.39-1.13.13-.52-.26-2.2-.81-4.2-2.58a15.68 15.68 0 0 1-2.91-3.6c-.3-.53-.03-.8.23-1.07.23-.23.52-.6.78-.9.26-.31.35-.53.53-.88.17-.34.08-.65-.05-.9-.13-.27-1.17-2.83-1.6-3.87-.43-1.01-.86-.87-1.18-.89-.3-.02-.66-.02-1-.02-.35 0-.92.13-1.4.65-.48.52-1.83 1.78-1.83 4.34 0 2.56 1.87 5.03 2.14 5.38.26.35 3.68 5.6 8.92 7.85 1.25.54 2.22.86 2.98 1.1a7.2 7.2 0 0 0 3.3.2c1-.14 3.08-1.25 3.52-2.47.43-1.21.43-2.25.3-2.47-.13-.22-.48-.35-1-.6v-.01Z"/></svg>
