<svg xmlns="http://www.w3.org/2000/svg" fill="none" viewBox="0 0 64 64"><g clip-path="url(#a)"><path fill="#000" d="M32 64a32 32 0 1 0 0-64 32 32 0 0 0 0 64Z"/><path fill="#FED42B" d="m53.62 25.91-.1-.82-6.75-1.57 3.49-5.17-.42-.56-5.43 2.66.6-7.23-.6-.3-3.37 5.8L37.08 10h-.75l.97 8.54-9.92-7.9-.86.22 7.64 9.59-15.17-5.06-.7.79 13.54 7.67-18.64 1.58-.19 1.12 19.4 2.1L16.18 41.9l.75 1.01 19.21-10.48-3.78 18.38h1.16l7.41-17.3 4.5 13.52.78-.6-1.68-13.55 6.85 7.75.41-.79-5.1-9.58 7.24 2.54.07-.78-6.03-4.83 5.65-1.28Z"/></g><defs><clipPath id="a"><path fill="#fff" d="M0 0h64v64H0z"/></clipPath></defs></svg>