<svg xmlns="http://www.w3.org/2000/svg" viewBox="0 0 64 64"><path d="M32.5 1c-6.329 0-13.016.877-18.278 4.393C8.959 8.909 5.922 13.653 3.5 19.5 1.078 25.347.265 32.793 1.5 39c1.235 6.207 4.025 10.525 8.5 15s8.793 7.265 15 8.5c6.207 1.235 12.653 1.422 18.5-1 5.847-2.422 11.59-6.46 15.107-11.722C62.123 44.516 62.5 38.33 62.5 32c0-8.487-1.999-14.999-8-21-6.001-6.001-13.513-10-22-10z" fill="#fff"/><path fill="red" d="M27 38.25L40.01 32 27 25.75v12.5z"/><path d="M32 0a32 32 0 1032 32A32 32 0 0032 0zm12 45c-5.52.39-18 .39-23.52 0-6-.4-6.76-3.38-6.76-13s.75-12.63 6.77-13c5.52-.39 18-.39 23.52 0 6 .42 6.73 3.39 6.77 13S50.06 44.64 44 45z" fill="red"/></svg>
