<svg xmlns="http://www.w3.org/2000/svg" viewBox="0 0 64 64"><circle cx="32" cy="32" r="32" fill="#000"/><path fill="#fff" fill-rule="evenodd" d="M29.67 45.86c.1.45.14.67 0 .83-.14.15-.37.13-.84.1a16.52 16.52 0 0 1-5.22-1.2 7.77 7.77 0 0 1-4.2-4.2c-.48-1.14-.96-2.6-1.2-5.22-.03-.47-.05-.7.1-.84.16-.14.38-.1.83 0a13.6 13.6 0 0 1 10.53 10.53Zm5.06 1.02c-.37.01-.55.02-.67-.08-.13-.1-.15-.3-.2-.67a17.66 17.66 0 0 0-14.99-14.98c-.38-.06-.57-.08-.67-.2-.1-.13-.1-.31-.08-.68.07-1.52.22-2.71.4-3.69.06-.32.1-.48.22-.58.13-.1.3-.08.62-.06a21.39 21.39 0 0 1 19.7 19.7c.02.33.04.5-.06.62-.1.13-.26.16-.58.22-.98.18-2.17.33-3.7.4Zm9.42-3.22c-.41.45-.62.68-.87.6-.25-.07-.3-.4-.41-1.08a25.48 25.48 0 0 0-21.05-21.05c-.67-.1-1-.16-1.08-.41-.08-.25.15-.46.6-.87.66-.6 1.43-1.1 2.27-1.45 1.6-.66 3.8-1.33 8.89-1.33 5.09 0 7.3.67 8.9 1.33 1.9.8 3.4 2.3 4.2 4.2.66 1.6 1.33 3.81 1.33 8.9s-.67 7.3-1.33 8.9a7.8 7.8 0 0 1-1.45 2.26ZM14 32.5c0-5.52.74-8.28 1.64-10.45 1.2-2.9 3.5-5.2 6.4-6.4 2.2-.92 4.95-1.65 10.46-1.65 5.52 0 8.28.74 10.45 1.64 2.9 1.2 5.2 3.5 6.4 6.4.91 2.18 1.65 4.94 1.65 10.46 0 5.52-.74 8.28-1.64 10.45a11.8 11.8 0 0 1-6.4 6.4C40.78 50.26 38.02 51 32.5 51c-5.52 0-8.27-.74-10.45-1.64a11.8 11.8 0 0 1-6.4-6.4C14.73 40.77 14 38.01 14 32.5Z"/></svg>
