<svg viewBox="0 0 100 100" xmlns="http://www.w3.org/2000/svg"><path fill="hsl(11deg 66% 58%)" d="M0 0h100v100H0z"/><path d="M27.864 54.054c0-.216.006-.402.018-.558.012-.156.036-.294.072-.414.324-.024.576-.084.756-.18.18-.096.306-.264.378-.504.072-.24.108-.582.108-1.026V44.46c0-.456-.036-.798-.108-1.026-.06-.228-.18-.39-.36-.486-.18-.108-.432-.174-.756-.198a3.082 3.082 0 0 1-.09-.414 7.883 7.883 0 0 1-.018-.558c.228.012.492.024.792.036.312 0 .642.006.99.018H31.5v9.234c0 .516.054.918.162 1.206.108.276.288.474.54.594.264.108.6.18 1.008.216.048.12.078.264.09.432.024.168.036.348.036.54a41.44 41.44 0 0 0-.756-.036c-.288 0-.6-.006-.936-.018h-2.52c-.552.012-.972.03-1.26.054zm7.578-3.636c-.216 0-.408-.006-.576-.018a5.824 5.824 0 0 1-.486-.09c-.048-.588-.204-.984-.468-1.188-.252-.204-.714-.306-1.386-.306h-1.224v-.954h1.224c.684 0 1.152-.096 1.404-.288.264-.192.402-.564.414-1.116.168-.06.342-.096.522-.108a4.64 4.64 0 0 1 .576-.036c-.012.288-.024.606-.036.954a34.612 34.612 0 0 0 0 2.16c.012.36.024.69.036.99zm.288-5.436a3.316 3.316 0 0 0-.324-1.08c-.156-.348-.432-.624-.828-.828-.384-.216-.936-.324-1.656-.324h-1.98l.468-.918h2.412a173.26 173.26 0 0 0 1.656-.036c.432-.012.768-.018 1.008-.018.012.276.036.6.072.972.036.36.078.714.126 1.062.048.348.108.654.18.918a1.92 1.92 0 0 1-.504.198c-.18.036-.39.054-.63.054zm7.153 9.18a.746.746 0 0 1-.396-.342c-.084-.168-.126-.402-.126-.702a3.608 3.608 0 0 1 .144-.972l.054-.036c-.072.264-.18.522-.324.774-.144.24-.318.444-.522.612-.228.192-.51.348-.846.468a3.828 3.828 0 0 1-1.17.162c-.792 0-1.404-.174-1.836-.522-.42-.348-.63-.834-.63-1.458 0-.456.108-.846.324-1.17.216-.336.504-.618.864-.846a4.95 4.95 0 0 1 1.17-.54 8.529 8.529 0 0 1 1.296-.324c.444-.084.852-.156 1.224-.216 0-.408-.012-.732-.036-.972a2.003 2.003 0 0 0-.108-.612.981.981 0 0 0-.252-.432 1.122 1.122 0 0 0-.468-.36 1.345 1.345 0 0 0-.576-.126c-.36 0-.648.108-.864.324a1.974 1.974 0 0 0-.45.81 4.27 4.27 0 0 0-.18.9c-.228 0-.456-.006-.684-.018a2.287 2.287 0 0 1-.576-.126c.024-.324.03-.672.018-1.044a5.65 5.65 0 0 0-.126-1.044 7.617 7.617 0 0 1 1.674-.558 8.14 8.14 0 0 1 1.71-.198c.6 0 1.086.072 1.458.216.384.144.678.324.882.54.276.276.474.648.594 1.116.12.456.18 1.098.18 1.926v1.728c0 .36.024.648.072.864.06.204.162.348.306.432.156.084.39.132.702.144a1.9 1.9 0 0 1 0 .522c-.012.18-.054.348-.126.504a5.806 5.806 0 0 0-1.224.18 5.42 5.42 0 0 0-1.152.396zm-2.448-1.332c.252 0 .504-.084.756-.252.264-.168.48-.42.648-.756.18-.348.27-.792.27-1.332v-.558a9.03 9.03 0 0 0-.99.198 3.523 3.523 0 0 0-.846.306c-.24.12-.432.282-.576.486-.144.204-.216.468-.216.792 0 .384.096.666.288.846.192.18.414.27.666.27zm6.162 1.224c0-.18.006-.354.018-.522a2.25 2.25 0 0 1 .108-.45c.48-.012.798-.126.954-.342.168-.216.252-.624.252-1.224v-3.15c0-.288-.03-.522-.09-.702a.708.708 0 0 0-.378-.414c-.192-.096-.48-.15-.864-.162 0-.168.012-.324.036-.468a1.13 1.13 0 0 1 .144-.414c.312 0 .66-.03 1.044-.09.396-.06.762-.138 1.098-.234.336-.096.582-.192.738-.288a.633.633 0 0 1 .342.27c.096.132.144.33.144.594v5.058c0 .6.078 1.008.234 1.224.156.216.444.33.864.342.048.132.078.288.09.468.012.18.018.348.018.504a41.07 41.07 0 0 0-.684-.036c-.252 0-.522-.006-.81-.018h-1.746c-.3.012-.582.018-.846.018a45.58 45.58 0 0 0-.666.036zm2.25-10.116c-.384 0-.702-.108-.954-.324a1.12 1.12 0 0 1-.36-.846c0-.396.132-.702.396-.918a1.41 1.41 0 0 1 .954-.342c.42 0 .75.114.99.342.252.216.378.516.378.9 0 .324-.132.606-.396.846-.264.228-.6.342-1.008.342zm3.672 10.116c0-.18.006-.354.018-.522.012-.168.042-.318.09-.45.48-.012.804-.126.972-.342.168-.216.252-.624.252-1.224v-7.722c0-.264-.036-.48-.108-.648a.647.647 0 0 0-.378-.396c-.192-.096-.48-.15-.864-.162 0-.168.012-.324.036-.468a1.13 1.13 0 0 1 .144-.414c.324 0 .678-.03 1.062-.09.396-.06.762-.138 1.098-.234.336-.096.582-.192.738-.288a.64.64 0 0 1 .324.27c.096.132.144.33.144.594v9.558c0 .6.078 1.008.234 1.224.168.216.456.33.864.342.048.132.078.288.09.468.012.18.018.348.018.504-.18-.012-.402-.024-.666-.036-.252 0-.528-.006-.828-.018h-1.746c-.3.012-.582.018-.846.018-.252.012-.468.024-.648.036zm11.257-1.306c-.408 0-.726-.114-.954-.342-.228-.228-.342-.522-.342-.882 0-.372.126-.678.378-.918.264-.24.594-.36.99-.36s.702.126.918.378c.216.252.324.522.324.81 0 .408-.126.732-.378.972-.24.228-.552.342-.936.342zm0-5.094c-.408 0-.726-.114-.954-.342-.228-.228-.342-.522-.342-.882 0-.372.126-.678.378-.918.264-.24.594-.36.99-.36s.702.126.918.378c.216.252.324.522.324.81 0 .408-.126.732-.378.972-.24.228-.552.342-.936.342zm6.366-7.992c.18-.012.33.006.45.054s.24.12.36.216c-.528.816-.96 1.65-1.296 2.502a13.781 13.781 0 0 0-.72 2.772c-.156.984-.234 2.094-.234 3.33 0 1.272.084 2.454.252 3.546.18 1.08.444 2.082.792 3.006.36.924.798 1.806 1.314 2.646-.108.06-.234.102-.378.126-.144.024-.294.03-.45.018a18.599 18.599 0 0 1-1.782-2.718c-.516-.96-.924-1.98-1.224-3.06a13.222 13.222 0 0 1-.432-3.42c0-1.128.12-2.184.36-3.168a13.51 13.51 0 0 1 1.116-2.916 23.74 23.74 0 0 1 1.872-2.934z"/></svg>
